G04*
G04 #@! TF.GenerationSoftware,Altium Limited,Altium Designer,18.1.6 (161)*
G04*
G04 Layer_Color=8421504*
%FSTAX24Y24*%
%MOIN*%
G70*
G01*
G75*
%ADD22R,0.0551X0.0472*%
%ADD23R,0.0394X0.0550*%
%ADD24R,0.0550X0.0394*%
%ADD25R,0.0500X0.0550*%
%ADD26R,0.0217X0.0591*%
%ADD27R,0.0591X0.0217*%
%ADD28R,0.0669X0.0787*%
%ADD29O,0.0250X0.1000*%
%ADD30R,0.0748X0.0945*%
%ADD31R,0.0315X0.0472*%
%ADD32R,0.0550X0.0500*%
%ADD33R,0.0669X0.0669*%
%ADD34R,0.1299X0.3150*%
%ADD35R,0.0591X0.0236*%
%ADD36R,0.0835X0.0858*%
%ADD37R,0.0236X0.0591*%
G04:AMPARAMS|DCode=38|XSize=61.4mil|YSize=15.7mil|CornerRadius=2mil|HoleSize=0mil|Usage=FLASHONLY|Rotation=270.000|XOffset=0mil|YOffset=0mil|HoleType=Round|Shape=RoundedRectangle|*
%AMROUNDEDRECTD38*
21,1,0.0614,0.0118,0,0,270.0*
21,1,0.0575,0.0157,0,0,270.0*
1,1,0.0039,-0.0059,-0.0287*
1,1,0.0039,-0.0059,0.0287*
1,1,0.0039,0.0059,0.0287*
1,1,0.0039,0.0059,-0.0287*
%
%ADD38ROUNDEDRECTD38*%
%ADD39R,0.1260X0.0906*%
%ADD40R,0.0276X0.0512*%
%ADD41R,0.1299X0.0591*%
%ADD42R,0.0472X0.0551*%
D22*
X032611Y03719D02*
D03*
Y03619D02*
D03*
X031732Y03719D02*
D03*
Y03619D02*
D03*
X02969Y045656D02*
D03*
Y046656D02*
D03*
X028811Y045656D02*
D03*
Y046656D02*
D03*
X02548Y04496D02*
D03*
Y04396D02*
D03*
Y043181D02*
D03*
Y042181D02*
D03*
X0223Y037086D02*
D03*
Y036086D02*
D03*
Y03882D02*
D03*
Y03982D02*
D03*
X01889Y03852D02*
D03*
Y03752D02*
D03*
X01888Y034231D02*
D03*
Y035231D02*
D03*
D23*
X03252Y03535D02*
D03*
X03162D02*
D03*
X03162Y03453D02*
D03*
X03252D02*
D03*
X030595Y040565D02*
D03*
X029695D02*
D03*
X02646D02*
D03*
X02736D02*
D03*
X023Y03489D02*
D03*
X0221D02*
D03*
X017205Y03851D02*
D03*
X018105D02*
D03*
X01576Y03852D02*
D03*
X01486D02*
D03*
X018115Y033376D02*
D03*
X019015D02*
D03*
X017464Y033386D02*
D03*
X016564D02*
D03*
D24*
X028965Y03971D02*
D03*
Y04061D02*
D03*
X028145Y03971D02*
D03*
Y04061D02*
D03*
X02399Y04158D02*
D03*
Y04068D02*
D03*
X02242Y04339D02*
D03*
Y04249D02*
D03*
Y0418D02*
D03*
Y0409D02*
D03*
X01925Y03966D02*
D03*
Y04056D02*
D03*
X01843Y04056D02*
D03*
Y03966D02*
D03*
X01888Y03685D02*
D03*
Y03595D02*
D03*
X03312Y04472D02*
D03*
Y04562D02*
D03*
D25*
X02972Y03974D02*
D03*
X03062D02*
D03*
X02739D02*
D03*
X02649D02*
D03*
X02458Y03485D02*
D03*
X02368D02*
D03*
X01719Y0377D02*
D03*
X01809D02*
D03*
X015775D02*
D03*
X014875D02*
D03*
D26*
X027048Y03843D02*
D03*
X027363D02*
D03*
X027678D02*
D03*
X027993D02*
D03*
X028307D02*
D03*
X028622D02*
D03*
X028937D02*
D03*
X029252D02*
D03*
Y035045D02*
D03*
X028937D02*
D03*
X028622D02*
D03*
X028307D02*
D03*
X027993D02*
D03*
X027678D02*
D03*
X027363D02*
D03*
X027048D02*
D03*
D27*
X029843Y03784D02*
D03*
Y037525D02*
D03*
Y03721D02*
D03*
Y036895D02*
D03*
Y03658D02*
D03*
Y036265D02*
D03*
Y03595D02*
D03*
Y035635D02*
D03*
X026457D02*
D03*
Y03595D02*
D03*
Y036265D02*
D03*
Y03658D02*
D03*
Y036895D02*
D03*
Y03721D02*
D03*
Y037525D02*
D03*
Y03784D02*
D03*
D28*
X03195Y046676D02*
D03*
Y044905D02*
D03*
D29*
X03046Y044337D02*
D03*
X02996D02*
D03*
X02946D02*
D03*
X02896D02*
D03*
X02846D02*
D03*
X02796D02*
D03*
X02746D02*
D03*
X02696D02*
D03*
X03046Y04209D02*
D03*
X02996D02*
D03*
X02946D02*
D03*
X02896D02*
D03*
X02846D02*
D03*
X02796D02*
D03*
X02746D02*
D03*
X02696D02*
D03*
D30*
X02634Y0465D02*
D03*
X02788D02*
D03*
D31*
X02399Y044988D02*
D03*
Y042232D02*
D03*
D32*
X022435Y04499D02*
D03*
Y04409D02*
D03*
D33*
X01498Y04377D02*
D03*
Y04235D02*
D03*
Y03993D02*
D03*
Y04135D02*
D03*
D34*
X01629Y04274D02*
D03*
X01824D02*
D03*
D35*
X016139Y04007D02*
D03*
X017321Y039696D02*
D03*
Y04007D02*
D03*
Y040444D02*
D03*
X016139D02*
D03*
Y039696D02*
D03*
D36*
X0205Y041452D02*
D03*
Y039708D02*
D03*
D37*
X020219Y038481D02*
D03*
X019845Y037299D02*
D03*
X020219D02*
D03*
X020593D02*
D03*
Y038481D02*
D03*
X019845D02*
D03*
D38*
X020626Y036024D02*
D03*
X02037D02*
D03*
X020114D02*
D03*
X019858D02*
D03*
Y033756D02*
D03*
X020114D02*
D03*
X02037D02*
D03*
X020626D02*
D03*
D39*
X01718Y03556D02*
D03*
D40*
X01693Y036653D02*
D03*
X01643D02*
D03*
X01743D02*
D03*
X01793D02*
D03*
X01693Y034487D02*
D03*
X01643D02*
D03*
X01743D02*
D03*
X01793D02*
D03*
D41*
X01529Y03665D02*
D03*
X01529Y034864D02*
D03*
D42*
X01585Y03341D02*
D03*
X01485D02*
D03*
M02*
