M48
;Layer_Color=9474304
;FILE_FORMAT=2:4
INCH,LZ
;TYPE=PLATED
T1F00S00C0.0157
T2F00S00C0.0236
T3F00S00C0.0315
T4F00S00C0.0354
T5F00S00C0.0600
T6F00S00C0.1181
;TYPE=NON_PLATED
T7F00S00C0.0394
%
T01
X01388Y03284
X01481Y03387
X0146Y03665
X01165Y03642
X01498Y04184
X01792Y04007
X01938Y03852
X02021Y03681
X020593Y036787
X020114Y03548
X019858Y034272
X01793Y03476
X01828Y033376
X01818Y036403
X02211Y03537
X027363Y035473
X02701Y036265
X02702Y03691
X02715Y03754
X02692Y03784
X027993Y03889
X028145Y04038
X02897Y04035
X030595Y041
Y038655
X0309Y0357
X02983Y03428
Y03316
X02994Y04356
X02946Y04358
X02923Y045656
X02846Y045
X02797Y04499
X02472Y044988
X02453Y04158
X0232Y04127
X02245Y04118
X03312Y04442
X03223Y03452
X03135
X0313Y03534
T02
X031496Y029921
X032283
X033071
X033858
X034252Y030709
X033465
X032677
X03189
X036614
X037402
X038189
X037795Y029921
X037008
X030709
X029921
X029134
X028346
X027559
X026772
X025984
X025197
X024409
X023622
X022835
X022047
X02126
X020472
X019685
X018898
X01811
X017323
X016535
X015748
X016142Y030709
X016929
X017717
X018504
X019291
X020079
X020866
X021654
X022441
X023228
X024016
X024803
X025591
X026378
X027165
X027953
X02874
X029528
X030315
X031102
X015354
X014567
X01378
X012992
X013386Y029921
X014173
X014961
X012598
Y031496
X011811
X012205Y032283
Y046457
X012992
X01378
X014567
X015354
X016142
X016929
X017717
X018504
X019291
X020079
X020866
X021654
X022441
X023228
X024016
X024409Y033071
X025197
X025984
X026378Y032283
X025591
X024803
X024016
X023228
X022441
X021654
X020866
X020079
X019291
X018504
X017717
X01811Y031496
X018898
X019685
X020472
X02126
X022047
X022835
X023622
X024409
X025197
X025984
X026772
X027559
X023622Y033071
X022835
X022047
X02126
X017323Y031496
X03189Y048032
X032677
X033465
X031102
X030315
X029528
X02874
X027953
X027165
X026378
X025591
X024803
X024016
X023228
X022441
X021654
X020866
X020079
X019291
X018504
X017717
X016929
X016142
X016535Y047244
X017323
X01811
X018898
X019685
X020472
X02126
X022047
X022835
X023622
X024409
X015748
X014961
X014173
X013386
X012598
X012992Y048032
X01378
X014567
X015354
T03
X02392Y036925
Y038894
T04
X03231Y03866
X03331
Y03966
Y04066
X03231
Y03966
T05
X03919Y030865
X01291Y03408
Y03608
Y0384
Y0404
X01289Y042756
Y044756
X03919Y04432
Y04282
Y04065
Y03915
Y03765
Y03615
Y033865
Y032365
Y04582
Y04732
T06
X03533Y03021
X01156
X03533Y04787
X01156
T07
X03521Y03296
Y03396
Y03496
Y03596
Y03696
Y03796
Y04126
Y04226
Y04326
Y04426
M30
