G04*
G04 #@! TF.GenerationSoftware,Altium Limited,Altium Designer,18.1.6 (161)*
G04*
G04 Layer_Color=32896*
%FSTAX24Y24*%
%MOIN*%
G70*
G01*
G75*
%ADD14C,0.0100*%
%ADD15C,0.0079*%
%ADD16C,0.0050*%
%ADD74C,0.0118*%
D14*
X04008Y03318D02*
X04138D01*
X04007Y03147D02*
X04138D01*
X04005Y02987D02*
X04006D01*
Y03487D01*
X04138Y02987D02*
Y03487D01*
X03737Y02987D02*
X04138D01*
X03737D02*
Y03487D01*
X04138D01*
X03739Y04165D02*
X041396D01*
X03739Y03516D02*
Y04165D01*
Y03516D02*
X041396D01*
Y04165D01*
X04007Y03516D02*
Y04165D01*
Y03991D02*
X04138D01*
X04007Y03844D02*
X041396D01*
X04007Y03679D02*
X041396D01*
Y03678D02*
Y03679D01*
X041406Y04344D02*
Y04345D01*
X04008D02*
X041406D01*
X04008Y0451D02*
X041406D01*
X04008Y04657D02*
X04139D01*
X04008Y04182D02*
Y04831D01*
X041406Y04182D02*
Y04831D01*
X0374Y04182D02*
X041406D01*
X0374D02*
Y04831D01*
X041406D01*
X01049Y03705D02*
X01389D01*
X01049Y03305D02*
Y03705D01*
Y03305D02*
X01389D01*
Y03705D01*
X01215Y03305D02*
Y03705D01*
X01051Y03943D02*
X01216D01*
X01215Y03739D02*
Y04139D01*
X01389Y03739D02*
Y04139D01*
X01049Y03739D02*
X01389D01*
X01049D02*
Y04139D01*
X01389D01*
X01047Y04375D02*
Y043765D01*
X01215Y04183D02*
Y04375D01*
Y04183D02*
Y04574D01*
X01387D01*
Y04179D02*
Y04574D01*
X01047Y04179D02*
X01387D01*
X01047D02*
Y04574D01*
X01387D01*
X011612Y03449D02*
Y034265D01*
X01141Y034242D01*
X011432Y034265D01*
X011455Y034332D01*
Y0344D01*
X011432Y034467D01*
X011387Y034512D01*
X01132Y034535D01*
X011275D01*
X011207Y034512D01*
X011162Y034467D01*
X01114Y0344D01*
Y034332D01*
X011162Y034265D01*
X011185Y034242D01*
X01123Y03422D01*
X011612Y034641D02*
X01114Y034821D01*
X011612Y035D02*
X01114Y034821D01*
X011612Y035432D02*
X01114D01*
X011612D02*
Y03559D01*
X01159Y035657D01*
X011545Y035702D01*
X0115Y035725D01*
X011432Y035747D01*
X01132D01*
X011252Y035725D01*
X011207Y035702D01*
X011162Y035657D01*
X01114Y03559D01*
Y035432D01*
X0115Y03619D02*
X011545Y036168D01*
X01159Y036123D01*
X011612Y036078D01*
Y035988D01*
X01159Y035943D01*
X011545Y035898D01*
X0115Y035875D01*
X011432Y035853D01*
X01132D01*
X011252Y035875D01*
X011207Y035898D01*
X011162Y035943D01*
X01114Y035988D01*
Y036078D01*
X011162Y036123D01*
X011207Y036168D01*
X011252Y03619D01*
X0162Y0351D02*
X016133Y035212D01*
X0162Y035302D01*
X016155Y035392D01*
X0162Y0331D02*
X016133Y033212D01*
X0162Y033302D01*
X016155Y033392D01*
X015408Y03505D02*
Y035455D01*
Y033045D02*
Y03345D01*
X01561Y033248D02*
X015205D01*
X011632Y03759D02*
X01116D01*
X011632D02*
Y037792D01*
X01161Y03786D01*
X011587Y037882D01*
X011542Y037905D01*
X011497D01*
X011452Y037882D01*
X01143Y03786D01*
X011407Y037792D01*
Y03759D02*
Y037792D01*
X011385Y03786D01*
X011362Y037882D01*
X011317Y037905D01*
X01125D01*
X011205Y037882D01*
X011182Y03786D01*
X01116Y037792D01*
Y03759D01*
Y03837D02*
X011632Y038191D01*
X01116Y038011D01*
X011317Y038078D02*
Y038303D01*
X011632Y038638D02*
X01116D01*
X011632Y038481D02*
Y038796D01*
X011565Y039054D02*
X01116D01*
X011362Y038852D02*
Y039257D01*
X011632Y03959D02*
X01116D01*
X011632D02*
Y039792D01*
X01161Y03986D01*
X011587Y039882D01*
X011542Y039905D01*
X011497D01*
X011452Y039882D01*
X01143Y03986D01*
X011407Y039792D01*
Y03959D02*
Y039792D01*
X011385Y03986D01*
X011362Y039882D01*
X011317Y039905D01*
X01125D01*
X011205Y039882D01*
X011182Y03986D01*
X01116Y039792D01*
Y03959D01*
Y04037D02*
X011632Y040191D01*
X01116Y040011D01*
X011317Y040078D02*
Y040303D01*
X011632Y040638D02*
X01116D01*
X011632Y040481D02*
Y040796D01*
X011362Y040852D02*
Y041257D01*
X011516Y042784D02*
X011572Y042727D01*
X0116Y042643D01*
Y042531D01*
X011572Y042446D01*
X011516Y04239D01*
X01146D01*
X011404Y042418D01*
X011375Y042446D01*
X011347Y042502D01*
X011291Y042671D01*
X011263Y042727D01*
X011235Y042755D01*
X011179Y042784D01*
X011094D01*
X011038Y042727D01*
X01101Y042643D01*
Y042531D01*
X011038Y042446D01*
X011094Y04239D01*
X0116Y042916D02*
X01101Y043056D01*
X0116Y043197D02*
X01101Y043056D01*
X0116Y043197D02*
X01101Y043337D01*
X0116Y043478D02*
X01101Y043337D01*
X0116Y043596D02*
X01101D01*
X0116Y043917D02*
X01101D01*
X0116Y04372D02*
Y044113D01*
X01146Y044605D02*
X011516Y044577D01*
X011572Y044521D01*
X0116Y044465D01*
Y044352D01*
X011572Y044296D01*
X011516Y04424D01*
X01146Y044212D01*
X011375Y044184D01*
X011235D01*
X011151Y044212D01*
X011094Y04424D01*
X011038Y044296D01*
X01101Y044352D01*
Y044465D01*
X011038Y044521D01*
X011094Y044577D01*
X011151Y044605D01*
X0116Y044771D02*
X01101D01*
X0116Y045165D02*
X01101D01*
X011319Y044771D02*
Y045165D01*
X01754Y03692D02*
Y03632D01*
X01724D01*
X01714Y03642D01*
Y03682D01*
X01724Y03692D01*
X01754D01*
X01694D02*
Y03632D01*
X01664D01*
X01654Y03642D01*
Y03652D01*
X01664Y03662D01*
X01694D01*
X01664D01*
X01654Y03672D01*
Y03682D01*
X01664Y03692D01*
X01694D01*
X01634Y03632D02*
X01614D01*
X01624D01*
Y03692D01*
X01634Y03682D01*
D15*
X040638Y034196D02*
Y034384D01*
X040806Y034403D01*
X040788Y034384D01*
X040769Y034328D01*
Y034271D01*
X040788Y034215D01*
X040825Y034178D01*
X040881Y034159D01*
X040919D01*
X040975Y034178D01*
X041013Y034215D01*
X041031Y034271D01*
Y034328D01*
X041013Y034384D01*
X040994Y034403D01*
X040956Y034421D01*
X040638Y034071D02*
X041031Y033921D01*
X040638Y033771D02*
X041031Y033921D01*
X040678Y040976D02*
Y041164D01*
X040846Y041183D01*
X040828Y041164D01*
X040809Y041108D01*
Y041051D01*
X040828Y040995D01*
X040865Y040958D01*
X040921Y040939D01*
X040959D01*
X041015Y040958D01*
X041053Y040995D01*
X041071Y041051D01*
Y041108D01*
X041053Y041164D01*
X041034Y041183D01*
X040996Y041201D01*
X040678Y040851D02*
X041071Y040701D01*
X040678Y040551D02*
X041071Y040701D01*
X040771Y03783D02*
X040734Y037849D01*
X040696Y037886D01*
X040678Y037924D01*
Y037999D01*
X040696Y038036D01*
X040734Y038074D01*
X040771Y038093D01*
X040828Y038111D01*
X040921D01*
X040978Y038093D01*
X041015Y038074D01*
X041053Y038036D01*
X041071Y037999D01*
Y037924D01*
X041053Y037886D01*
X041015Y037849D01*
X040978Y03783D01*
X040678Y03772D02*
X041071D01*
Y037495D01*
X040678Y037451D02*
X041071D01*
X040678Y037189D02*
X04094Y037451D01*
X040846Y037358D02*
X041071Y037189D01*
X04056Y046261D02*
X041071D01*
X04056D02*
Y046091D01*
X040584Y046018D01*
X040633Y045969D01*
X040681Y045944D01*
X040754Y04592D01*
X040876D01*
X040949Y045944D01*
X040998Y045969D01*
X041047Y046018D01*
X041071Y046091D01*
Y046261D01*
X040633Y045586D02*
X041071D01*
X040852Y045806D02*
Y045367D01*
X040638Y030939D02*
X040656Y030995D01*
X040713Y031033D01*
X040806Y031051D01*
X040863D01*
X040956Y031033D01*
X041013Y030995D01*
X041031Y030939D01*
Y030901D01*
X041013Y030845D01*
X040956Y030808D01*
X040863Y030789D01*
X040806D01*
X040713Y030808D01*
X040656Y030845D01*
X040638Y030901D01*
Y030939D01*
Y030701D02*
X041031Y030551D01*
X040638Y030401D02*
X041031Y030551D01*
X040638Y032861D02*
X041031D01*
X040638D02*
Y03273D01*
X040656Y032674D01*
X040694Y032636D01*
X040731Y032618D01*
X040788Y032599D01*
X040881D01*
X040938Y032618D01*
X040975Y032636D01*
X041013Y032674D01*
X041031Y03273D01*
Y032861D01*
Y032211D02*
X040638Y032361D01*
X041031Y032511D01*
X0409Y032455D02*
Y032267D01*
X040638Y031988D02*
X041031D01*
X040638Y032119D02*
Y031857D01*
X04056Y042835D02*
X040584Y042908D01*
X040657Y042957D01*
X040779Y042981D01*
X040852D01*
X040974Y042957D01*
X041047Y042908D01*
X041071Y042835D01*
Y042786D01*
X041047Y042713D01*
X040974Y042664D01*
X040852Y04264D01*
X040779D01*
X040657Y042664D01*
X040584Y042713D01*
X04056Y042786D01*
Y042835D01*
Y042526D02*
X041071Y042331D01*
X04056Y042136D02*
X041071Y042331D01*
X040678Y039601D02*
X041071D01*
X040678D02*
Y03947D01*
X040696Y039414D01*
X040734Y039376D01*
X040771Y039358D01*
X040828Y039339D01*
X040921D01*
X040978Y039358D01*
X041015Y039376D01*
X041053Y039414D01*
X041071Y03947D01*
Y039601D01*
Y038951D02*
X040678Y039101D01*
X041071Y039251D01*
X04094Y039195D02*
Y039007D01*
X040678Y038728D02*
X041071D01*
X040678Y038859D02*
Y038597D01*
Y036209D02*
X040696Y036265D01*
X040753Y036303D01*
X040846Y036321D01*
X040903D01*
X040996Y036303D01*
X041053Y036265D01*
X041071Y036209D01*
Y036171D01*
X041053Y036115D01*
X040996Y036078D01*
X040903Y036059D01*
X040846D01*
X040753Y036078D01*
X040696Y036115D01*
X040678Y036171D01*
Y036209D01*
Y035971D02*
X041071Y035821D01*
X040678Y035671D02*
X041071Y035821D01*
X04056Y047569D02*
Y047813D01*
X040779Y047837D01*
X040754Y047813D01*
X04073Y047739D01*
Y047666D01*
X040754Y047593D01*
X040803Y047544D01*
X040876Y04752D01*
X040925D01*
X040998Y047544D01*
X041047Y047593D01*
X041071Y047666D01*
Y047739D01*
X041047Y047813D01*
X041023Y047837D01*
X040974Y047861D01*
X04056Y047406D02*
X041071Y047211D01*
X04056Y047016D02*
X041071Y047211D01*
X04056Y044691D02*
X041071D01*
X04056D02*
Y044521D01*
X040584Y044448D01*
X040633Y044399D01*
X040681Y044374D01*
X040754Y04435D01*
X040876D01*
X040949Y044374D01*
X040998Y044399D01*
X041047Y044448D01*
X041071Y044521D01*
Y044691D01*
X040852Y044236D02*
Y043797D01*
D16*
X01451Y036D02*
X01701D01*
Y0325D02*
Y036D01*
X01451Y0325D02*
X01701D01*
X01451D02*
Y036D01*
D74*
X036175Y040732D02*
X036962D01*
Y040282D01*
X036175Y039971D02*
X036212Y040046D01*
X036287Y040121D01*
X036362Y040158D01*
X036475Y040196D01*
X036662D01*
X036774Y040158D01*
X036849Y040121D01*
X036924Y040046D01*
X036962Y039971D01*
Y039821D01*
X036924Y039746D01*
X036849Y039671D01*
X036774Y039634D01*
X036662Y039596D01*
X036475D01*
X036362Y039634D01*
X036287Y039671D01*
X036212Y039746D01*
X036175Y039821D01*
Y039971D01*
X036962Y038813D02*
X036175Y039112D01*
X036962Y039412D01*
X036699Y0393D02*
Y038925D01*
X036175Y038629D02*
X036962D01*
X036175D02*
Y038366D01*
X036212Y038254D01*
X036287Y038179D01*
X036362Y038142D01*
X036475Y038104D01*
X036662D01*
X036774Y038142D01*
X036849Y038179D01*
X036924Y038254D01*
X036962Y038366D01*
Y038629D01*
X036362Y037366D02*
X036287Y037403D01*
X036212Y037478D01*
X036175Y037553D01*
Y037703D01*
X036212Y037778D01*
X036287Y037853D01*
X036362Y03789D01*
X036475Y037928D01*
X036662D01*
X036774Y03789D01*
X036849Y037853D01*
X036924Y037778D01*
X036962Y037703D01*
Y037553D01*
X036924Y037478D01*
X036849Y037403D01*
X036774Y037366D01*
X036175Y036657D02*
Y037144D01*
X036962D01*
Y036657D01*
X03655Y037144D02*
Y036844D01*
X036175Y036526D02*
X036962D01*
Y036076D01*
X036175Y03599D02*
X036962D01*
Y03554D01*
X036195Y033619D02*
X036982D01*
X036195Y033882D02*
Y033357D01*
Y032776D02*
Y033263D01*
X036982D01*
Y032776D01*
X03657Y033263D02*
Y032963D01*
X036195Y032645D02*
X036982D01*
X036195D02*
X036982Y032345D01*
X036195Y032045D02*
X036982Y032345D01*
X036195Y032045D02*
X036982D01*
X036607Y03182D02*
Y031483D01*
X03657Y03137D01*
X036532Y031333D01*
X036457Y031295D01*
X036345D01*
X03627Y031333D01*
X036232Y03137D01*
X036195Y031483D01*
Y03182D01*
X036982D01*
X036175Y045962D02*
X036737D01*
X036849Y045924D01*
X036924Y045849D01*
X036962Y045737D01*
Y045662D01*
X036924Y04555D01*
X036849Y045475D01*
X036737Y045437D01*
X036175D01*
X036287Y044695D02*
X036212Y04477D01*
X036175Y044882D01*
Y045032D01*
X036212Y045145D01*
X036287Y04522D01*
X036362D01*
X036437Y045182D01*
X036475Y045145D01*
X036512Y04507D01*
X036587Y044845D01*
X036625Y04477D01*
X036662Y044732D01*
X036737Y044695D01*
X036849D01*
X036924Y04477D01*
X036962Y044882D01*
Y045032D01*
X036924Y045145D01*
X036849Y04522D01*
X036175Y044519D02*
X036962D01*
X036175D02*
Y044181D01*
X036212Y044069D01*
X03625Y044031D01*
X036325Y043994D01*
X0364D01*
X036475Y044031D01*
X036512Y044069D01*
X03655Y044181D01*
Y044519D02*
Y044181D01*
X036587Y044069D01*
X036625Y044031D01*
X036699Y043994D01*
X036812D01*
X036887Y044031D01*
X036924Y044069D01*
X036962Y044181D01*
Y044519D01*
M02*
