G04*
G04 #@! TF.GenerationSoftware,Altium Limited,Altium Designer,18.1.6 (161)*
G04*
G04 Layer_Physical_Order=2*
G04 Layer_Color=16711680*
%FSTAX24Y24*%
%MOIN*%
G70*
G01*
G75*
%ADD73C,0.0236*%
%ADD74C,0.0118*%
%ADD75C,0.0197*%
%ADD77C,0.0157*%
%ADD79O,0.1200X0.1100*%
%ADD80R,0.0591X0.0591*%
%ADD81C,0.0591*%
%ADD82C,0.0630*%
%ADD83R,0.0700X0.0700*%
%ADD84C,0.0700*%
%ADD85C,0.0315*%
%ADD86C,0.0236*%
%ADD87C,0.1378*%
%ADD88R,0.1181X0.0591*%
G36*
X04155Y04846D02*
Y029572D01*
X041545Y029566D01*
X041499Y02953D01*
X035977D01*
X035965Y029563D01*
X035963Y02958D01*
X036073Y029714D01*
X036155Y029868D01*
X036206Y030036D01*
X036223Y03021D01*
X036206Y030384D01*
X036155Y030552D01*
X036073Y030706D01*
X035962Y030842D01*
X035826Y030953D01*
X035672Y031035D01*
X035504Y031086D01*
X03533Y031103D01*
X035156Y031086D01*
X034988Y031035D01*
X034834Y030953D01*
X034698Y030842D01*
X034587Y030706D01*
X034505Y030552D01*
X034454Y030384D01*
X034437Y03021D01*
X034454Y030036D01*
X034505Y029868D01*
X034587Y029714D01*
X034697Y02958D01*
X034695Y029563D01*
X034683Y02953D01*
X012207D01*
X012195Y029563D01*
X012193Y02958D01*
X012303Y029714D01*
X012385Y029868D01*
X012436Y030036D01*
X012453Y03021D01*
X012436Y030384D01*
X012385Y030552D01*
X012303Y030706D01*
X012192Y030842D01*
X012056Y030953D01*
X011902Y031035D01*
X011734Y031086D01*
X01156Y031103D01*
X011386Y031086D01*
X011218Y031035D01*
X011064Y030953D01*
X010928Y030842D01*
X010817Y030706D01*
X010737Y030557D01*
X010736Y030557D01*
X010687Y030582D01*
Y047498D01*
X010736Y047523D01*
X010737Y047523D01*
X010817Y047374D01*
X010928Y047238D01*
X011064Y047127D01*
X011218Y047045D01*
X011386Y046994D01*
X01156Y046977D01*
X011734Y046994D01*
X011902Y047045D01*
X012056Y047127D01*
X012192Y047238D01*
X012303Y047374D01*
X012385Y047528D01*
X012436Y047696D01*
X012453Y04787D01*
X012436Y048044D01*
X012385Y048212D01*
X012303Y048366D01*
X012192Y048502D01*
X012114Y048566D01*
X012131Y048613D01*
X034759D01*
X034776Y048566D01*
X034698Y048502D01*
X034587Y048366D01*
X034505Y048212D01*
X034454Y048044D01*
X034437Y04787D01*
X034454Y047696D01*
X034505Y047528D01*
X034587Y047374D01*
X034698Y047238D01*
X034834Y047127D01*
X034988Y047045D01*
X035156Y046994D01*
X03533Y046977D01*
X035504Y046994D01*
X035672Y047045D01*
X035826Y047127D01*
X035962Y047238D01*
X036073Y047374D01*
X036155Y047528D01*
X036206Y047696D01*
X036223Y04787D01*
X036206Y048044D01*
X036155Y048212D01*
X036073Y048366D01*
X035962Y048502D01*
X035884Y048566D01*
X035901Y048613D01*
X041397D01*
X04155Y04846D01*
D02*
G37*
%LPC*%
G36*
X03924Y048074D02*
X03914D01*
X038993Y048059D01*
X038852Y048016D01*
X038721Y047947D01*
X038607Y047853D01*
X038513Y047739D01*
X038444Y047608D01*
X038401Y047467D01*
X038386Y04732D01*
X038401Y047173D01*
X038444Y047032D01*
X038513Y046901D01*
X038607Y046787D01*
X038721Y046693D01*
X038852Y046624D01*
X038943Y046596D01*
Y046544D01*
X038852Y046516D01*
X038721Y046447D01*
X038607Y046353D01*
X038513Y046239D01*
X038444Y046108D01*
X038442Y046103D01*
X038433Y046103D01*
X038427Y046101D01*
X03024D01*
X03024Y046101D01*
X030167Y046092D01*
X0301Y046064D01*
X030041Y046019D01*
X029564Y045541D01*
X02858D01*
X02858Y045541D01*
X028507Y045532D01*
X028439Y045503D01*
X028381Y045459D01*
X028381Y045459D01*
X028261Y045339D01*
X028217Y045281D01*
X028207Y045259D01*
X028159Y045246D01*
X02813Y045268D01*
X028053Y0453D01*
X02797Y045311D01*
X027887Y0453D01*
X02781Y045268D01*
X027743Y045217D01*
X027692Y04515D01*
X02766Y045073D01*
X027649Y04499D01*
X02766Y044907D01*
X027686Y044843D01*
X027688Y04482D01*
X027689Y044816D01*
Y0447D01*
X027689Y0447D01*
X027698Y044627D01*
X027727Y044559D01*
X027771Y044501D01*
X027901Y044371D01*
X027901Y044371D01*
X027959Y044327D01*
X028027Y044298D01*
X0281Y044289D01*
X0281Y044289D01*
X028684D01*
X028709Y044242D01*
X027237Y042771D01*
X02305D01*
Y042773D01*
X02287Y042755D01*
X022697Y042702D01*
X022537Y042617D01*
X022398Y042502D01*
X022283Y042363D01*
X022198Y042203D01*
X022145Y04203D01*
X022127Y04185D01*
X022129D01*
Y041501D01*
X017063D01*
X015581Y042983D01*
X015514Y043034D01*
X015437Y043066D01*
X015354Y043077D01*
X013722D01*
X013717Y043078D01*
X01367Y043079D01*
X013634Y043082D01*
X013615Y043084D01*
X013612Y043092D01*
X013608Y043098D01*
X013567Y043175D01*
X013473Y043289D01*
X013359Y043383D01*
X013228Y043452D01*
X013087Y043495D01*
X01294Y04351D01*
X01284D01*
X012693Y043495D01*
X012552Y043452D01*
X012421Y043383D01*
X012307Y043289D01*
X012213Y043175D01*
X012144Y043044D01*
X012101Y042903D01*
X012086Y042756D01*
X012101Y042609D01*
X012144Y042468D01*
X012213Y042337D01*
X012307Y042223D01*
X012421Y042129D01*
X012552Y04206D01*
X012693Y042017D01*
X01284Y042002D01*
X01294D01*
X013087Y042017D01*
X013228Y04206D01*
X013359Y042129D01*
X013473Y042223D01*
X013567Y042337D01*
X013608Y042414D01*
X013612Y04242D01*
X013615Y042428D01*
X013634Y04243D01*
X01367Y042433D01*
X013717Y042434D01*
X013722Y042435D01*
X015221D01*
X016703Y040953D01*
X016703Y040953D01*
X01677Y040902D01*
X016847Y04087D01*
X01693Y040859D01*
X01693Y040859D01*
X02161D01*
X021629Y040813D01*
X021203Y040387D01*
X021152Y04032D01*
X02112Y040243D01*
X021109Y04016D01*
Y038521D01*
X021059Y0385D01*
X020855Y038705D01*
X020801Y038746D01*
X020738Y038772D01*
X02067Y038781D01*
X019728D01*
X01972Y038783D01*
X019679Y038783D01*
X01958Y038787D01*
X019552Y038789D01*
X01954Y038798D01*
X019463Y03883D01*
X01938Y038841D01*
X016493D01*
X014707Y040627D01*
X01464Y040678D01*
X014563Y04071D01*
X01448Y040721D01*
X013742D01*
X013737Y040722D01*
X01369Y040723D01*
X013654Y040726D01*
X013635Y040728D01*
X013632Y040736D01*
X013628Y040742D01*
X013587Y040819D01*
X013493Y040933D01*
X013379Y041027D01*
X013248Y041096D01*
X013107Y041139D01*
X01296Y041154D01*
X01286D01*
X012713Y041139D01*
X012572Y041096D01*
X012441Y041027D01*
X012327Y040933D01*
X012233Y040819D01*
X012164Y040688D01*
X012121Y040547D01*
X012106Y0404D01*
X012121Y040253D01*
X012164Y040112D01*
X012233Y039981D01*
X012327Y039867D01*
X012441Y039773D01*
X012572Y039704D01*
X012713Y039661D01*
X01286Y039646D01*
X01296D01*
X013107Y039661D01*
X013248Y039704D01*
X013379Y039773D01*
X013493Y039867D01*
X013587Y039981D01*
X013628Y040058D01*
X013632Y040064D01*
X013635Y040072D01*
X013654Y040074D01*
X01369Y040077D01*
X013737Y040078D01*
X013742Y040079D01*
X014347D01*
X016133Y038293D01*
X016133Y038293D01*
X0162Y038242D01*
X016277Y03821D01*
X01636Y038199D01*
X01938D01*
X019463Y03821D01*
X01954Y038242D01*
X019548Y038248D01*
X019682Y038257D01*
X01972Y038257D01*
X019728Y038259D01*
X020562D01*
X020639Y038182D01*
Y03714D01*
X020601Y037107D01*
X020593Y037108D01*
X02051Y037097D01*
X020433Y037065D01*
X020416Y037053D01*
X02037Y037088D01*
X020293Y03712D01*
X02021Y037131D01*
X020127Y03712D01*
X02005Y037088D01*
X020002Y037051D01*
X01897D01*
X018897Y037042D01*
X018829Y037013D01*
X018771Y036969D01*
X018771Y036969D01*
X01843Y036628D01*
X018407Y03663D01*
X018407Y03663D01*
X01727Y037767D01*
X017203Y037818D01*
X017126Y03785D01*
X017043Y037861D01*
X015163D01*
X014397Y038627D01*
X01433Y038678D01*
X014253Y03871D01*
X01417Y038721D01*
X013742D01*
X013737Y038722D01*
X01369Y038723D01*
X013654Y038726D01*
X013635Y038728D01*
X013632Y038736D01*
X013628Y038742D01*
X013587Y038819D01*
X013493Y038933D01*
X013379Y039027D01*
X013248Y039096D01*
X013107Y039139D01*
X01296Y039154D01*
X01286D01*
X012713Y039139D01*
X012572Y039096D01*
X012441Y039027D01*
X012327Y038933D01*
X012233Y038819D01*
X012164Y038688D01*
X012121Y038547D01*
X012106Y0384D01*
X012121Y038253D01*
X012164Y038112D01*
X012233Y037981D01*
X012327Y037867D01*
X012441Y037773D01*
X012572Y037704D01*
X012713Y037661D01*
X01286Y037646D01*
X01296D01*
X013107Y037661D01*
X013248Y037704D01*
X013379Y037773D01*
X013493Y037867D01*
X013587Y037981D01*
X013628Y038058D01*
X013632Y038064D01*
X013635Y038072D01*
X013654Y038074D01*
X01369Y038077D01*
X013737Y038078D01*
X013742Y038079D01*
X014037D01*
X014803Y037313D01*
X01487Y037262D01*
X014915Y037243D01*
X014947Y03723D01*
X01503Y037219D01*
X01503Y037219D01*
X01691D01*
X017112Y037017D01*
X017093Y036971D01*
X0146D01*
X014517Y03696D01*
X01444Y036928D01*
X014373Y036877D01*
X014322Y03681D01*
X01429Y036733D01*
X014279Y03665D01*
X01429Y036567D01*
X014322Y03649D01*
X014352Y036451D01*
X014327Y036401D01*
X013742D01*
X013737Y036402D01*
X01369Y036403D01*
X013654Y036406D01*
X013635Y036408D01*
X013632Y036416D01*
X013628Y036422D01*
X013587Y036499D01*
X013493Y036613D01*
X013379Y036707D01*
X013248Y036776D01*
X013107Y036819D01*
X01296Y036834D01*
X01286D01*
X012713Y036819D01*
X012572Y036776D01*
X012441Y036707D01*
X012327Y036613D01*
X012233Y036499D01*
X012164Y036368D01*
X012121Y036227D01*
X012106Y03608D01*
X012121Y035933D01*
X012164Y035792D01*
X012233Y035661D01*
X012327Y035547D01*
X012441Y035453D01*
X012572Y035384D01*
X012713Y035341D01*
X01286Y035326D01*
X01296D01*
X013107Y035341D01*
X013248Y035384D01*
X013379Y035453D01*
X013493Y035547D01*
X013587Y035661D01*
X013628Y035738D01*
X013632Y035744D01*
X013635Y035752D01*
X013654Y035754D01*
X01369Y035757D01*
X013737Y035758D01*
X013742Y035759D01*
X016175D01*
X016219Y035745D01*
Y034755D01*
X01761D01*
X01762Y034677D01*
X017629Y034655D01*
Y034345D01*
X017455Y034171D01*
X014915D01*
X014893Y03418D01*
X01481Y034191D01*
X014727Y03418D01*
X01465Y034148D01*
X014583Y034097D01*
X014532Y03403D01*
X0145Y033953D01*
X014489Y03387D01*
X014499Y033795D01*
X014486Y033766D01*
X014472Y033745D01*
X013719D01*
Y033131D01*
X013719Y033128D01*
X013719Y033121D01*
Y033118D01*
X013653Y033067D01*
X013602Y033D01*
X01357Y032923D01*
X013559Y03284D01*
X01357Y032757D01*
X013602Y03268D01*
X013653Y032613D01*
X01372Y032562D01*
X013797Y03253D01*
X01388Y032519D01*
X013963Y03253D01*
X01404Y032562D01*
X014107Y032613D01*
X014158Y03268D01*
X014165Y032697D01*
X014167Y032699D01*
X014218Y032743D01*
X014233Y032755D01*
X014239D01*
X014246Y032754D01*
X014248Y032755D01*
X015301D01*
Y033569D01*
X016219D01*
Y032705D01*
X016687D01*
X016687Y032703D01*
X016688Y032664D01*
X016689Y032659D01*
Y032413D01*
X016477Y032201D01*
X013603D01*
X013231Y032573D01*
Y033289D01*
X013232Y033294D01*
X013233Y033339D01*
X013236Y033371D01*
X013237Y03338D01*
X013248Y033384D01*
X013379Y033453D01*
X013493Y033547D01*
X013587Y033661D01*
X013656Y033792D01*
X013699Y033933D01*
X013714Y03408D01*
X013699Y034227D01*
X013656Y034368D01*
X013587Y034499D01*
X013493Y034613D01*
X013379Y034707D01*
X013248Y034776D01*
X013107Y034819D01*
X01296Y034834D01*
X01286D01*
X012713Y034819D01*
X012572Y034776D01*
X012441Y034707D01*
X012327Y034613D01*
X012233Y034499D01*
X012164Y034368D01*
X012121Y034227D01*
X012106Y03408D01*
X012121Y033933D01*
X012164Y033792D01*
X012233Y033661D01*
X012327Y033547D01*
X012441Y033453D01*
X012572Y033384D01*
X012583Y03338D01*
X012584Y033371D01*
X012587Y033339D01*
X012588Y033294D01*
X012589Y033289D01*
Y03244D01*
X0126Y032357D01*
X012632Y03228D01*
X012683Y032213D01*
X013243Y031653D01*
X013243Y031653D01*
X01331Y031602D01*
X013387Y03157D01*
X01347Y031559D01*
X01347Y031559D01*
X01661D01*
X016693Y03157D01*
X01677Y031602D01*
X016837Y031653D01*
X017237Y032053D01*
X017237Y032053D01*
X017288Y03212D01*
X01732Y032197D01*
X017331Y03228D01*
Y032659D01*
X017332Y032664D01*
X017333Y032703D01*
X017333Y032705D01*
X017801D01*
Y033665D01*
X018143Y034007D01*
X018191Y034069D01*
X018221Y034142D01*
X018231Y03422D01*
Y034583D01*
X018239Y034589D01*
X018289Y034566D01*
Y033782D01*
X018199Y033693D01*
X018193Y033688D01*
X018185Y033681D01*
X01812Y033654D01*
X018053Y033603D01*
X018002Y033536D01*
X01797Y033459D01*
X017959Y033376D01*
X01797Y033293D01*
X018002Y033215D01*
X018053Y033149D01*
X01812Y033098D01*
X018197Y033066D01*
X01828Y033055D01*
X018363Y033066D01*
X01844Y033098D01*
X018507Y033149D01*
X018558Y033215D01*
X018584Y033279D01*
X0186Y033296D01*
X018602Y0333D01*
X018769Y033467D01*
X018769Y033467D01*
X018813Y033525D01*
X018842Y033593D01*
X018851Y033666D01*
X018851Y033666D01*
Y036254D01*
X019086Y036489D01*
X020021D01*
X020029Y036487D01*
X020036Y036489D01*
X020041D01*
X020047Y036488D01*
X020054Y036489D01*
X02017D01*
X02017Y036489D01*
X020191Y036492D01*
X02021Y036489D01*
X020282Y036499D01*
X020332Y036469D01*
Y036311D01*
X020272Y036251D01*
X01985D01*
X019782Y036242D01*
X019719Y036216D01*
X019665Y036175D01*
X019485Y035995D01*
X019444Y035941D01*
X019418Y035878D01*
X019409Y03581D01*
Y03521D01*
X019418Y035142D01*
X019444Y035079D01*
X019485Y035025D01*
X019597Y034914D01*
Y034459D01*
X019595Y034453D01*
X019595Y034452D01*
X01958Y034432D01*
X019548Y034355D01*
X019537Y034272D01*
X019548Y034189D01*
X01958Y034111D01*
X019631Y034045D01*
X019698Y033994D01*
X019775Y033962D01*
X019858Y033951D01*
X019941Y033962D01*
X020019Y033994D01*
X020085Y034045D01*
X020136Y034111D01*
X020168Y034189D01*
X020179Y034272D01*
X020168Y034355D01*
X020136Y034432D01*
X02012Y034453D01*
X020119Y034456D01*
Y035022D01*
X020111Y035089D01*
X020102Y03511D01*
X020105Y035122D01*
X020135Y035162D01*
X020197Y03517D01*
X020275Y035202D01*
X020295Y035218D01*
X020299Y035219D01*
X02067D01*
X020738Y035228D01*
X020801Y035254D01*
X020855Y035295D01*
X021059Y0355D01*
X021109Y035479D01*
Y03441D01*
X021108D01*
X021122Y034271D01*
X021163Y034138D01*
X021228Y034015D01*
X021317Y033907D01*
X021425Y033818D01*
X021548Y033753D01*
X021681Y033712D01*
X02182Y033698D01*
Y033699D01*
X02839D01*
X028473Y03371D01*
X02855Y033742D01*
X028617Y033793D01*
X029433Y034609D01*
X029663D01*
X029673Y034559D01*
X02967Y034558D01*
X029603Y034507D01*
X029552Y03444D01*
X02952Y034363D01*
X029509Y03428D01*
X02952Y034197D01*
X029552Y03412D01*
X029568Y034099D01*
X029569Y034096D01*
Y033347D01*
X029567Y033341D01*
X029567Y03334D01*
X029552Y03332D01*
X02952Y033243D01*
X029509Y03316D01*
X02952Y033077D01*
X029552Y033D01*
X029603Y032933D01*
X02967Y032882D01*
X029747Y03285D01*
X02983Y032839D01*
X029913Y03285D01*
X02999Y032882D01*
X030057Y032933D01*
X030108Y033D01*
X03014Y033077D01*
X030151Y03316D01*
X03014Y033243D01*
X030108Y03332D01*
X030092Y033341D01*
X030091Y033344D01*
Y034093D01*
X030093Y034099D01*
X030093Y0341D01*
X030108Y03412D01*
X03014Y034197D01*
X030151Y03428D01*
X03014Y034363D01*
X030108Y03444D01*
X030057Y034507D01*
X02999Y034558D01*
X029987Y034559D01*
X029997Y034609D01*
X03099D01*
X031034Y034559D01*
X031029Y03452D01*
Y03268D01*
X031028D01*
X031044Y03252D01*
X031091Y032365D01*
X031166Y032223D01*
X031269Y032099D01*
X031393Y031996D01*
X031535Y031921D01*
X03169Y031874D01*
X03185Y031858D01*
Y031859D01*
X037D01*
Y031858D01*
X037188Y031873D01*
X037371Y031917D01*
X037546Y031989D01*
X037706Y032088D01*
X03785Y03221D01*
X037972Y032354D01*
X038071Y032514D01*
X038143Y032689D01*
X038187Y032872D01*
X038202Y03306D01*
X038201D01*
Y033544D01*
X038358D01*
X038363Y033543D01*
X03841Y033542D01*
X038446Y033539D01*
X038465Y033537D01*
X038468Y033529D01*
X038472Y033523D01*
X038513Y033446D01*
X038607Y033332D01*
X038721Y033238D01*
X038852Y033169D01*
X038943Y033141D01*
Y033089D01*
X038852Y033061D01*
X038721Y032992D01*
X038607Y032898D01*
X038513Y032784D01*
X038444Y032653D01*
X038401Y032512D01*
X038386Y032365D01*
X038401Y032218D01*
X038444Y032077D01*
X038513Y031946D01*
X038607Y031832D01*
X038721Y031738D01*
X038852Y031669D01*
X038993Y031626D01*
X03914Y031611D01*
X03924D01*
X039387Y031626D01*
X039528Y031669D01*
X039659Y031738D01*
X039773Y031832D01*
X039867Y031946D01*
X039936Y032077D01*
X039979Y032218D01*
X039994Y032365D01*
X039979Y032512D01*
X039936Y032653D01*
X039867Y032784D01*
X039773Y032898D01*
X039659Y032992D01*
X039528Y033061D01*
X039437Y033089D01*
Y033141D01*
X039528Y033169D01*
X039659Y033238D01*
X039773Y033332D01*
X039867Y033446D01*
X039936Y033577D01*
X039979Y033718D01*
X039994Y033865D01*
X039979Y034012D01*
X039936Y034153D01*
X039867Y034284D01*
X039773Y034398D01*
X039659Y034492D01*
X039528Y034561D01*
X039387Y034604D01*
X03924Y034619D01*
X03914D01*
X038993Y034604D01*
X038852Y034561D01*
X038721Y034492D01*
X038607Y034398D01*
X038513Y034284D01*
X038472Y034207D01*
X038468Y034201D01*
X038465Y034193D01*
X038446Y034191D01*
X03841Y034188D01*
X038363Y034187D01*
X038358Y034186D01*
X038201D01*
Y040207D01*
X038323Y040329D01*
X038358D01*
X038363Y040328D01*
X03841Y040327D01*
X038446Y040324D01*
X038465Y040322D01*
X038468Y040314D01*
X038472Y040308D01*
X038513Y040231D01*
X038607Y040117D01*
X038721Y040023D01*
X038852Y039954D01*
X038943Y039926D01*
Y039874D01*
X038852Y039846D01*
X038721Y039777D01*
X038607Y039683D01*
X038513Y039569D01*
X038444Y039438D01*
X038401Y039297D01*
X038386Y03915D01*
X038401Y039003D01*
X038444Y038862D01*
X038513Y038731D01*
X038607Y038617D01*
X038721Y038523D01*
X038852Y038454D01*
X038943Y038426D01*
Y038374D01*
X038852Y038346D01*
X038721Y038277D01*
X038607Y038183D01*
X038513Y038069D01*
X038444Y037938D01*
X038401Y037797D01*
X038386Y03765D01*
X038401Y037503D01*
X038444Y037362D01*
X038513Y037231D01*
X038607Y037117D01*
X038721Y037023D01*
X038852Y036954D01*
X038993Y036911D01*
X03914Y036896D01*
X03924D01*
X039387Y036911D01*
X039528Y036954D01*
X039659Y037023D01*
X039773Y037117D01*
X039867Y037231D01*
X039936Y037362D01*
X039979Y037503D01*
X039994Y03765D01*
X039979Y037797D01*
X039936Y037938D01*
X039867Y038069D01*
X039773Y038183D01*
X039659Y038277D01*
X039528Y038346D01*
X039437Y038374D01*
Y038426D01*
X039528Y038454D01*
X039659Y038523D01*
X039773Y038617D01*
X039867Y038731D01*
X039936Y038862D01*
X039979Y039003D01*
X039994Y03915D01*
X039979Y039297D01*
X039936Y039438D01*
X039867Y039569D01*
X039773Y039683D01*
X039659Y039777D01*
X039528Y039846D01*
X039437Y039874D01*
Y039926D01*
X039528Y039954D01*
X039659Y040023D01*
X039773Y040117D01*
X039867Y040231D01*
X039936Y040362D01*
X039979Y040503D01*
X039994Y04065D01*
X039979Y040797D01*
X039936Y040938D01*
X039867Y041069D01*
X039773Y041183D01*
X039659Y041277D01*
X039528Y041346D01*
X039387Y041389D01*
X03924Y041404D01*
X03914D01*
X038993Y041389D01*
X038852Y041346D01*
X038721Y041277D01*
X038607Y041183D01*
X038513Y041069D01*
X038472Y040992D01*
X038468Y040986D01*
X038465Y040978D01*
X038446Y040976D01*
X03841Y040973D01*
X038363Y040972D01*
X038358Y040971D01*
X03819D01*
X038107Y04096D01*
X03803Y040928D01*
X037963Y040877D01*
X037653Y040567D01*
X037602Y0405D01*
X03757Y040423D01*
X037559Y04034D01*
Y03387D01*
Y03306D01*
X03756Y03305D01*
X037543Y032915D01*
X037486Y032779D01*
X037397Y032663D01*
X037281Y032574D01*
X037145Y032517D01*
X03701Y0325D01*
X037Y032501D01*
X035593D01*
X035577Y032548D01*
X035602Y032568D01*
X03569Y032683D01*
X035746Y032816D01*
X035765Y03296D01*
X035746Y033104D01*
X03569Y033237D01*
X035602Y033352D01*
X0355Y033431D01*
X035496Y033447D01*
Y033473D01*
X0355Y033489D01*
X035602Y033568D01*
X03569Y033683D01*
X035746Y033816D01*
X035765Y03396D01*
X035746Y034104D01*
X03569Y034237D01*
X035602Y034352D01*
X0355Y034431D01*
X035496Y034447D01*
Y034473D01*
X0355Y034489D01*
X035602Y034568D01*
X03569Y034683D01*
X035746Y034816D01*
X035765Y03496D01*
X035746Y035104D01*
X03569Y035237D01*
X035602Y035352D01*
X0355Y035431D01*
X035496Y035447D01*
Y035473D01*
X0355Y035489D01*
X035602Y035568D01*
X03569Y035683D01*
X035746Y035816D01*
X035765Y03596D01*
X035746Y036104D01*
X03569Y036237D01*
X035602Y036352D01*
X0355Y036431D01*
X035496Y036447D01*
Y036473D01*
X0355Y036489D01*
X035602Y036568D01*
X03569Y036683D01*
X035746Y036816D01*
X035765Y03696D01*
X035746Y037104D01*
X03569Y037237D01*
X035602Y037352D01*
X035487Y03744D01*
X035354Y037496D01*
X03521Y037515D01*
X035066Y037496D01*
X034933Y03744D01*
X034818Y037352D01*
X03473Y037237D01*
X034674Y037104D01*
X034655Y03696D01*
X034674Y036816D01*
X03473Y036683D01*
X034818Y036568D01*
X03492Y036489D01*
X034924Y036473D01*
Y036447D01*
X03492Y036431D01*
X034818Y036352D01*
X034814Y036348D01*
X034794Y036328D01*
X034774Y036311D01*
X034756Y036297D01*
X034739Y036286D01*
X034724Y036278D01*
X03471Y036272D01*
X034697Y036267D01*
X034686Y036265D01*
X034675Y036263D01*
X034654Y036262D01*
X03465Y036261D01*
X03383D01*
X033825Y03626D01*
X033746Y036276D01*
X033674Y036324D01*
X033626Y036395D01*
X03361Y036474D01*
X033611Y03648D01*
Y038158D01*
X033612Y038164D01*
X033612Y038165D01*
X033805D01*
Y039155D01*
X033516D01*
X033506Y039205D01*
X03356Y039227D01*
X033663Y039307D01*
X033665Y039309D01*
X033684Y039327D01*
X0337Y039341D01*
X033715Y039352D01*
X033728Y039361D01*
X033739Y039367D01*
X033748Y039372D01*
X033756Y039374D01*
X033762Y039376D01*
X033767Y039377D01*
X033782Y039378D01*
X033787Y039379D01*
X03391D01*
X03391Y039379D01*
X033983Y039388D01*
X034051Y039417D01*
X034109Y039461D01*
X034279Y039631D01*
X034279Y039631D01*
X034323Y039689D01*
X034352Y039757D01*
X034361Y03983D01*
Y04098D01*
X034352Y041053D01*
X034323Y041121D01*
X034279Y041179D01*
X034279Y041179D01*
X033879Y041579D01*
X033821Y041623D01*
X033753Y041652D01*
X03368Y041661D01*
X03368Y041661D01*
X03182D01*
X031747Y041652D01*
X031679Y041623D01*
X031621Y041579D01*
X031621Y041579D01*
X030955Y040913D01*
X030908Y040936D01*
X030916Y041D01*
X030905Y041083D01*
X030873Y04116D01*
X030822Y041227D01*
X03082Y041253D01*
X030906Y041339D01*
X030906Y041339D01*
X030951Y041397D01*
X030979Y041465D01*
X030989Y041537D01*
X030989Y041537D01*
Y041927D01*
X03099Y041976D01*
X030991Y041977D01*
X030991Y041977D01*
X031041Y041979D01*
X034642D01*
X034647Y041978D01*
X034663Y041977D01*
X034669Y041976D01*
X034678Y041973D01*
X03469Y041968D01*
X034705Y041961D01*
X034722Y04195D01*
X03474Y041938D01*
X034791Y041895D01*
X034814Y041873D01*
X034818Y041868D01*
X034933Y04178D01*
X035066Y041724D01*
X03521Y041705D01*
X035354Y041724D01*
X035487Y04178D01*
X035602Y041868D01*
X03569Y041983D01*
X035746Y042116D01*
X035765Y04226D01*
X035746Y042404D01*
X03569Y042537D01*
X035602Y042652D01*
X0355Y042731D01*
X035496Y042747D01*
Y042773D01*
X0355Y042789D01*
X035602Y042868D01*
X03569Y042983D01*
X035746Y043116D01*
X035765Y04326D01*
X035746Y043404D01*
X03569Y043537D01*
X035602Y043652D01*
X035589Y043663D01*
X035605Y04371D01*
X03576D01*
Y04481D01*
X03466D01*
Y04371D01*
X034815D01*
X034831Y043663D01*
X034818Y043652D01*
X034814Y043647D01*
X034789Y043623D01*
X034765Y043601D01*
X034742Y043584D01*
X034722Y04357D01*
X034705Y043559D01*
X03469Y043552D01*
X034678Y043547D01*
X034669Y043544D01*
X034663Y043543D01*
X034647Y043542D01*
X034642Y043541D01*
X03095D01*
Y043543D01*
X030774Y043526D01*
X030604Y043474D01*
X030448Y043391D01*
X030311Y043279D01*
X030288Y04325D01*
X030241Y043267D01*
Y043455D01*
X03025Y043477D01*
X030261Y04356D01*
X03025Y043643D01*
X030218Y04372D01*
X030167Y043787D01*
X0301Y043838D01*
X030023Y04387D01*
X02994Y043881D01*
X029857Y04387D01*
X02978Y043838D01*
X029746Y043812D01*
X029687Y043807D01*
X029673Y043817D01*
X02962Y043858D01*
X029543Y04389D01*
X02946Y043901D01*
X029377Y04389D01*
X0293Y043858D01*
X029272Y043898D01*
X029473Y044099D01*
X03312D01*
X033203Y04411D01*
X03328Y044142D01*
X033347Y044193D01*
X033398Y04426D01*
X03343Y044337D01*
X033441Y04442D01*
X03343Y044503D01*
X033398Y04458D01*
X033347Y044647D01*
X03328Y044698D01*
X033203Y04473D01*
X03312Y044741D01*
X030154D01*
X030135Y044787D01*
X030466Y045119D01*
X037294D01*
X038291Y044121D01*
X038291Y044121D01*
X038349Y044077D01*
X038417Y044049D01*
X03844Y044046D01*
X038444Y044032D01*
X038513Y043901D01*
X038607Y043787D01*
X038721Y043693D01*
X038852Y043624D01*
X038993Y043581D01*
X03914Y043566D01*
X03924D01*
X039387Y043581D01*
X039528Y043624D01*
X039659Y043693D01*
X039773Y043787D01*
X039867Y043901D01*
X039936Y044032D01*
X039979Y044173D01*
X039994Y04432D01*
X039979Y044467D01*
X039936Y044608D01*
X039867Y044739D01*
X039773Y044853D01*
X039659Y044947D01*
X039528Y045016D01*
X039437Y045044D01*
Y045096D01*
X039528Y045124D01*
X039659Y045193D01*
X039773Y045287D01*
X039867Y045401D01*
X039936Y045532D01*
X039979Y045673D01*
X039994Y04582D01*
X039979Y045967D01*
X039936Y046108D01*
X039867Y046239D01*
X039773Y046353D01*
X039659Y046447D01*
X039528Y046516D01*
X039437Y046544D01*
Y046596D01*
X039528Y046624D01*
X039659Y046693D01*
X039773Y046787D01*
X039867Y046901D01*
X039936Y047032D01*
X039979Y047173D01*
X039994Y04732D01*
X039979Y047467D01*
X039936Y047608D01*
X039867Y047739D01*
X039773Y047853D01*
X039659Y047947D01*
X039528Y048016D01*
X039387Y048059D01*
X03924Y048074D01*
D02*
G37*
G36*
X01294Y04551D02*
X01284D01*
X012693Y045495D01*
X012552Y045452D01*
X012421Y045383D01*
X012307Y045289D01*
X012213Y045175D01*
X012144Y045044D01*
X012101Y044903D01*
X012086Y044756D01*
X012101Y044609D01*
X012144Y044468D01*
X012213Y044337D01*
X012307Y044223D01*
X012421Y044129D01*
X012552Y04406D01*
X012693Y044017D01*
X01284Y044002D01*
X01294D01*
X013087Y044017D01*
X013228Y04406D01*
X013359Y044129D01*
X013473Y044223D01*
X013567Y044337D01*
X013636Y044468D01*
X013679Y044609D01*
X013694Y044756D01*
X013679Y044903D01*
X013636Y045044D01*
X013567Y045175D01*
X013473Y045289D01*
X013359Y045383D01*
X013228Y045452D01*
X013087Y045495D01*
X01294Y04551D01*
D02*
G37*
%LPD*%
G36*
X038615Y045663D02*
X038613Y045678D01*
X038608Y045691D01*
X038599Y045703D01*
X038586Y045713D01*
X03857Y045722D01*
X038551Y045729D01*
X038528Y045734D01*
X038502Y045738D01*
X038472Y045741D01*
X038438Y045741D01*
Y045899D01*
X038472Y0459D01*
X038502Y045902D01*
X038528Y045906D01*
X038551Y045911D01*
X03857Y045918D01*
X038586Y045927D01*
X038599Y045937D01*
X038608Y045949D01*
X038613Y045962D01*
X038615Y045977D01*
Y045663D01*
D02*
G37*
G36*
X028052Y044904D02*
X028051Y044901D01*
X028051Y044897D01*
X02805Y044885D01*
X028049Y044845D01*
X028049Y044831D01*
X027891D01*
X027887Y044906D01*
X028053D01*
X028052Y044904D01*
D02*
G37*
G36*
X038601Y044221D02*
X0386Y044225D01*
X038596Y044228D01*
X038591Y044231D01*
X038583Y044234D01*
X038573Y044236D01*
X038561Y044238D01*
X03853Y044241D01*
X03849Y044241D01*
Y044399D01*
X038511Y044399D01*
X038573Y044404D01*
X038583Y044406D01*
X038591Y044409D01*
X038596Y044412D01*
X0386Y044416D01*
X038601Y044419D01*
Y044221D01*
D02*
G37*
G36*
X03496Y043015D02*
X034928Y043047D01*
X034865Y0431D01*
X034834Y043121D01*
X034803Y04314D01*
X034773Y043155D01*
X034744Y043166D01*
X034715Y043175D01*
X034687Y04318D01*
X034659Y043181D01*
Y043339D01*
X034687Y04334D01*
X034715Y043345D01*
X034744Y043354D01*
X034773Y043365D01*
X034803Y04338D01*
X034834Y043399D01*
X034865Y04342D01*
X034896Y043445D01*
X034928Y043473D01*
X03496Y043505D01*
Y043015D01*
D02*
G37*
G36*
X013438Y042969D02*
X013446Y042949D01*
X01346Y042932D01*
X013479Y042917D01*
X013504Y042904D01*
X013535Y042893D01*
X013571Y042885D01*
X013612Y042879D01*
X01366Y042875D01*
X013712Y042874D01*
Y042638D01*
X01366Y042637D01*
X013612Y042633D01*
X013571Y042627D01*
X013535Y042619D01*
X013504Y042609D01*
X013479Y042596D01*
X01346Y04258D01*
X013446Y042563D01*
X013438Y042543D01*
X013435Y04252D01*
Y042992D01*
X013438Y042969D01*
D02*
G37*
G36*
X03496Y042015D02*
X034928Y042047D01*
X034865Y0421D01*
X034834Y042121D01*
X034803Y04214D01*
X034773Y042155D01*
X034744Y042166D01*
X034715Y042175D01*
X034687Y04218D01*
X034659Y042181D01*
Y042339D01*
X034687Y04234D01*
X034715Y042345D01*
X034744Y042354D01*
X034773Y042365D01*
X034803Y04238D01*
X034834Y042399D01*
X034865Y04242D01*
X034896Y042445D01*
X034928Y042473D01*
X03496Y042505D01*
Y042015D01*
D02*
G37*
G36*
X024612Y041494D02*
X024611Y041491D01*
X024611Y041487D01*
X02461Y041475D01*
X024609Y041435D01*
X024609Y041421D01*
X024451D01*
X024447Y041496D01*
X024613D01*
X024612Y041494D01*
D02*
G37*
G36*
X023199Y041152D02*
X023197Y041151D01*
X023195Y04115D01*
X023192Y041147D01*
X023182Y041139D01*
X023153Y041111D01*
X023143Y041102D01*
X023032Y041213D01*
X023082Y041269D01*
X023199Y041152D01*
D02*
G37*
G36*
X038645Y040414D02*
X038642Y040437D01*
X038634Y040457D01*
X03862Y040474D01*
X038601Y04049D01*
X038576Y040502D01*
X038545Y040513D01*
X038509Y040521D01*
X038468Y040527D01*
X03842Y040531D01*
X038368Y040532D01*
Y040768D01*
X03842Y040769D01*
X038468Y040773D01*
X038509Y040779D01*
X038545Y040787D01*
X038576Y040798D01*
X038601Y04081D01*
X03862Y040826D01*
X038634Y040843D01*
X038642Y040863D01*
X038645Y040886D01*
Y040414D01*
D02*
G37*
G36*
X013458Y040613D02*
X013466Y040593D01*
X01348Y040576D01*
X013499Y04056D01*
X013524Y040548D01*
X013555Y040537D01*
X013591Y040529D01*
X013632Y040523D01*
X01368Y040519D01*
X013732Y040518D01*
Y040282D01*
X01368Y040281D01*
X013632Y040277D01*
X013591Y040271D01*
X013555Y040263D01*
X013524Y040252D01*
X013499Y04024D01*
X01348Y040224D01*
X013466Y040207D01*
X013458Y040187D01*
X013455Y040164D01*
Y040636D01*
X013458Y040613D01*
D02*
G37*
G36*
X033003Y041049D02*
X032957Y041013D01*
X032877Y04091D01*
X032827Y040789D01*
X03281Y04066D01*
X032827Y040531D01*
X032877Y04041D01*
X032957Y040307D01*
X03306Y040227D01*
X033158Y040187D01*
Y040133D01*
X03306Y040093D01*
X032957Y040013D01*
X032877Y03991D01*
X032837Y039812D01*
X032783D01*
X032743Y03991D01*
X032663Y040013D01*
X03256Y040093D01*
X032439Y040143D01*
X03231Y04016D01*
X032181Y040143D01*
X03206Y040093D01*
X031957Y040013D01*
X031955Y040011D01*
X031942Y039999D01*
X031931Y03999D01*
X031921Y039982D01*
X031911Y039977D01*
X031902Y039972D01*
X031894Y039969D01*
X031885Y039966D01*
X031876Y039964D01*
X031865Y039963D01*
X031846Y039962D01*
X031841Y039961D01*
X03171D01*
X031632Y039951D01*
X03156Y039921D01*
X031497Y039873D01*
X031387Y039763D01*
X031341Y039782D01*
Y040504D01*
X031936Y041099D01*
X032986D01*
X033003Y041049D01*
D02*
G37*
G36*
X033546Y039842D02*
X033571Y039821D01*
X033596Y039801D01*
X033621Y039785D01*
X033646Y039771D01*
X033671Y039759D01*
X033696Y03975D01*
X033722Y039744D01*
X033747Y03974D01*
X033772Y039739D01*
Y039581D01*
X033747Y03958D01*
X033722Y039576D01*
X033696Y03957D01*
X033671Y039561D01*
X033646Y039549D01*
X033621Y039535D01*
X033596Y039519D01*
X033571Y039499D01*
X033546Y039478D01*
X033521Y039453D01*
Y039867D01*
X033546Y039842D01*
D02*
G37*
G36*
X032099Y039453D02*
X032078Y039474D01*
X032055Y039492D01*
X032033Y039509D01*
X032009Y039523D01*
X031985Y039535D01*
X03196Y039544D01*
X031935Y039552D01*
X031909Y039557D01*
X031882Y03956D01*
X031854Y039562D01*
Y039758D01*
X031882Y03976D01*
X031909Y039763D01*
X031935Y039768D01*
X03196Y039776D01*
X031985Y039785D01*
X032009Y039797D01*
X032033Y039811D01*
X032055Y039828D01*
X032078Y039846D01*
X032099Y039867D01*
Y039453D01*
D02*
G37*
G36*
X027908Y038807D02*
X027907Y038808D01*
X027904Y038809D01*
X0279Y038809D01*
X027888Y03881D01*
X027847Y038811D01*
X027834Y038811D01*
Y038969D01*
X027908Y038973D01*
Y038807D01*
D02*
G37*
G36*
X01947Y038599D02*
X019482Y038595D01*
X019497Y038591D01*
X019516Y038588D01*
X019567Y038583D01*
X019674Y038579D01*
X019719Y038579D01*
Y038461D01*
X019674Y038461D01*
X019497Y038449D01*
X019482Y038445D01*
X01947Y038441D01*
X019463Y038436D01*
Y038604D01*
X01947Y038599D01*
D02*
G37*
G36*
X033488Y038364D02*
X033471Y038358D01*
X033457Y038348D01*
X033444Y038334D01*
X033433Y038317D01*
X033424Y038295D01*
X033417Y038269D01*
X033412Y03824D01*
X033409Y038206D01*
X033408Y038169D01*
X033212D01*
X033211Y038206D01*
X033208Y03824D01*
X033203Y038269D01*
X033196Y038295D01*
X033187Y038317D01*
X033176Y038334D01*
X033163Y038348D01*
X033149Y038358D01*
X033132Y038364D01*
X033113Y038366D01*
X033507D01*
X033488Y038364D01*
D02*
G37*
G36*
X013458Y038613D02*
X013466Y038593D01*
X01348Y038576D01*
X013499Y03856D01*
X013524Y038548D01*
X013555Y038537D01*
X013591Y038529D01*
X013632Y038523D01*
X01368Y038519D01*
X013732Y038518D01*
Y038282D01*
X01368Y038281D01*
X013632Y038277D01*
X013591Y038271D01*
X013555Y038263D01*
X013524Y038252D01*
X013499Y03824D01*
X01348Y038224D01*
X013466Y038207D01*
X013458Y038187D01*
X013455Y038164D01*
Y038636D01*
X013458Y038613D01*
D02*
G37*
G36*
X027006Y037922D02*
X027009Y037921D01*
X027013Y037921D01*
X027025Y03792D01*
X027066Y037919D01*
X027079Y037919D01*
Y037761D01*
X027004Y037757D01*
Y037923D01*
X027006Y037922D01*
D02*
G37*
G36*
X027333Y037504D02*
X02732Y037504D01*
X027279Y037501D01*
X027273Y0375D01*
X027267Y037499D01*
X027263Y037497D01*
X02726Y037495D01*
X027258Y037493D01*
X027199Y037647D01*
X027331Y037661D01*
X027333Y037504D01*
D02*
G37*
G36*
X027095Y036819D02*
X027094Y036817D01*
X027093Y036814D01*
X027092Y03681D01*
X027091Y036804D01*
X02709Y036789D01*
X027089Y036757D01*
X027089Y036743D01*
X026931Y036761D01*
X02693Y036833D01*
X027095Y036819D01*
D02*
G37*
G36*
X020159Y036704D02*
X020028Y036691D01*
X020028Y036849D01*
X020041Y036849D01*
X020081Y036851D01*
X020088Y036853D01*
X020094Y036854D01*
X020098Y036855D01*
X020101Y036857D01*
X020103Y036859D01*
X020159Y036704D01*
D02*
G37*
G36*
X020671Y036698D02*
X020667Y036692D01*
X020664Y036685D01*
X02066Y036677D01*
X020658Y036669D01*
X020656Y03666D01*
X020654Y036649D01*
X020653Y036638D01*
X020652Y036614D01*
X020534D01*
X020534Y036627D01*
X020532Y036649D01*
X02053Y03666D01*
X020528Y036669D01*
X020525Y036677D01*
X020522Y036685D01*
X020519Y036692D01*
X020515Y036698D01*
X02051Y036703D01*
X020676D01*
X020671Y036698D01*
D02*
G37*
G36*
X027093Y036349D02*
X026927D01*
X026928Y036351D01*
X026929Y036354D01*
X026929Y036358D01*
X02693Y03637D01*
X026931Y036411D01*
X026931Y036424D01*
X027089D01*
X027093Y036349D01*
D02*
G37*
G36*
X027092Y036179D02*
X027091Y036177D01*
X027091Y036172D01*
X02709Y03616D01*
X027089Y03612D01*
X027089Y036106D01*
X026931D01*
X026927Y036181D01*
X027093D01*
X027092Y036179D01*
D02*
G37*
G36*
X013458Y036293D02*
X013466Y036273D01*
X01348Y036256D01*
X013499Y03624D01*
X013524Y036228D01*
X013555Y036217D01*
X013591Y036209D01*
X013632Y036203D01*
X01368Y036199D01*
X013732Y036198D01*
Y035962D01*
X01368Y035961D01*
X013632Y035957D01*
X013591Y035951D01*
X013555Y035943D01*
X013524Y035932D01*
X013499Y03592D01*
X01348Y035904D01*
X013466Y035887D01*
X013458Y035867D01*
X013455Y035844D01*
Y036316D01*
X013458Y036293D01*
D02*
G37*
G36*
X03496Y035715D02*
X034931Y035743D01*
X034902Y035768D01*
X034873Y03579D01*
X034844Y035809D01*
X034814Y035825D01*
X034785Y035838D01*
X034755Y035848D01*
X034725Y035856D01*
X034694Y03586D01*
X034664Y035862D01*
Y036058D01*
X034694Y03606D01*
X034725Y036064D01*
X034755Y036072D01*
X034785Y036082D01*
X034814Y036095D01*
X034844Y036111D01*
X034873Y03613D01*
X034902Y036152D01*
X034931Y036177D01*
X03496Y036205D01*
Y035715D01*
D02*
G37*
G36*
X031068Y035757D02*
X031018Y035701D01*
X030901Y035818D01*
X030903Y035819D01*
X030905Y03582D01*
X030908Y035823D01*
X030918Y035831D01*
X030947Y035859D01*
X030957Y035868D01*
X031068Y035757D01*
D02*
G37*
G36*
X022193Y035454D02*
X022027D01*
X022028Y035456D01*
X022029Y035459D01*
X022029Y035463D01*
X02203Y035475D01*
X022031Y035515D01*
X022031Y035529D01*
X022189D01*
X022193Y035454D01*
D02*
G37*
G36*
X020203Y035558D02*
X020209Y035554D01*
X020216Y035551D01*
X020224Y035548D01*
X020232Y035545D01*
X020242Y035543D01*
X020252Y035541D01*
X020263Y03554D01*
X020287Y035539D01*
Y035421D01*
X020275Y035421D01*
X020252Y035419D01*
X020242Y035417D01*
X020232Y035415D01*
X020224Y035412D01*
X020216Y035409D01*
X020209Y035406D01*
X020203Y035402D01*
X020198Y035397D01*
Y035563D01*
X020203Y035558D01*
D02*
G37*
G36*
X027481Y035468D02*
X027483Y035466D01*
X027485Y035463D01*
X027505Y035442D01*
X027531Y035416D01*
X027419Y035305D01*
X027366Y035355D01*
X027481Y035469D01*
X027481Y035468D01*
D02*
G37*
G36*
X022196Y035452D02*
X022199Y035451D01*
X022203Y035451D01*
X022215Y03545D01*
X022255Y035449D01*
X022269Y035449D01*
Y035291D01*
X022194Y035287D01*
Y035453D01*
X022196Y035452D01*
D02*
G37*
G36*
X031216Y035257D02*
X031214Y035258D01*
X031211Y035259D01*
X031207Y035259D01*
X031195Y03526D01*
X031155Y035261D01*
X031141Y035261D01*
Y035419D01*
X031216Y035423D01*
Y035257D01*
D02*
G37*
G36*
X03496Y034715D02*
X034931Y034743D01*
X034902Y034768D01*
X034873Y03479D01*
X034844Y034809D01*
X034814Y034825D01*
X034785Y034838D01*
X034755Y034848D01*
X034725Y034856D01*
X034694Y03486D01*
X034664Y034862D01*
Y035058D01*
X034694Y03506D01*
X034725Y035064D01*
X034755Y035072D01*
X034785Y035082D01*
X034814Y035095D01*
X034844Y035111D01*
X034873Y03513D01*
X034902Y035152D01*
X034931Y035177D01*
X03496Y035205D01*
Y034715D01*
D02*
G37*
G36*
X019917Y034432D02*
X019919Y034409D01*
X019921Y034399D01*
X019923Y03439D01*
X019926Y034381D01*
X019929Y034374D01*
X019932Y034367D01*
X019936Y034361D01*
X019941Y034356D01*
X019776D01*
X01978Y034361D01*
X019784Y034367D01*
X019788Y034374D01*
X019791Y034381D01*
X019793Y03439D01*
X019795Y034399D01*
X019797Y034409D01*
X019798Y03442D01*
X019799Y034445D01*
X019917D01*
X019917Y034432D01*
D02*
G37*
G36*
X029908Y034191D02*
X029904Y034185D01*
X029901Y034178D01*
X029898Y03417D01*
X029895Y034162D01*
X029893Y034153D01*
X029891Y034142D01*
X02989Y034131D01*
X029889Y034107D01*
X029771D01*
X029771Y03412D01*
X029769Y034142D01*
X029767Y034153D01*
X029765Y034162D01*
X029762Y03417D01*
X029759Y034178D01*
X029756Y034185D01*
X029752Y034191D01*
X029747Y034196D01*
X029913D01*
X029908Y034191D01*
D02*
G37*
G36*
X038645Y033629D02*
X038642Y033652D01*
X038634Y033672D01*
X03862Y033689D01*
X038601Y033705D01*
X038576Y033717D01*
X038545Y033728D01*
X038509Y033736D01*
X038468Y033742D01*
X03842Y033746D01*
X038368Y033747D01*
Y033983D01*
X03842Y033984D01*
X038468Y033988D01*
X038509Y033994D01*
X038545Y034002D01*
X038576Y034013D01*
X038601Y034025D01*
X03862Y034041D01*
X038634Y034058D01*
X038642Y034078D01*
X038645Y034101D01*
Y033629D01*
D02*
G37*
G36*
X018448Y033432D02*
X018398Y033377D01*
X018281Y033494D01*
X018283Y033494D01*
X018285Y033496D01*
X018288Y033498D01*
X018298Y033506D01*
X018327Y033534D01*
X018337Y033544D01*
X018448Y033432D01*
D02*
G37*
G36*
X013123Y033562D02*
X013103Y033554D01*
X013086Y03354D01*
X01307Y033522D01*
X013058Y033498D01*
X013047Y033469D01*
X013039Y033434D01*
X013033Y033394D01*
X013029Y033349D01*
X013028Y033299D01*
X012792D01*
X012791Y033349D01*
X012787Y033394D01*
X012781Y033434D01*
X012773Y033469D01*
X012762Y033498D01*
X01275Y033522D01*
X012734Y03354D01*
X012717Y033554D01*
X012697Y033562D01*
X012674Y033564D01*
X013146D01*
X013123Y033562D01*
D02*
G37*
G36*
X029889Y03332D02*
X029891Y033298D01*
X029893Y033287D01*
X029895Y033278D01*
X029898Y03327D01*
X029901Y033262D01*
X029904Y033255D01*
X029908Y033249D01*
X029913Y033244D01*
X029747D01*
X029752Y033249D01*
X029756Y033255D01*
X029759Y033262D01*
X029762Y03327D01*
X029765Y033278D01*
X029767Y033287D01*
X029769Y033298D01*
X02977Y033309D01*
X029771Y033333D01*
X029889D01*
X029889Y03332D01*
D02*
G37*
G36*
X014228Y032957D02*
X014215Y032961D01*
X014199Y032961D01*
X014181Y032957D01*
X014162Y032949D01*
X014139Y032937D01*
X014115Y032921D01*
X014089Y032901D01*
X014029Y032849D01*
X013996Y032817D01*
X01381Y03291D01*
X013842Y032943D01*
X013893Y033D01*
X013911Y033025D01*
X013924Y033046D01*
X013933Y033065D01*
X013937Y033081D01*
X013937Y033095D01*
X013932Y033105D01*
X013922Y033112D01*
X014228Y032957D01*
D02*
G37*
G36*
X017224Y032905D02*
X017204Y032898D01*
X017186Y032886D01*
X017171Y032869D01*
X017158Y032848D01*
X017147Y032822D01*
X017139Y032791D01*
X017133Y032755D01*
X017129Y032715D01*
X017128Y03267D01*
X016892D01*
X016891Y032715D01*
X016887Y032755D01*
X016881Y032791D01*
X016873Y032822D01*
X016862Y032848D01*
X016849Y032869D01*
X016834Y032886D01*
X016816Y032898D01*
X016796Y032905D01*
X016774Y032907D01*
X017246D01*
X017224Y032905D01*
D02*
G37*
D73*
X02305Y04245D02*
G03*
X02245Y04185I0J-0006D01*
G01*
X02143Y03441D02*
G03*
X02182Y03402I00039J0D01*
G01*
X03135Y03268D02*
G03*
X03185Y03218I0005J0D01*
G01*
X037D02*
G03*
X03788Y03306I0J00088D01*
G01*
X02305Y04245D02*
X02737D01*
X02245Y04118D02*
Y04185D01*
X02182Y03402D02*
X02839D01*
X02143Y03441D02*
Y04016D01*
X03185Y03218D02*
X037D01*
X03135Y03268D02*
Y03452D01*
X01165Y03551D02*
Y03642D01*
Y03551D02*
X0121Y03506D01*
X01354D01*
X01373Y03525D01*
X01451D01*
X01291Y03608D02*
X0165D01*
X01347Y03188D02*
X01661D01*
X01291Y03244D02*
X01347Y03188D01*
X01291Y03244D02*
Y03408D01*
X01701Y03228D02*
Y0332D01*
X01661Y03188D02*
X01701Y03228D01*
Y03525D02*
Y03557D01*
X0165Y03608D02*
X01701Y03557D01*
X01793Y03476D02*
X01796Y03479D01*
Y03587D01*
X01718Y03665D02*
X01796Y03587D01*
X0146Y03665D02*
X01718D01*
X017043Y03754D02*
X01818Y036403D01*
X01503Y03754D02*
X017043D01*
X01417Y0384D02*
X01503Y03754D01*
X02143Y04016D02*
X02245Y04118D01*
X03182Y03493D02*
X03223Y03452D01*
X0293Y03493D02*
X03182D01*
X02839Y03402D02*
X0293Y03493D01*
X04042Y03612D02*
Y04258D01*
Y03108D02*
Y03612D01*
X04039Y03615D02*
X04042Y03612D01*
X03919Y03615D02*
X04039D01*
X03919Y030865D02*
X040205D01*
X04042Y03108D01*
X04018Y04282D02*
X04042Y04258D01*
X03919Y04282D02*
X04018D01*
X0378D02*
X03919D01*
X03624Y04126D02*
X0378Y04282D01*
X03521Y04126D02*
X03624D01*
X03521Y03796D02*
Y04126D01*
X037885Y033865D02*
X03919D01*
X03788Y03387D02*
X037885Y033865D01*
X03788Y03306D02*
Y03387D01*
X03819Y04065D02*
X03919D01*
X03788Y04034D02*
X03819Y04065D01*
X03788Y03387D02*
Y04034D01*
X02737Y04245D02*
X02934Y04442D01*
X03312D01*
X01289Y042756D02*
X015354D01*
X01693Y04118D01*
X02245D01*
X01636Y03852D02*
X01938D01*
X01448Y0404D02*
X01636Y03852D01*
X01291Y0404D02*
X01448D01*
X01291Y0384D02*
X01417D01*
D74*
X02983Y03316D02*
Y03428D01*
X020593Y036203D02*
Y036787D01*
X02038Y03599D02*
X020593Y036203D01*
X01985Y03599D02*
X02038D01*
X01967Y03581D02*
X01985Y03599D01*
X01967Y03521D02*
Y03581D01*
Y03521D02*
X019858Y035022D01*
Y034272D02*
Y035022D01*
X0209Y03571D02*
Y03829D01*
X02067Y03548D02*
X0209Y03571D01*
X02067Y03852D02*
X0209Y03829D01*
X01938Y03852D02*
X02067D01*
X020114Y03548D02*
X02067D01*
D75*
X03331Y03648D02*
G03*
X03383Y03596I00052J0D01*
G01*
X03521D01*
X03331Y03648D02*
Y03866D01*
X01388Y03284D02*
X01429Y03325D01*
X01451D01*
X01793Y03422D02*
Y03476D01*
X01758Y03387D02*
X01793Y03422D01*
X01481Y03387D02*
X01758D01*
X030595Y038655D02*
Y041D01*
X03263Y03496D02*
X03521D01*
X03147Y03612D02*
X03263Y03496D01*
X03147Y03612D02*
Y03942D01*
X03171Y03966D01*
X03231D01*
X024946Y045656D02*
X02923D01*
X02472Y04543D02*
X024946Y045656D01*
X02472Y044988D02*
Y04543D01*
X02897Y04035D02*
Y04117D01*
X02994Y04214D02*
Y04356D01*
X02897Y04117D02*
X02994Y04214D01*
X02946Y04221D02*
Y04358D01*
X028145Y040895D02*
X02946Y04221D01*
X028145Y04038D02*
Y040895D01*
X01675Y04007D02*
X01792D01*
X01498Y04184D02*
X01675Y04007D01*
D77*
X02653Y03537D02*
G03*
X02701Y03585I0J00048D01*
G01*
X03095Y04326D02*
G03*
X03033Y04264I0J-00062D01*
G01*
X03099Y04226D02*
G03*
X030707Y041977I0J-000283D01*
G01*
X02859Y03784D02*
G03*
X02938Y03863I0J00079D01*
G01*
X028697Y037582D02*
G03*
X029637Y038523I0J000941D01*
G01*
X02453Y03989D02*
G03*
X02553Y03889I001J0D01*
G01*
X02211Y03537D02*
X02653D01*
X03095Y04326D02*
X03521D01*
X03033Y04164D02*
Y04264D01*
X03099Y04226D02*
X03521D01*
X030707Y041537D02*
Y041977D01*
X02692Y03784D02*
X02859D01*
X027192Y037582D02*
X028697D01*
X02553Y03889D02*
X027993D01*
X02453Y03989D02*
Y04158D01*
X02211Y04018D02*
X0232Y04127D01*
X02211Y03537D02*
Y04018D01*
X02701Y03585D02*
Y036265D01*
Y0369D02*
X02702Y03691D01*
X02701Y036265D02*
Y0369D01*
X03331Y03966D02*
X03391D01*
X03408Y03983D01*
Y04098D01*
X03368Y04138D02*
X03408Y04098D01*
X03182Y04138D02*
X03368D01*
X03106Y04062D02*
X03182Y04138D01*
X03106Y03586D02*
Y04062D01*
X0309Y0357D02*
X03106Y03586D01*
X027495Y03534D02*
X0313D01*
X027363Y035473D02*
X027495Y03534D01*
X03849Y04432D02*
X03919D01*
X03741Y0454D02*
X03849Y04432D01*
X03035Y0454D02*
X03741D01*
X02988Y04493D02*
X03035Y0454D01*
X02906Y04493D02*
X02988D01*
X0287Y04457D02*
X02906Y04493D01*
X0281Y04457D02*
X0287D01*
X02797Y0447D02*
X0281Y04457D01*
X02797Y0447D02*
Y04499D01*
X03024Y04582D02*
X03919D01*
X02968Y04526D02*
X03024Y04582D01*
X02858Y04526D02*
X02968D01*
X02846Y04514D02*
X02858Y04526D01*
X02846Y045D02*
Y04514D01*
X029637Y040467D02*
X030707Y041537D01*
X029637Y038523D02*
Y040467D01*
X02938Y04069D02*
X03033Y04164D01*
X02938Y03863D02*
Y04069D01*
X02715Y03754D02*
X027192Y037582D01*
X01857Y03637D02*
X01897Y03677D01*
X01857Y033666D02*
Y03637D01*
X01828Y033376D02*
X01857Y033666D01*
X01897Y03677D02*
X02017D01*
X02021Y03681D01*
D79*
X03919Y033865D02*
D03*
Y032365D02*
D03*
Y030865D02*
D03*
Y03615D02*
D03*
Y03765D02*
D03*
Y03915D02*
D03*
Y04065D02*
D03*
Y04282D02*
D03*
Y04432D02*
D03*
Y04582D02*
D03*
Y04732D02*
D03*
X01291Y03608D02*
D03*
Y03408D02*
D03*
Y0404D02*
D03*
Y0384D02*
D03*
X01289Y044756D02*
D03*
Y042756D02*
D03*
D80*
X03331Y03866D02*
D03*
D81*
Y03966D02*
D03*
Y04066D02*
D03*
X03231Y03866D02*
D03*
Y03966D02*
D03*
Y04066D02*
D03*
D82*
X02392Y036925D02*
D03*
Y038894D02*
D03*
D83*
X03521Y03796D02*
D03*
Y04426D02*
D03*
D84*
Y03696D02*
D03*
Y03596D02*
D03*
Y03496D02*
D03*
Y03396D02*
D03*
Y03296D02*
D03*
Y04126D02*
D03*
Y04226D02*
D03*
Y04326D02*
D03*
D85*
X038189Y030709D02*
D03*
X037795Y029921D02*
D03*
X037402Y030709D02*
D03*
X037008Y029921D02*
D03*
X036614Y030709D02*
D03*
X034252D02*
D03*
X033858Y029921D02*
D03*
X033465Y048032D02*
D03*
Y030709D02*
D03*
X033071Y029921D02*
D03*
X032677Y048032D02*
D03*
Y030709D02*
D03*
X032283Y029921D02*
D03*
X03189Y048032D02*
D03*
Y030709D02*
D03*
X031496Y029921D02*
D03*
X031102Y048032D02*
D03*
Y030709D02*
D03*
X030709Y029921D02*
D03*
X030315Y048032D02*
D03*
Y030709D02*
D03*
X029921Y029921D02*
D03*
X029528Y048032D02*
D03*
Y030709D02*
D03*
X029134Y029921D02*
D03*
X02874Y048032D02*
D03*
Y030709D02*
D03*
X028346Y029921D02*
D03*
X027953Y048032D02*
D03*
X027559Y031496D02*
D03*
X027953Y030709D02*
D03*
X027559Y029921D02*
D03*
X027165Y048032D02*
D03*
X026772Y031496D02*
D03*
X027165Y030709D02*
D03*
X026772Y029921D02*
D03*
X026378Y048032D02*
D03*
X025984Y033071D02*
D03*
X026378Y032283D02*
D03*
X025984Y031496D02*
D03*
X026378Y030709D02*
D03*
X025984Y029921D02*
D03*
X025591Y048032D02*
D03*
X025197Y033071D02*
D03*
X025591Y032283D02*
D03*
X025197Y031496D02*
D03*
X025591Y030709D02*
D03*
X025197Y029921D02*
D03*
X024803Y048032D02*
D03*
X024409Y047244D02*
D03*
Y033071D02*
D03*
X024803Y032283D02*
D03*
X024409Y031496D02*
D03*
X024803Y030709D02*
D03*
X024409Y029921D02*
D03*
X024016Y048032D02*
D03*
X023622Y047244D02*
D03*
X024016Y046457D02*
D03*
X023622Y033071D02*
D03*
X024016Y032283D02*
D03*
X023622Y031496D02*
D03*
X024016Y030709D02*
D03*
X023622Y029921D02*
D03*
X023228Y048032D02*
D03*
X022835Y047244D02*
D03*
X023228Y046457D02*
D03*
X022835Y033071D02*
D03*
X023228Y032283D02*
D03*
X022835Y031496D02*
D03*
X023228Y030709D02*
D03*
X022835Y029921D02*
D03*
X022441Y048032D02*
D03*
X022047Y047244D02*
D03*
X022441Y046457D02*
D03*
X022047Y033071D02*
D03*
X022441Y032283D02*
D03*
X022047Y031496D02*
D03*
X022441Y030709D02*
D03*
X022047Y029921D02*
D03*
X021654Y048032D02*
D03*
X02126Y047244D02*
D03*
X021654Y046457D02*
D03*
X02126Y033071D02*
D03*
X021654Y032283D02*
D03*
X02126Y031496D02*
D03*
X021654Y030709D02*
D03*
X02126Y029921D02*
D03*
X020866Y048032D02*
D03*
X020472Y047244D02*
D03*
X020866Y046457D02*
D03*
Y032283D02*
D03*
X020472Y031496D02*
D03*
X020866Y030709D02*
D03*
X020472Y029921D02*
D03*
X020079Y048032D02*
D03*
X019685Y047244D02*
D03*
X020079Y046457D02*
D03*
Y032283D02*
D03*
X019685Y031496D02*
D03*
X020079Y030709D02*
D03*
X019685Y029921D02*
D03*
X019291Y048032D02*
D03*
X018898Y047244D02*
D03*
X019291Y046457D02*
D03*
Y032283D02*
D03*
X018898Y031496D02*
D03*
X019291Y030709D02*
D03*
X018898Y029921D02*
D03*
X018504Y048032D02*
D03*
X01811Y047244D02*
D03*
X018504Y046457D02*
D03*
Y032283D02*
D03*
X01811Y031496D02*
D03*
X018504Y030709D02*
D03*
X01811Y029921D02*
D03*
X017717Y048032D02*
D03*
X017323Y047244D02*
D03*
X017717Y046457D02*
D03*
Y032283D02*
D03*
X017323Y031496D02*
D03*
X017717Y030709D02*
D03*
X017323Y029921D02*
D03*
X016929Y048032D02*
D03*
X016535Y047244D02*
D03*
X016929Y046457D02*
D03*
Y030709D02*
D03*
X016535Y029921D02*
D03*
X016142Y048032D02*
D03*
X015748Y047244D02*
D03*
X016142Y046457D02*
D03*
Y030709D02*
D03*
X015748Y029921D02*
D03*
X015354Y048032D02*
D03*
X014961Y047244D02*
D03*
X015354Y046457D02*
D03*
Y030709D02*
D03*
X014961Y029921D02*
D03*
X014567Y048032D02*
D03*
X014173Y047244D02*
D03*
X014567Y046457D02*
D03*
Y030709D02*
D03*
X014173Y029921D02*
D03*
X01378Y048032D02*
D03*
X013386Y047244D02*
D03*
X01378Y046457D02*
D03*
Y030709D02*
D03*
X013386Y029921D02*
D03*
X012992Y048032D02*
D03*
X012598Y047244D02*
D03*
X012992Y046457D02*
D03*
X012598Y031496D02*
D03*
X012992Y030709D02*
D03*
X012598Y029921D02*
D03*
X012205Y046457D02*
D03*
Y032283D02*
D03*
X011811Y031496D02*
D03*
D86*
X01165Y03642D02*
D03*
X01388Y03284D02*
D03*
X0232Y04127D02*
D03*
X02211Y03537D02*
D03*
X02702Y03691D02*
D03*
X02701Y036265D02*
D03*
X03223Y03452D02*
D03*
X030595Y038655D02*
D03*
X0309Y0357D02*
D03*
X030595Y041D02*
D03*
X03135Y03452D02*
D03*
X03312Y04442D02*
D03*
X02453Y04158D02*
D03*
X027993Y03889D02*
D03*
X027363Y035473D02*
D03*
X0313Y03534D02*
D03*
X02983Y03316D02*
D03*
X02846Y045D02*
D03*
X02797Y04499D02*
D03*
X02897Y04035D02*
D03*
X02715Y03754D02*
D03*
X02692Y03784D02*
D03*
X02472Y044988D02*
D03*
X02923Y045656D02*
D03*
X02994Y04356D02*
D03*
X02946Y04358D02*
D03*
X028145Y04038D02*
D03*
X02983Y03428D02*
D03*
X02245Y04118D02*
D03*
X01498Y04184D02*
D03*
X01792Y04007D02*
D03*
X019858Y034272D02*
D03*
X020593Y036787D02*
D03*
X020114Y03548D02*
D03*
X01938Y03852D02*
D03*
X02021Y03681D02*
D03*
X01828Y033376D02*
D03*
X01818Y036403D02*
D03*
X01793Y03476D02*
D03*
X01481Y03387D02*
D03*
X0146Y03665D02*
D03*
D87*
X03533Y03021D02*
D03*
X01156D02*
D03*
X03533Y04787D02*
D03*
X01156D02*
D03*
D88*
X01701Y0332D02*
D03*
Y03525D02*
D03*
X01451Y03325D02*
D03*
Y03525D02*
D03*
M02*
