G04*
G04 #@! TF.GenerationSoftware,Altium Limited,Altium Designer,18.1.6 (161)*
G04*
G04 Layer_Color=2752767*
%FSTAX24Y24*%
%MOIN*%
G70*
G01*
G75*
%ADD92C,0.0020*%
%ADD93C,0.0027*%
D92*
X03911Y033785D02*
Y033945D01*
X03927D01*
Y033785D01*
X03911D01*
Y032285D02*
Y032445D01*
X03927D01*
Y032285D01*
X03911D01*
Y030785D02*
Y030945D01*
X03927D01*
Y030785D01*
X03911D01*
Y03607D02*
Y03623D01*
X03927D01*
Y03607D01*
X03911D01*
Y03757D02*
Y03773D01*
X03927D01*
Y03757D01*
X03911D01*
Y03907D02*
Y03923D01*
X03927D01*
Y03907D01*
X03911D01*
Y04057D02*
Y04073D01*
X03927D01*
Y04057D01*
X03911D01*
Y04274D02*
Y0429D01*
X03927D01*
Y04274D01*
X03911D01*
Y04424D02*
Y0444D01*
X03927D01*
Y04424D01*
X03911D01*
Y04574D02*
Y0459D01*
X03927D01*
Y04574D01*
X03911D01*
Y04724D02*
Y0474D01*
X03927D01*
Y04724D01*
X03911D01*
X02392Y036845D02*
X02384Y037005D01*
X024D01*
X02392Y036845D01*
Y038814D02*
X02384Y038974D01*
X024D01*
X02392Y038814D01*
X01283Y036D02*
Y03616D01*
X01299D01*
Y036D01*
X01283D01*
Y034D02*
Y03416D01*
X01299D01*
Y034D01*
X01283D01*
Y04032D02*
Y04048D01*
X01299D01*
Y04032D01*
X01283D01*
Y03832D02*
Y03848D01*
X01299D01*
Y03832D01*
X01283D01*
X01281Y044676D02*
Y044836D01*
X01297D01*
Y044676D01*
X01281D01*
Y042676D02*
Y042836D01*
X01297D01*
Y042676D01*
X01281D01*
X03521Y03788D02*
X03525Y03792D01*
X03529D01*
X03525Y03796D01*
X03529Y038D01*
X03525D01*
X03521Y03804D01*
X03517Y038D01*
X03513D01*
X03517Y03796D01*
X03513Y03792D01*
X03517D01*
X03521Y03788D01*
Y03688D02*
X03525Y03692D01*
X03529D01*
X03525Y03696D01*
X03529Y037D01*
X03525D01*
X03521Y03704D01*
X03517Y037D01*
X03513D01*
X03517Y03696D01*
X03513Y03692D01*
X03517D01*
X03521Y03688D01*
Y03588D02*
X03525Y03592D01*
X03529D01*
X03525Y03596D01*
X03529Y036D01*
X03525D01*
X03521Y03604D01*
X03517Y036D01*
X03513D01*
X03517Y03596D01*
X03513Y03592D01*
X03517D01*
X03521Y03588D01*
Y03488D02*
X03525Y03492D01*
X03529D01*
X03525Y03496D01*
X03529Y035D01*
X03525D01*
X03521Y03504D01*
X03517Y035D01*
X03513D01*
X03517Y03496D01*
X03513Y03492D01*
X03517D01*
X03521Y03488D01*
Y03388D02*
X03525Y03392D01*
X03529D01*
X03525Y03396D01*
X03529Y034D01*
X03525D01*
X03521Y03404D01*
X03517Y034D01*
X03513D01*
X03517Y03396D01*
X03513Y03392D01*
X03517D01*
X03521Y03388D01*
Y03288D02*
X03525Y03292D01*
X03529D01*
X03525Y03296D01*
X03529Y033D01*
X03525D01*
X03521Y03304D01*
X03517Y033D01*
X03513D01*
X03517Y03296D01*
X03513Y03292D01*
X03517D01*
X03521Y03288D01*
Y04118D02*
X03525Y04122D01*
X03529D01*
X03525Y04126D01*
X03529Y0413D01*
X03525D01*
X03521Y04134D01*
X03517Y0413D01*
X03513D01*
X03517Y04126D01*
X03513Y04122D01*
X03517D01*
X03521Y04118D01*
Y04218D02*
X03525Y04222D01*
X03529D01*
X03525Y04226D01*
X03529Y0423D01*
X03525D01*
X03521Y04234D01*
X03517Y0423D01*
X03513D01*
X03517Y04226D01*
X03513Y04222D01*
X03517D01*
X03521Y04218D01*
Y04318D02*
X03525Y04322D01*
X03529D01*
X03525Y04326D01*
X03529Y0433D01*
X03525D01*
X03521Y04334D01*
X03517Y0433D01*
X03513D01*
X03517Y04326D01*
X03513Y04322D01*
X03517D01*
X03521Y04318D01*
Y04418D02*
X03525Y04422D01*
X03529D01*
X03525Y04426D01*
X03529Y0443D01*
X03525D01*
X03521Y04434D01*
X03517Y0443D01*
X03513D01*
X03517Y04426D01*
X03513Y04422D01*
X03517D01*
X03521Y04418D01*
X038109Y030629D02*
X038149Y030709D01*
X038109Y030789D01*
X038189Y030749D01*
X038269Y030789D01*
X038229Y030709D01*
X038269Y030629D01*
X038189Y030669D01*
X038109Y030629D01*
X037715Y029841D02*
X037755Y029921D01*
X037715Y030001D01*
X037795Y029961D01*
X037875Y030001D01*
X037835Y029921D01*
X037875Y029841D01*
X037795Y029881D01*
X037715Y029841D01*
X037322Y030629D02*
X037362Y030709D01*
X037322Y030789D01*
X037402Y030749D01*
X037482Y030789D01*
X037442Y030709D01*
X037482Y030629D01*
X037402Y030669D01*
X037322Y030629D01*
X036928Y029841D02*
X036968Y029921D01*
X036928Y030001D01*
X037008Y029961D01*
X037088Y030001D01*
X037048Y029921D01*
X037088Y029841D01*
X037008Y029881D01*
X036928Y029841D01*
X036534Y030629D02*
X036574Y030709D01*
X036534Y030789D01*
X036614Y030749D01*
X036694Y030789D01*
X036654Y030709D01*
X036694Y030629D01*
X036614Y030669D01*
X036534Y030629D01*
X034172D02*
X034212Y030709D01*
X034172Y030789D01*
X034252Y030749D01*
X034332Y030789D01*
X034292Y030709D01*
X034332Y030629D01*
X034252Y030669D01*
X034172Y030629D01*
X033778Y029841D02*
X033818Y029921D01*
X033778Y030001D01*
X033858Y029961D01*
X033938Y030001D01*
X033898Y029921D01*
X033938Y029841D01*
X033858Y029881D01*
X033778Y029841D01*
X033385Y047952D02*
X033425Y048032D01*
X033385Y048112D01*
X033465Y048072D01*
X033545Y048112D01*
X033505Y048032D01*
X033545Y047952D01*
X033465Y047992D01*
X033385Y047952D01*
Y030629D02*
X033425Y030709D01*
X033385Y030789D01*
X033465Y030749D01*
X033545Y030789D01*
X033505Y030709D01*
X033545Y030629D01*
X033465Y030669D01*
X033385Y030629D01*
X032991Y029841D02*
X033031Y029921D01*
X032991Y030001D01*
X033071Y029961D01*
X033151Y030001D01*
X033111Y029921D01*
X033151Y029841D01*
X033071Y029881D01*
X032991Y029841D01*
X032597Y047952D02*
X032637Y048032D01*
X032597Y048112D01*
X032677Y048072D01*
X032757Y048112D01*
X032717Y048032D01*
X032757Y047952D01*
X032677Y047992D01*
X032597Y047952D01*
Y030629D02*
X032637Y030709D01*
X032597Y030789D01*
X032677Y030749D01*
X032757Y030789D01*
X032717Y030709D01*
X032757Y030629D01*
X032677Y030669D01*
X032597Y030629D01*
X032203Y029841D02*
X032243Y029921D01*
X032203Y030001D01*
X032283Y029961D01*
X032363Y030001D01*
X032323Y029921D01*
X032363Y029841D01*
X032283Y029881D01*
X032203Y029841D01*
X03181Y047952D02*
X03185Y048032D01*
X03181Y048112D01*
X03189Y048072D01*
X03197Y048112D01*
X03193Y048032D01*
X03197Y047952D01*
X03189Y047992D01*
X03181Y047952D01*
Y030629D02*
X03185Y030709D01*
X03181Y030789D01*
X03189Y030749D01*
X03197Y030789D01*
X03193Y030709D01*
X03197Y030629D01*
X03189Y030669D01*
X03181Y030629D01*
X031416Y029841D02*
X031456Y029921D01*
X031416Y030001D01*
X031496Y029961D01*
X031576Y030001D01*
X031536Y029921D01*
X031576Y029841D01*
X031496Y029881D01*
X031416Y029841D01*
X031022Y047952D02*
X031062Y048032D01*
X031022Y048112D01*
X031102Y048072D01*
X031182Y048112D01*
X031142Y048032D01*
X031182Y047952D01*
X031102Y047992D01*
X031022Y047952D01*
Y030629D02*
X031062Y030709D01*
X031022Y030789D01*
X031102Y030749D01*
X031182Y030789D01*
X031142Y030709D01*
X031182Y030629D01*
X031102Y030669D01*
X031022Y030629D01*
X030629Y029841D02*
X030669Y029921D01*
X030629Y030001D01*
X030709Y029961D01*
X030789Y030001D01*
X030749Y029921D01*
X030789Y029841D01*
X030709Y029881D01*
X030629Y029841D01*
X030235Y047952D02*
X030275Y048032D01*
X030235Y048112D01*
X030315Y048072D01*
X030395Y048112D01*
X030355Y048032D01*
X030395Y047952D01*
X030315Y047992D01*
X030235Y047952D01*
Y030629D02*
X030275Y030709D01*
X030235Y030789D01*
X030315Y030749D01*
X030395Y030789D01*
X030355Y030709D01*
X030395Y030629D01*
X030315Y030669D01*
X030235Y030629D01*
X029841Y029841D02*
X029881Y029921D01*
X029841Y030001D01*
X029921Y029961D01*
X030001Y030001D01*
X029961Y029921D01*
X030001Y029841D01*
X029921Y029881D01*
X029841Y029841D01*
X029448Y047952D02*
X029488Y048032D01*
X029448Y048112D01*
X029528Y048072D01*
X029608Y048112D01*
X029568Y048032D01*
X029608Y047952D01*
X029528Y047992D01*
X029448Y047952D01*
Y030629D02*
X029488Y030709D01*
X029448Y030789D01*
X029528Y030749D01*
X029608Y030789D01*
X029568Y030709D01*
X029608Y030629D01*
X029528Y030669D01*
X029448Y030629D01*
X029054Y029841D02*
X029094Y029921D01*
X029054Y030001D01*
X029134Y029961D01*
X029214Y030001D01*
X029174Y029921D01*
X029214Y029841D01*
X029134Y029881D01*
X029054Y029841D01*
X02866Y047952D02*
X0287Y048032D01*
X02866Y048112D01*
X02874Y048072D01*
X02882Y048112D01*
X02878Y048032D01*
X02882Y047952D01*
X02874Y047992D01*
X02866Y047952D01*
Y030629D02*
X0287Y030709D01*
X02866Y030789D01*
X02874Y030749D01*
X02882Y030789D01*
X02878Y030709D01*
X02882Y030629D01*
X02874Y030669D01*
X02866Y030629D01*
X028266Y029841D02*
X028306Y029921D01*
X028266Y030001D01*
X028346Y029961D01*
X028426Y030001D01*
X028386Y029921D01*
X028426Y029841D01*
X028346Y029881D01*
X028266Y029841D01*
X027873Y047952D02*
X027913Y048032D01*
X027873Y048112D01*
X027953Y048072D01*
X028033Y048112D01*
X027993Y048032D01*
X028033Y047952D01*
X027953Y047992D01*
X027873Y047952D01*
X027479Y031416D02*
X027519Y031496D01*
X027479Y031576D01*
X027559Y031536D01*
X027639Y031576D01*
X027599Y031496D01*
X027639Y031416D01*
X027559Y031456D01*
X027479Y031416D01*
X027873Y030629D02*
X027913Y030709D01*
X027873Y030789D01*
X027953Y030749D01*
X028033Y030789D01*
X027993Y030709D01*
X028033Y030629D01*
X027953Y030669D01*
X027873Y030629D01*
X027479Y029841D02*
X027519Y029921D01*
X027479Y030001D01*
X027559Y029961D01*
X027639Y030001D01*
X027599Y029921D01*
X027639Y029841D01*
X027559Y029881D01*
X027479Y029841D01*
X027085Y047952D02*
X027125Y048032D01*
X027085Y048112D01*
X027165Y048072D01*
X027245Y048112D01*
X027205Y048032D01*
X027245Y047952D01*
X027165Y047992D01*
X027085Y047952D01*
X026692Y031416D02*
X026732Y031496D01*
X026692Y031576D01*
X026772Y031536D01*
X026852Y031576D01*
X026812Y031496D01*
X026852Y031416D01*
X026772Y031456D01*
X026692Y031416D01*
X027085Y030629D02*
X027125Y030709D01*
X027085Y030789D01*
X027165Y030749D01*
X027245Y030789D01*
X027205Y030709D01*
X027245Y030629D01*
X027165Y030669D01*
X027085Y030629D01*
X026692Y029841D02*
X026732Y029921D01*
X026692Y030001D01*
X026772Y029961D01*
X026852Y030001D01*
X026812Y029921D01*
X026852Y029841D01*
X026772Y029881D01*
X026692Y029841D01*
X026298Y047952D02*
X026338Y048032D01*
X026298Y048112D01*
X026378Y048072D01*
X026458Y048112D01*
X026418Y048032D01*
X026458Y047952D01*
X026378Y047992D01*
X026298Y047952D01*
X025904Y032991D02*
X025944Y033071D01*
X025904Y033151D01*
X025984Y033111D01*
X026064Y033151D01*
X026024Y033071D01*
X026064Y032991D01*
X025984Y033031D01*
X025904Y032991D01*
X026298Y032203D02*
X026338Y032283D01*
X026298Y032363D01*
X026378Y032323D01*
X026458Y032363D01*
X026418Y032283D01*
X026458Y032203D01*
X026378Y032243D01*
X026298Y032203D01*
X025904Y031416D02*
X025944Y031496D01*
X025904Y031576D01*
X025984Y031536D01*
X026064Y031576D01*
X026024Y031496D01*
X026064Y031416D01*
X025984Y031456D01*
X025904Y031416D01*
X026298Y030629D02*
X026338Y030709D01*
X026298Y030789D01*
X026378Y030749D01*
X026458Y030789D01*
X026418Y030709D01*
X026458Y030629D01*
X026378Y030669D01*
X026298Y030629D01*
X025904Y029841D02*
X025944Y029921D01*
X025904Y030001D01*
X025984Y029961D01*
X026064Y030001D01*
X026024Y029921D01*
X026064Y029841D01*
X025984Y029881D01*
X025904Y029841D01*
X025511Y047952D02*
X025551Y048032D01*
X025511Y048112D01*
X025591Y048072D01*
X025671Y048112D01*
X025631Y048032D01*
X025671Y047952D01*
X025591Y047992D01*
X025511Y047952D01*
X025117Y032991D02*
X025157Y033071D01*
X025117Y033151D01*
X025197Y033111D01*
X025277Y033151D01*
X025237Y033071D01*
X025277Y032991D01*
X025197Y033031D01*
X025117Y032991D01*
X025511Y032203D02*
X025551Y032283D01*
X025511Y032363D01*
X025591Y032323D01*
X025671Y032363D01*
X025631Y032283D01*
X025671Y032203D01*
X025591Y032243D01*
X025511Y032203D01*
X025117Y031416D02*
X025157Y031496D01*
X025117Y031576D01*
X025197Y031536D01*
X025277Y031576D01*
X025237Y031496D01*
X025277Y031416D01*
X025197Y031456D01*
X025117Y031416D01*
X025511Y030629D02*
X025551Y030709D01*
X025511Y030789D01*
X025591Y030749D01*
X025671Y030789D01*
X025631Y030709D01*
X025671Y030629D01*
X025591Y030669D01*
X025511Y030629D01*
X025117Y029841D02*
X025157Y029921D01*
X025117Y030001D01*
X025197Y029961D01*
X025277Y030001D01*
X025237Y029921D01*
X025277Y029841D01*
X025197Y029881D01*
X025117Y029841D01*
X024723Y047952D02*
X024763Y048032D01*
X024723Y048112D01*
X024803Y048072D01*
X024883Y048112D01*
X024843Y048032D01*
X024883Y047952D01*
X024803Y047992D01*
X024723Y047952D01*
X024329Y047164D02*
X024369Y047244D01*
X024329Y047324D01*
X024409Y047284D01*
X024489Y047324D01*
X024449Y047244D01*
X024489Y047164D01*
X024409Y047204D01*
X024329Y047164D01*
Y032991D02*
X024369Y033071D01*
X024329Y033151D01*
X024409Y033111D01*
X024489Y033151D01*
X024449Y033071D01*
X024489Y032991D01*
X024409Y033031D01*
X024329Y032991D01*
X024723Y032203D02*
X024763Y032283D01*
X024723Y032363D01*
X024803Y032323D01*
X024883Y032363D01*
X024843Y032283D01*
X024883Y032203D01*
X024803Y032243D01*
X024723Y032203D01*
X024329Y031416D02*
X024369Y031496D01*
X024329Y031576D01*
X024409Y031536D01*
X024489Y031576D01*
X024449Y031496D01*
X024489Y031416D01*
X024409Y031456D01*
X024329Y031416D01*
X024723Y030629D02*
X024763Y030709D01*
X024723Y030789D01*
X024803Y030749D01*
X024883Y030789D01*
X024843Y030709D01*
X024883Y030629D01*
X024803Y030669D01*
X024723Y030629D01*
X024329Y029841D02*
X024369Y029921D01*
X024329Y030001D01*
X024409Y029961D01*
X024489Y030001D01*
X024449Y029921D01*
X024489Y029841D01*
X024409Y029881D01*
X024329Y029841D01*
X023936Y047952D02*
X023976Y048032D01*
X023936Y048112D01*
X024016Y048072D01*
X024096Y048112D01*
X024056Y048032D01*
X024096Y047952D01*
X024016Y047992D01*
X023936Y047952D01*
X023542Y047164D02*
X023582Y047244D01*
X023542Y047324D01*
X023622Y047284D01*
X023702Y047324D01*
X023662Y047244D01*
X023702Y047164D01*
X023622Y047204D01*
X023542Y047164D01*
X023936Y046377D02*
X023976Y046457D01*
X023936Y046537D01*
X024016Y046497D01*
X024096Y046537D01*
X024056Y046457D01*
X024096Y046377D01*
X024016Y046417D01*
X023936Y046377D01*
X023542Y032991D02*
X023582Y033071D01*
X023542Y033151D01*
X023622Y033111D01*
X023702Y033151D01*
X023662Y033071D01*
X023702Y032991D01*
X023622Y033031D01*
X023542Y032991D01*
X023936Y032203D02*
X023976Y032283D01*
X023936Y032363D01*
X024016Y032323D01*
X024096Y032363D01*
X024056Y032283D01*
X024096Y032203D01*
X024016Y032243D01*
X023936Y032203D01*
X023542Y031416D02*
X023582Y031496D01*
X023542Y031576D01*
X023622Y031536D01*
X023702Y031576D01*
X023662Y031496D01*
X023702Y031416D01*
X023622Y031456D01*
X023542Y031416D01*
X023936Y030629D02*
X023976Y030709D01*
X023936Y030789D01*
X024016Y030749D01*
X024096Y030789D01*
X024056Y030709D01*
X024096Y030629D01*
X024016Y030669D01*
X023936Y030629D01*
X023542Y029841D02*
X023582Y029921D01*
X023542Y030001D01*
X023622Y029961D01*
X023702Y030001D01*
X023662Y029921D01*
X023702Y029841D01*
X023622Y029881D01*
X023542Y029841D01*
X023148Y047952D02*
X023188Y048032D01*
X023148Y048112D01*
X023228Y048072D01*
X023308Y048112D01*
X023268Y048032D01*
X023308Y047952D01*
X023228Y047992D01*
X023148Y047952D01*
X022755Y047164D02*
X022795Y047244D01*
X022755Y047324D01*
X022835Y047284D01*
X022915Y047324D01*
X022875Y047244D01*
X022915Y047164D01*
X022835Y047204D01*
X022755Y047164D01*
X023148Y046377D02*
X023188Y046457D01*
X023148Y046537D01*
X023228Y046497D01*
X023308Y046537D01*
X023268Y046457D01*
X023308Y046377D01*
X023228Y046417D01*
X023148Y046377D01*
X022755Y032991D02*
X022795Y033071D01*
X022755Y033151D01*
X022835Y033111D01*
X022915Y033151D01*
X022875Y033071D01*
X022915Y032991D01*
X022835Y033031D01*
X022755Y032991D01*
X023148Y032203D02*
X023188Y032283D01*
X023148Y032363D01*
X023228Y032323D01*
X023308Y032363D01*
X023268Y032283D01*
X023308Y032203D01*
X023228Y032243D01*
X023148Y032203D01*
X022755Y031416D02*
X022795Y031496D01*
X022755Y031576D01*
X022835Y031536D01*
X022915Y031576D01*
X022875Y031496D01*
X022915Y031416D01*
X022835Y031456D01*
X022755Y031416D01*
X023148Y030629D02*
X023188Y030709D01*
X023148Y030789D01*
X023228Y030749D01*
X023308Y030789D01*
X023268Y030709D01*
X023308Y030629D01*
X023228Y030669D01*
X023148Y030629D01*
X022755Y029841D02*
X022795Y029921D01*
X022755Y030001D01*
X022835Y029961D01*
X022915Y030001D01*
X022875Y029921D01*
X022915Y029841D01*
X022835Y029881D01*
X022755Y029841D01*
X022361Y047952D02*
X022401Y048032D01*
X022361Y048112D01*
X022441Y048072D01*
X022521Y048112D01*
X022481Y048032D01*
X022521Y047952D01*
X022441Y047992D01*
X022361Y047952D01*
X021967Y047164D02*
X022007Y047244D01*
X021967Y047324D01*
X022047Y047284D01*
X022127Y047324D01*
X022087Y047244D01*
X022127Y047164D01*
X022047Y047204D01*
X021967Y047164D01*
X022361Y046377D02*
X022401Y046457D01*
X022361Y046537D01*
X022441Y046497D01*
X022521Y046537D01*
X022481Y046457D01*
X022521Y046377D01*
X022441Y046417D01*
X022361Y046377D01*
X021967Y032991D02*
X022007Y033071D01*
X021967Y033151D01*
X022047Y033111D01*
X022127Y033151D01*
X022087Y033071D01*
X022127Y032991D01*
X022047Y033031D01*
X021967Y032991D01*
X022361Y032203D02*
X022401Y032283D01*
X022361Y032363D01*
X022441Y032323D01*
X022521Y032363D01*
X022481Y032283D01*
X022521Y032203D01*
X022441Y032243D01*
X022361Y032203D01*
X021967Y031416D02*
X022007Y031496D01*
X021967Y031576D01*
X022047Y031536D01*
X022127Y031576D01*
X022087Y031496D01*
X022127Y031416D01*
X022047Y031456D01*
X021967Y031416D01*
X022361Y030629D02*
X022401Y030709D01*
X022361Y030789D01*
X022441Y030749D01*
X022521Y030789D01*
X022481Y030709D01*
X022521Y030629D01*
X022441Y030669D01*
X022361Y030629D01*
X021967Y029841D02*
X022007Y029921D01*
X021967Y030001D01*
X022047Y029961D01*
X022127Y030001D01*
X022087Y029921D01*
X022127Y029841D01*
X022047Y029881D01*
X021967Y029841D01*
X021574Y047952D02*
X021614Y048032D01*
X021574Y048112D01*
X021654Y048072D01*
X021734Y048112D01*
X021694Y048032D01*
X021734Y047952D01*
X021654Y047992D01*
X021574Y047952D01*
X02118Y047164D02*
X02122Y047244D01*
X02118Y047324D01*
X02126Y047284D01*
X02134Y047324D01*
X0213Y047244D01*
X02134Y047164D01*
X02126Y047204D01*
X02118Y047164D01*
X021574Y046377D02*
X021614Y046457D01*
X021574Y046537D01*
X021654Y046497D01*
X021734Y046537D01*
X021694Y046457D01*
X021734Y046377D01*
X021654Y046417D01*
X021574Y046377D01*
X02118Y032991D02*
X02122Y033071D01*
X02118Y033151D01*
X02126Y033111D01*
X02134Y033151D01*
X0213Y033071D01*
X02134Y032991D01*
X02126Y033031D01*
X02118Y032991D01*
X021574Y032203D02*
X021614Y032283D01*
X021574Y032363D01*
X021654Y032323D01*
X021734Y032363D01*
X021694Y032283D01*
X021734Y032203D01*
X021654Y032243D01*
X021574Y032203D01*
X02118Y031416D02*
X02122Y031496D01*
X02118Y031576D01*
X02126Y031536D01*
X02134Y031576D01*
X0213Y031496D01*
X02134Y031416D01*
X02126Y031456D01*
X02118Y031416D01*
X021574Y030629D02*
X021614Y030709D01*
X021574Y030789D01*
X021654Y030749D01*
X021734Y030789D01*
X021694Y030709D01*
X021734Y030629D01*
X021654Y030669D01*
X021574Y030629D01*
X02118Y029841D02*
X02122Y029921D01*
X02118Y030001D01*
X02126Y029961D01*
X02134Y030001D01*
X0213Y029921D01*
X02134Y029841D01*
X02126Y029881D01*
X02118Y029841D01*
X020786Y047952D02*
X020826Y048032D01*
X020786Y048112D01*
X020866Y048072D01*
X020946Y048112D01*
X020906Y048032D01*
X020946Y047952D01*
X020866Y047992D01*
X020786Y047952D01*
X020392Y047164D02*
X020432Y047244D01*
X020392Y047324D01*
X020472Y047284D01*
X020552Y047324D01*
X020512Y047244D01*
X020552Y047164D01*
X020472Y047204D01*
X020392Y047164D01*
X020786Y046377D02*
X020826Y046457D01*
X020786Y046537D01*
X020866Y046497D01*
X020946Y046537D01*
X020906Y046457D01*
X020946Y046377D01*
X020866Y046417D01*
X020786Y046377D01*
Y032203D02*
X020826Y032283D01*
X020786Y032363D01*
X020866Y032323D01*
X020946Y032363D01*
X020906Y032283D01*
X020946Y032203D01*
X020866Y032243D01*
X020786Y032203D01*
X020392Y031416D02*
X020432Y031496D01*
X020392Y031576D01*
X020472Y031536D01*
X020552Y031576D01*
X020512Y031496D01*
X020552Y031416D01*
X020472Y031456D01*
X020392Y031416D01*
X020786Y030629D02*
X020826Y030709D01*
X020786Y030789D01*
X020866Y030749D01*
X020946Y030789D01*
X020906Y030709D01*
X020946Y030629D01*
X020866Y030669D01*
X020786Y030629D01*
X020392Y029841D02*
X020432Y029921D01*
X020392Y030001D01*
X020472Y029961D01*
X020552Y030001D01*
X020512Y029921D01*
X020552Y029841D01*
X020472Y029881D01*
X020392Y029841D01*
X019999Y047952D02*
X020039Y048032D01*
X019999Y048112D01*
X020079Y048072D01*
X020159Y048112D01*
X020119Y048032D01*
X020159Y047952D01*
X020079Y047992D01*
X019999Y047952D01*
X019605Y047164D02*
X019645Y047244D01*
X019605Y047324D01*
X019685Y047284D01*
X019765Y047324D01*
X019725Y047244D01*
X019765Y047164D01*
X019685Y047204D01*
X019605Y047164D01*
X019999Y046377D02*
X020039Y046457D01*
X019999Y046537D01*
X020079Y046497D01*
X020159Y046537D01*
X020119Y046457D01*
X020159Y046377D01*
X020079Y046417D01*
X019999Y046377D01*
Y032203D02*
X020039Y032283D01*
X019999Y032363D01*
X020079Y032323D01*
X020159Y032363D01*
X020119Y032283D01*
X020159Y032203D01*
X020079Y032243D01*
X019999Y032203D01*
X019605Y031416D02*
X019645Y031496D01*
X019605Y031576D01*
X019685Y031536D01*
X019765Y031576D01*
X019725Y031496D01*
X019765Y031416D01*
X019685Y031456D01*
X019605Y031416D01*
X019999Y030629D02*
X020039Y030709D01*
X019999Y030789D01*
X020079Y030749D01*
X020159Y030789D01*
X020119Y030709D01*
X020159Y030629D01*
X020079Y030669D01*
X019999Y030629D01*
X019605Y029841D02*
X019645Y029921D01*
X019605Y030001D01*
X019685Y029961D01*
X019765Y030001D01*
X019725Y029921D01*
X019765Y029841D01*
X019685Y029881D01*
X019605Y029841D01*
X019211Y047952D02*
X019251Y048032D01*
X019211Y048112D01*
X019291Y048072D01*
X019371Y048112D01*
X019331Y048032D01*
X019371Y047952D01*
X019291Y047992D01*
X019211Y047952D01*
X018818Y047164D02*
X018858Y047244D01*
X018818Y047324D01*
X018898Y047284D01*
X018978Y047324D01*
X018938Y047244D01*
X018978Y047164D01*
X018898Y047204D01*
X018818Y047164D01*
X019211Y046377D02*
X019251Y046457D01*
X019211Y046537D01*
X019291Y046497D01*
X019371Y046537D01*
X019331Y046457D01*
X019371Y046377D01*
X019291Y046417D01*
X019211Y046377D01*
Y032203D02*
X019251Y032283D01*
X019211Y032363D01*
X019291Y032323D01*
X019371Y032363D01*
X019331Y032283D01*
X019371Y032203D01*
X019291Y032243D01*
X019211Y032203D01*
X018818Y031416D02*
X018858Y031496D01*
X018818Y031576D01*
X018898Y031536D01*
X018978Y031576D01*
X018938Y031496D01*
X018978Y031416D01*
X018898Y031456D01*
X018818Y031416D01*
X019211Y030629D02*
X019251Y030709D01*
X019211Y030789D01*
X019291Y030749D01*
X019371Y030789D01*
X019331Y030709D01*
X019371Y030629D01*
X019291Y030669D01*
X019211Y030629D01*
X018818Y029841D02*
X018858Y029921D01*
X018818Y030001D01*
X018898Y029961D01*
X018978Y030001D01*
X018938Y029921D01*
X018978Y029841D01*
X018898Y029881D01*
X018818Y029841D01*
X018424Y047952D02*
X018464Y048032D01*
X018424Y048112D01*
X018504Y048072D01*
X018584Y048112D01*
X018544Y048032D01*
X018584Y047952D01*
X018504Y047992D01*
X018424Y047952D01*
X01803Y047164D02*
X01807Y047244D01*
X01803Y047324D01*
X01811Y047284D01*
X01819Y047324D01*
X01815Y047244D01*
X01819Y047164D01*
X01811Y047204D01*
X01803Y047164D01*
X018424Y046377D02*
X018464Y046457D01*
X018424Y046537D01*
X018504Y046497D01*
X018584Y046537D01*
X018544Y046457D01*
X018584Y046377D01*
X018504Y046417D01*
X018424Y046377D01*
Y032203D02*
X018464Y032283D01*
X018424Y032363D01*
X018504Y032323D01*
X018584Y032363D01*
X018544Y032283D01*
X018584Y032203D01*
X018504Y032243D01*
X018424Y032203D01*
X01803Y031416D02*
X01807Y031496D01*
X01803Y031576D01*
X01811Y031536D01*
X01819Y031576D01*
X01815Y031496D01*
X01819Y031416D01*
X01811Y031456D01*
X01803Y031416D01*
X018424Y030629D02*
X018464Y030709D01*
X018424Y030789D01*
X018504Y030749D01*
X018584Y030789D01*
X018544Y030709D01*
X018584Y030629D01*
X018504Y030669D01*
X018424Y030629D01*
X01803Y029841D02*
X01807Y029921D01*
X01803Y030001D01*
X01811Y029961D01*
X01819Y030001D01*
X01815Y029921D01*
X01819Y029841D01*
X01811Y029881D01*
X01803Y029841D01*
X017637Y047952D02*
X017677Y048032D01*
X017637Y048112D01*
X017717Y048072D01*
X017797Y048112D01*
X017757Y048032D01*
X017797Y047952D01*
X017717Y047992D01*
X017637Y047952D01*
X017243Y047164D02*
X017283Y047244D01*
X017243Y047324D01*
X017323Y047284D01*
X017403Y047324D01*
X017363Y047244D01*
X017403Y047164D01*
X017323Y047204D01*
X017243Y047164D01*
X017637Y046377D02*
X017677Y046457D01*
X017637Y046537D01*
X017717Y046497D01*
X017797Y046537D01*
X017757Y046457D01*
X017797Y046377D01*
X017717Y046417D01*
X017637Y046377D01*
Y032203D02*
X017677Y032283D01*
X017637Y032363D01*
X017717Y032323D01*
X017797Y032363D01*
X017757Y032283D01*
X017797Y032203D01*
X017717Y032243D01*
X017637Y032203D01*
X017243Y031416D02*
X017283Y031496D01*
X017243Y031576D01*
X017323Y031536D01*
X017403Y031576D01*
X017363Y031496D01*
X017403Y031416D01*
X017323Y031456D01*
X017243Y031416D01*
X017637Y030629D02*
X017677Y030709D01*
X017637Y030789D01*
X017717Y030749D01*
X017797Y030789D01*
X017757Y030709D01*
X017797Y030629D01*
X017717Y030669D01*
X017637Y030629D01*
X017243Y029841D02*
X017283Y029921D01*
X017243Y030001D01*
X017323Y029961D01*
X017403Y030001D01*
X017363Y029921D01*
X017403Y029841D01*
X017323Y029881D01*
X017243Y029841D01*
X016849Y047952D02*
X016889Y048032D01*
X016849Y048112D01*
X016929Y048072D01*
X017009Y048112D01*
X016969Y048032D01*
X017009Y047952D01*
X016929Y047992D01*
X016849Y047952D01*
X016455Y047164D02*
X016495Y047244D01*
X016455Y047324D01*
X016535Y047284D01*
X016615Y047324D01*
X016575Y047244D01*
X016615Y047164D01*
X016535Y047204D01*
X016455Y047164D01*
X016849Y046377D02*
X016889Y046457D01*
X016849Y046537D01*
X016929Y046497D01*
X017009Y046537D01*
X016969Y046457D01*
X017009Y046377D01*
X016929Y046417D01*
X016849Y046377D01*
Y030629D02*
X016889Y030709D01*
X016849Y030789D01*
X016929Y030749D01*
X017009Y030789D01*
X016969Y030709D01*
X017009Y030629D01*
X016929Y030669D01*
X016849Y030629D01*
X016455Y029841D02*
X016495Y029921D01*
X016455Y030001D01*
X016535Y029961D01*
X016615Y030001D01*
X016575Y029921D01*
X016615Y029841D01*
X016535Y029881D01*
X016455Y029841D01*
X016062Y047952D02*
X016102Y048032D01*
X016062Y048112D01*
X016142Y048072D01*
X016222Y048112D01*
X016182Y048032D01*
X016222Y047952D01*
X016142Y047992D01*
X016062Y047952D01*
X015668Y047164D02*
X015708Y047244D01*
X015668Y047324D01*
X015748Y047284D01*
X015828Y047324D01*
X015788Y047244D01*
X015828Y047164D01*
X015748Y047204D01*
X015668Y047164D01*
X016062Y046377D02*
X016102Y046457D01*
X016062Y046537D01*
X016142Y046497D01*
X016222Y046537D01*
X016182Y046457D01*
X016222Y046377D01*
X016142Y046417D01*
X016062Y046377D01*
Y030629D02*
X016102Y030709D01*
X016062Y030789D01*
X016142Y030749D01*
X016222Y030789D01*
X016182Y030709D01*
X016222Y030629D01*
X016142Y030669D01*
X016062Y030629D01*
X015668Y029841D02*
X015708Y029921D01*
X015668Y030001D01*
X015748Y029961D01*
X015828Y030001D01*
X015788Y029921D01*
X015828Y029841D01*
X015748Y029881D01*
X015668Y029841D01*
X015274Y047952D02*
X015314Y048032D01*
X015274Y048112D01*
X015354Y048072D01*
X015434Y048112D01*
X015394Y048032D01*
X015434Y047952D01*
X015354Y047992D01*
X015274Y047952D01*
X014881Y047164D02*
X014921Y047244D01*
X014881Y047324D01*
X014961Y047284D01*
X015041Y047324D01*
X015001Y047244D01*
X015041Y047164D01*
X014961Y047204D01*
X014881Y047164D01*
X015274Y046377D02*
X015314Y046457D01*
X015274Y046537D01*
X015354Y046497D01*
X015434Y046537D01*
X015394Y046457D01*
X015434Y046377D01*
X015354Y046417D01*
X015274Y046377D01*
Y030629D02*
X015314Y030709D01*
X015274Y030789D01*
X015354Y030749D01*
X015434Y030789D01*
X015394Y030709D01*
X015434Y030629D01*
X015354Y030669D01*
X015274Y030629D01*
X014881Y029841D02*
X014921Y029921D01*
X014881Y030001D01*
X014961Y029961D01*
X015041Y030001D01*
X015001Y029921D01*
X015041Y029841D01*
X014961Y029881D01*
X014881Y029841D01*
X014487Y047952D02*
X014527Y048032D01*
X014487Y048112D01*
X014567Y048072D01*
X014647Y048112D01*
X014607Y048032D01*
X014647Y047952D01*
X014567Y047992D01*
X014487Y047952D01*
X014093Y047164D02*
X014133Y047244D01*
X014093Y047324D01*
X014173Y047284D01*
X014253Y047324D01*
X014213Y047244D01*
X014253Y047164D01*
X014173Y047204D01*
X014093Y047164D01*
X014487Y046377D02*
X014527Y046457D01*
X014487Y046537D01*
X014567Y046497D01*
X014647Y046537D01*
X014607Y046457D01*
X014647Y046377D01*
X014567Y046417D01*
X014487Y046377D01*
Y030629D02*
X014527Y030709D01*
X014487Y030789D01*
X014567Y030749D01*
X014647Y030789D01*
X014607Y030709D01*
X014647Y030629D01*
X014567Y030669D01*
X014487Y030629D01*
X014093Y029841D02*
X014133Y029921D01*
X014093Y030001D01*
X014173Y029961D01*
X014253Y030001D01*
X014213Y029921D01*
X014253Y029841D01*
X014173Y029881D01*
X014093Y029841D01*
X0137Y047952D02*
X01374Y048032D01*
X0137Y048112D01*
X01378Y048072D01*
X01386Y048112D01*
X01382Y048032D01*
X01386Y047952D01*
X01378Y047992D01*
X0137Y047952D01*
X013306Y047164D02*
X013346Y047244D01*
X013306Y047324D01*
X013386Y047284D01*
X013466Y047324D01*
X013426Y047244D01*
X013466Y047164D01*
X013386Y047204D01*
X013306Y047164D01*
X0137Y046377D02*
X01374Y046457D01*
X0137Y046537D01*
X01378Y046497D01*
X01386Y046537D01*
X01382Y046457D01*
X01386Y046377D01*
X01378Y046417D01*
X0137Y046377D01*
Y030629D02*
X01374Y030709D01*
X0137Y030789D01*
X01378Y030749D01*
X01386Y030789D01*
X01382Y030709D01*
X01386Y030629D01*
X01378Y030669D01*
X0137Y030629D01*
X013306Y029841D02*
X013346Y029921D01*
X013306Y030001D01*
X013386Y029961D01*
X013466Y030001D01*
X013426Y029921D01*
X013466Y029841D01*
X013386Y029881D01*
X013306Y029841D01*
X012912Y047952D02*
X012952Y048032D01*
X012912Y048112D01*
X012992Y048072D01*
X013072Y048112D01*
X013032Y048032D01*
X013072Y047952D01*
X012992Y047992D01*
X012912Y047952D01*
X012518Y047164D02*
X012558Y047244D01*
X012518Y047324D01*
X012598Y047284D01*
X012678Y047324D01*
X012638Y047244D01*
X012678Y047164D01*
X012598Y047204D01*
X012518Y047164D01*
X012912Y046377D02*
X012952Y046457D01*
X012912Y046537D01*
X012992Y046497D01*
X013072Y046537D01*
X013032Y046457D01*
X013072Y046377D01*
X012992Y046417D01*
X012912Y046377D01*
X012518Y031416D02*
X012558Y031496D01*
X012518Y031576D01*
X012598Y031536D01*
X012678Y031576D01*
X012638Y031496D01*
X012678Y031416D01*
X012598Y031456D01*
X012518Y031416D01*
X012912Y030629D02*
X012952Y030709D01*
X012912Y030789D01*
X012992Y030749D01*
X013072Y030789D01*
X013032Y030709D01*
X013072Y030629D01*
X012992Y030669D01*
X012912Y030629D01*
X012518Y029841D02*
X012558Y029921D01*
X012518Y030001D01*
X012598Y029961D01*
X012678Y030001D01*
X012638Y029921D01*
X012678Y029841D01*
X012598Y029881D01*
X012518Y029841D01*
X012125Y046377D02*
X012165Y046457D01*
X012125Y046537D01*
X012205Y046497D01*
X012285Y046537D01*
X012245Y046457D01*
X012285Y046377D01*
X012205Y046417D01*
X012125Y046377D01*
Y032203D02*
X012165Y032283D01*
X012125Y032363D01*
X012205Y032323D01*
X012285Y032363D01*
X012245Y032283D01*
X012285Y032203D01*
X012205Y032243D01*
X012125Y032203D01*
X011731Y031416D02*
X011771Y031496D01*
X011731Y031576D01*
X011811Y031536D01*
X011891Y031576D01*
X011851Y031496D01*
X011891Y031416D01*
X011811Y031456D01*
X011731Y031416D01*
X01161Y03638D02*
Y03634D01*
X01169D01*
Y03638D01*
X01173D01*
Y03646D01*
X01169D01*
Y0365D01*
X01161D01*
Y03646D01*
X01157D01*
Y03638D01*
X01161D01*
X01384Y0328D02*
Y03276D01*
X01392D01*
Y0328D01*
X01396D01*
Y03288D01*
X01392D01*
Y03292D01*
X01384D01*
Y03288D01*
X0138D01*
Y0328D01*
X01384D01*
X03525Y03013D02*
X03529D01*
X03533Y03017D01*
X03537Y03013D01*
X03541D01*
Y03017D01*
X03537Y03021D01*
X03541Y03025D01*
Y03029D01*
X03537D01*
X03533Y03025D01*
X03529Y03029D01*
X03525D01*
Y03025D01*
X03529Y03021D01*
X03525Y03017D01*
Y03013D01*
X01148D02*
X01152D01*
X01156Y03017D01*
X0116Y03013D01*
X01164D01*
Y03017D01*
X0116Y03021D01*
X01164Y03025D01*
Y03029D01*
X0116D01*
X01156Y03025D01*
X01152Y03029D01*
X01148D01*
Y03025D01*
X01152Y03021D01*
X01148Y03017D01*
Y03013D01*
X03525Y04779D02*
X03529D01*
X03533Y04783D01*
X03537Y04779D01*
X03541D01*
Y04783D01*
X03537Y04787D01*
X03541Y04791D01*
Y04795D01*
X03537D01*
X03533Y04791D01*
X03529Y04795D01*
X03525D01*
Y04791D01*
X03529Y04787D01*
X03525Y04783D01*
Y04779D01*
X01148D02*
X01152D01*
X01156Y04783D01*
X0116Y04779D01*
X01164D01*
Y04783D01*
X0116Y04787D01*
X01164Y04791D01*
Y04795D01*
X0116D01*
X01156Y04791D01*
X01152Y04795D01*
X01148D01*
Y04791D01*
X01152Y04787D01*
X01148Y04783D01*
Y04779D01*
X02316Y04123D02*
Y04119D01*
X02324D01*
Y04123D01*
X02328D01*
Y04131D01*
X02324D01*
Y04135D01*
X02316D01*
Y04131D01*
X02312D01*
Y04123D01*
X02316D01*
X02207Y03533D02*
Y03529D01*
X02215D01*
Y03533D01*
X02219D01*
Y03541D01*
X02215D01*
Y03545D01*
X02207D01*
Y03541D01*
X02203D01*
Y03533D01*
X02207D01*
X02698Y03687D02*
Y03683D01*
X02706D01*
Y03687D01*
X0271D01*
Y03695D01*
X02706D01*
Y03699D01*
X02698D01*
Y03695D01*
X02694D01*
Y03687D01*
X02698D01*
X02697Y036225D02*
Y036185D01*
X02705D01*
Y036225D01*
X02709D01*
Y036305D01*
X02705D01*
Y036345D01*
X02697D01*
Y036305D01*
X02693D01*
Y036225D01*
X02697D01*
X03219Y03448D02*
Y03444D01*
X03227D01*
Y03448D01*
X03231D01*
Y03456D01*
X03227D01*
Y0346D01*
X03219D01*
Y03456D01*
X03215D01*
Y03448D01*
X03219D01*
X030555Y038615D02*
Y038575D01*
X030635D01*
Y038615D01*
X030675D01*
Y038695D01*
X030635D01*
Y038735D01*
X030555D01*
Y038695D01*
X030515D01*
Y038615D01*
X030555D01*
X03086Y03566D02*
Y03562D01*
X03094D01*
Y03566D01*
X03098D01*
Y03574D01*
X03094D01*
Y03578D01*
X03086D01*
Y03574D01*
X03082D01*
Y03566D01*
X03086D01*
X030555Y04096D02*
Y04092D01*
X030635D01*
Y04096D01*
X030675D01*
Y04104D01*
X030635D01*
Y04108D01*
X030555D01*
Y04104D01*
X030515D01*
Y04096D01*
X030555D01*
X03131Y03448D02*
Y03444D01*
X03139D01*
Y03448D01*
X03143D01*
Y03456D01*
X03139D01*
Y0346D01*
X03131D01*
Y03456D01*
X03127D01*
Y03448D01*
X03131D01*
X03308Y04438D02*
Y04434D01*
X03316D01*
Y04438D01*
X0332D01*
Y04446D01*
X03316D01*
Y0445D01*
X03308D01*
Y04446D01*
X03304D01*
Y04438D01*
X03308D01*
X02449Y04154D02*
Y0415D01*
X02457D01*
Y04154D01*
X02461D01*
Y04162D01*
X02457D01*
Y04166D01*
X02449D01*
Y04162D01*
X02445D01*
Y04154D01*
X02449D01*
X027953Y03885D02*
Y03881D01*
X028033D01*
Y03885D01*
X028073D01*
Y03893D01*
X028033D01*
Y03897D01*
X027953D01*
Y03893D01*
X027913D01*
Y03885D01*
X027953D01*
X027323Y035433D02*
Y035393D01*
X027403D01*
Y035433D01*
X027443D01*
Y035513D01*
X027403D01*
Y035553D01*
X027323D01*
Y035513D01*
X027283D01*
Y035433D01*
X027323D01*
X03126Y0353D02*
Y03526D01*
X03134D01*
Y0353D01*
X03138D01*
Y03538D01*
X03134D01*
Y03542D01*
X03126D01*
Y03538D01*
X03122D01*
Y0353D01*
X03126D01*
X02979Y03312D02*
Y03308D01*
X02987D01*
Y03312D01*
X02991D01*
Y0332D01*
X02987D01*
Y03324D01*
X02979D01*
Y0332D01*
X02975D01*
Y03312D01*
X02979D01*
X02842Y04496D02*
Y04492D01*
X0285D01*
Y04496D01*
X02854D01*
Y04504D01*
X0285D01*
Y04508D01*
X02842D01*
Y04504D01*
X02838D01*
Y04496D01*
X02842D01*
X02793Y04495D02*
Y04491D01*
X02801D01*
Y04495D01*
X02805D01*
Y04503D01*
X02801D01*
Y04507D01*
X02793D01*
Y04503D01*
X02789D01*
Y04495D01*
X02793D01*
X02893Y04031D02*
Y04027D01*
X02901D01*
Y04031D01*
X02905D01*
Y04039D01*
X02901D01*
Y04043D01*
X02893D01*
Y04039D01*
X02889D01*
Y04031D01*
X02893D01*
X02711Y0375D02*
Y03746D01*
X02719D01*
Y0375D01*
X02723D01*
Y03758D01*
X02719D01*
Y03762D01*
X02711D01*
Y03758D01*
X02707D01*
Y0375D01*
X02711D01*
X02688Y0378D02*
Y03776D01*
X02696D01*
Y0378D01*
X027D01*
Y03788D01*
X02696D01*
Y03792D01*
X02688D01*
Y03788D01*
X02684D01*
Y0378D01*
X02688D01*
X02468Y044948D02*
Y044908D01*
X02476D01*
Y044948D01*
X0248D01*
Y045028D01*
X02476D01*
Y045068D01*
X02468D01*
Y045028D01*
X02464D01*
Y044948D01*
X02468D01*
X02919Y045616D02*
Y045576D01*
X02927D01*
Y045616D01*
X02931D01*
Y045696D01*
X02927D01*
Y045736D01*
X02919D01*
Y045696D01*
X02915D01*
Y045616D01*
X02919D01*
X0299Y04352D02*
Y04348D01*
X02998D01*
Y04352D01*
X03002D01*
Y0436D01*
X02998D01*
Y04364D01*
X0299D01*
Y0436D01*
X02986D01*
Y04352D01*
X0299D01*
X02942Y04354D02*
Y0435D01*
X0295D01*
Y04354D01*
X02954D01*
Y04362D01*
X0295D01*
Y04366D01*
X02942D01*
Y04362D01*
X02938D01*
Y04354D01*
X02942D01*
X028105Y04034D02*
Y0403D01*
X028185D01*
Y04034D01*
X028225D01*
Y04042D01*
X028185D01*
Y04046D01*
X028105D01*
Y04042D01*
X028065D01*
Y04034D01*
X028105D01*
X02979Y03424D02*
Y0342D01*
X02987D01*
Y03424D01*
X02991D01*
Y03432D01*
X02987D01*
Y03436D01*
X02979D01*
Y03432D01*
X02975D01*
Y03424D01*
X02979D01*
X02241Y04114D02*
Y0411D01*
X02249D01*
Y04114D01*
X02253D01*
Y04122D01*
X02249D01*
Y04126D01*
X02241D01*
Y04122D01*
X02237D01*
Y04114D01*
X02241D01*
X01494Y0418D02*
Y04176D01*
X01502D01*
Y0418D01*
X01506D01*
Y04188D01*
X01502D01*
Y04192D01*
X01494D01*
Y04188D01*
X0149D01*
Y0418D01*
X01494D01*
X01788Y04003D02*
Y03999D01*
X01796D01*
Y04003D01*
X018D01*
Y04011D01*
X01796D01*
Y04015D01*
X01788D01*
Y04011D01*
X01784D01*
Y04003D01*
X01788D01*
X019818Y034232D02*
Y034192D01*
X019898D01*
Y034232D01*
X019938D01*
Y034312D01*
X019898D01*
Y034352D01*
X019818D01*
Y034312D01*
X019778D01*
Y034232D01*
X019818D01*
X020553Y036747D02*
Y036707D01*
X020633D01*
Y036747D01*
X020673D01*
Y036827D01*
X020633D01*
Y036867D01*
X020553D01*
Y036827D01*
X020513D01*
Y036747D01*
X020553D01*
X020074Y03544D02*
Y0354D01*
X020154D01*
Y03544D01*
X020194D01*
Y03552D01*
X020154D01*
Y03556D01*
X020074D01*
Y03552D01*
X020034D01*
Y03544D01*
X020074D01*
X01934Y03848D02*
Y03844D01*
X01942D01*
Y03848D01*
X01946D01*
Y03856D01*
X01942D01*
Y0386D01*
X01934D01*
Y03856D01*
X0193D01*
Y03848D01*
X01934D01*
X02017Y03677D02*
Y03673D01*
X02025D01*
Y03677D01*
X02029D01*
Y03685D01*
X02025D01*
Y03689D01*
X02017D01*
Y03685D01*
X02013D01*
Y03677D01*
X02017D01*
X01824Y033336D02*
Y033296D01*
X01832D01*
Y033336D01*
X01836D01*
Y033416D01*
X01832D01*
Y033456D01*
X01824D01*
Y033416D01*
X0182D01*
Y033336D01*
X01824D01*
X01814Y036363D02*
Y036323D01*
X01822D01*
Y036363D01*
X01826D01*
Y036443D01*
X01822D01*
Y036483D01*
X01814D01*
Y036443D01*
X0181D01*
Y036363D01*
X01814D01*
X01789Y03472D02*
Y03468D01*
X01797D01*
Y03472D01*
X01801D01*
Y0348D01*
X01797D01*
Y03484D01*
X01789D01*
Y0348D01*
X01785D01*
Y03472D01*
X01789D01*
X01477Y03383D02*
Y03379D01*
X01485D01*
Y03383D01*
X01489D01*
Y03391D01*
X01485D01*
Y03395D01*
X01477D01*
Y03391D01*
X01473D01*
Y03383D01*
X01477D01*
X01456Y03661D02*
Y03657D01*
X01464D01*
Y03661D01*
X01468D01*
Y03669D01*
X01464D01*
Y03673D01*
X01456D01*
Y03669D01*
X01452D01*
Y03661D01*
X01456D01*
D93*
X03339Y03866D02*
G03*
X03339Y03866I-00008J0D01*
G01*
Y03966D02*
G03*
X03339Y03966I-00008J0D01*
G01*
Y04066D02*
G03*
X03339Y04066I-00008J0D01*
G01*
X03239Y03866D02*
G03*
X03239Y03866I-00008J0D01*
G01*
Y03966D02*
G03*
X03239Y03966I-00008J0D01*
G01*
Y04066D02*
G03*
X03239Y04066I-00008J0D01*
G01*
M02*
