G04*
G04 #@! TF.GenerationSoftware,Altium Limited,Altium Designer,18.1.6 (161)*
G04*
G04 Layer_Color=65535*
%FSTAX24Y24*%
%MOIN*%
G70*
G01*
G75*
%ADD10C,0.0000*%
%ADD11C,0.0060*%
%ADD12C,0.0120*%
%ADD13C,0.0098*%
%ADD14C,0.0100*%
%ADD15C,0.0079*%
%ADD16C,0.0050*%
%ADD17C,0.0070*%
%ADD18C,0.0040*%
%ADD19C,0.0039*%
%ADD20C,0.0059*%
%ADD21R,0.0500X0.1000*%
G36*
X01316Y03508D02*
X01291Y03533D01*
Y03518D01*
X01266D01*
Y03498D01*
X01291D01*
Y03483D01*
X01316Y03508D01*
D02*
G37*
G36*
Y0394D02*
X01291Y03965D01*
Y0395D01*
X01266D01*
Y0393D01*
X01291D01*
Y03915D01*
X01316Y0394D01*
D02*
G37*
G36*
X01314Y043756D02*
X01289Y044006D01*
Y043856D01*
X01264D01*
Y043656D01*
X01289D01*
Y043506D01*
X01314Y043756D01*
D02*
G37*
G36*
X03799Y032365D02*
X03824Y032115D01*
Y032265D01*
X03849D01*
Y032465D01*
X03824D01*
Y032615D01*
X03799Y032365D01*
D02*
G37*
G36*
X03804Y0384D02*
X03829Y03815D01*
Y0383D01*
X03854D01*
Y0385D01*
X03829D01*
Y03865D01*
X03804Y0384D01*
D02*
G37*
G36*
X03046Y045114D02*
X03071Y045414D01*
X03021D01*
X03046Y045114D01*
D02*
G37*
G36*
X03804Y04507D02*
X03829Y04482D01*
Y04497D01*
X03854D01*
Y04517D01*
X03829D01*
Y04532D01*
X03804Y04507D01*
D02*
G37*
D10*
X026478Y038214D02*
G03*
X026478Y038214I-0001J0D01*
G01*
X016599Y03494D02*
G03*
X016599Y03494I-000088J0D01*
G01*
D11*
X027211Y037818D02*
G03*
X027211Y037818I-000141J0D01*
G01*
X026811Y038076D02*
X029489D01*
X026811Y035399D02*
Y038076D01*
Y035399D02*
X029489D01*
Y038076D01*
D12*
X02482Y03917D02*
G03*
X02302Y03917I-0009J0D01*
G01*
Y03669D02*
G03*
X02482Y03669I0009J0D01*
G01*
X02302D02*
Y03917D01*
X02482Y03669D02*
Y03917D01*
D13*
X01737Y039361D02*
G03*
X01737Y039361I-000049J0D01*
G01*
X019559Y037299D02*
G03*
X019559Y037299I-000049J0D01*
G01*
D14*
X017371Y039361D02*
G03*
X017371Y039361I-00005J0D01*
G01*
X01956Y037299D02*
G03*
X01956Y037299I-00005J0D01*
G01*
X02666Y045014D02*
X03076D01*
X02666Y041414D02*
Y045014D01*
Y041414D02*
X03076D01*
Y045014D01*
X03046Y045114D02*
X03071Y045414D01*
X03021D02*
X03071D01*
X03021D02*
X03046Y045114D01*
X02427Y04472D02*
X02472D01*
X02326D02*
X02371D01*
X02374Y04311D02*
X02424D01*
Y04411D01*
X02374D02*
X02424D01*
X02374Y04311D02*
Y04411D01*
X02326Y0425D02*
Y04472D01*
X02472Y0425D02*
Y04472D01*
X02427Y0425D02*
X02472D01*
X02326D02*
X02371D01*
X03426Y03261D02*
X03456D01*
Y03331D01*
X03426D02*
X03456D01*
X03426Y03761D02*
X03456D01*
Y03831D01*
X03426D02*
X03456D01*
X03426Y03196D02*
Y03896D01*
Y03196D02*
X03661D01*
Y03896D01*
X03426D02*
X03661D01*
X03426Y04531D02*
X03661D01*
Y04021D02*
Y04531D01*
X03426Y04021D02*
X03661D01*
X03426D02*
Y04531D01*
Y04461D02*
X03456D01*
Y04391D02*
Y04461D01*
X03426Y04391D02*
X03456D01*
X03426Y04161D02*
X03456D01*
Y04091D02*
Y04161D01*
X03426Y04091D02*
X03456D01*
D15*
X020823Y036638D02*
G03*
X020823Y036638I-000039J0D01*
G01*
X032261Y03589D02*
X032961D01*
X032261Y03749D02*
X032961D01*
X032261Y03589D02*
Y03682D01*
Y036834D02*
Y03749D01*
X032961Y036834D02*
Y03749D01*
Y03589D02*
Y03684D01*
X031382Y03589D02*
X032082D01*
X031382Y03749D02*
X032082D01*
X031382Y03589D02*
Y03682D01*
Y036834D02*
Y03749D01*
X032082Y036834D02*
Y03749D01*
Y03589D02*
Y03684D01*
X03181Y04116D02*
X03381D01*
X03181Y03816D02*
Y04116D01*
Y03816D02*
X03381D01*
Y04116D01*
X031359Y047112D02*
X032544D01*
X031359Y044475D02*
Y047112D01*
Y044475D02*
X032544D01*
Y047112D01*
X031367Y04534D02*
X032533D01*
X02934Y046956D02*
X03004D01*
X02934Y045356D02*
X03004D01*
Y046026D02*
Y046956D01*
Y045356D02*
Y046011D01*
X02934Y045356D02*
Y046011D01*
Y046006D02*
Y046956D01*
X028461D02*
X029161D01*
X028461Y045356D02*
X029161D01*
Y046026D02*
Y046956D01*
Y045356D02*
Y046011D01*
X028461Y045356D02*
Y046011D01*
Y046006D02*
Y046956D01*
X02513Y04366D02*
X02583D01*
X02513Y04526D02*
X02583D01*
X02513Y04366D02*
Y04459D01*
Y044604D02*
Y04526D01*
X02583Y044604D02*
Y04526D01*
Y04366D02*
Y04461D01*
X02513Y041881D02*
X02583D01*
X02513Y043481D02*
X02583D01*
X02513Y041881D02*
Y042811D01*
Y042826D02*
Y043481D01*
X02583Y042826D02*
Y043481D01*
Y041881D02*
Y042831D01*
X02195Y035786D02*
X02265D01*
X02195Y037386D02*
X02265D01*
X02195Y035786D02*
Y036716D01*
Y03673D02*
Y037386D01*
X02265Y03673D02*
Y037386D01*
Y035786D02*
Y036736D01*
X02195Y04012D02*
X02265D01*
X02195Y03852D02*
X02265D01*
Y03919D02*
Y04012D01*
Y03852D02*
Y039176D01*
X02195Y03852D02*
Y039176D01*
Y03917D02*
Y04012D01*
X01458Y04419D02*
X01538D01*
Y04193D02*
Y04419D01*
X01469Y04291D02*
Y04319D01*
X01526Y04291D02*
Y04319D01*
X01458Y04193D02*
X01538D01*
X01458D02*
Y04419D01*
Y03951D02*
X01538D01*
X01458D02*
Y04177D01*
X01527Y04051D02*
Y04079D01*
X0147Y04051D02*
Y04079D01*
X01458Y04177D02*
X01538D01*
Y03951D02*
Y04177D01*
X01854Y03722D02*
X01924D01*
X01854Y03882D02*
X01924D01*
X01854Y03722D02*
Y03815D01*
Y038164D02*
Y03882D01*
X01924Y038164D02*
Y03882D01*
Y03722D02*
Y03817D01*
X01853Y035531D02*
X01923D01*
X01853Y033931D02*
X01923D01*
Y034601D02*
Y035531D01*
Y033931D02*
Y034587D01*
X01853Y033931D02*
Y034587D01*
Y034581D02*
Y035531D01*
X015788Y035603D02*
Y035918D01*
X014798Y035613D02*
Y035928D01*
X01455Y03306D02*
Y03376D01*
X01615Y03306D02*
Y03376D01*
X01455D02*
X01548D01*
X015494D02*
X01615D01*
X015494Y03306D02*
X01615D01*
X01455D02*
X0155D01*
X03071Y038274D02*
Y03788D01*
X030972Y038274D02*
Y03788D01*
X03071Y038086D02*
X030972D01*
X031081Y038274D02*
Y03788D01*
Y038274D02*
X031212D01*
X031269Y038255D01*
X031306Y038217D01*
X031325Y03818D01*
X031344Y038124D01*
Y03803D01*
X031325Y037974D01*
X031306Y037936D01*
X031269Y037899D01*
X031212Y03788D01*
X031081D01*
X031657Y038274D02*
X031469D01*
X03145Y038105D01*
X031469Y038124D01*
X031525Y038142D01*
X031582D01*
X031638Y038124D01*
X031675Y038086D01*
X031694Y03803D01*
Y037992D01*
X031675Y037936D01*
X031638Y037899D01*
X031582Y03788D01*
X031525D01*
X031469Y037899D01*
X03145Y037917D01*
X031432Y037955D01*
X03429Y039684D02*
Y03929D01*
X034552Y039684D02*
Y03929D01*
X03429Y039496D02*
X034552D01*
X034661Y039684D02*
Y03929D01*
Y039684D02*
X034792D01*
X034849Y039665D01*
X034886Y039627D01*
X034905Y03959D01*
X034924Y039534D01*
Y03944D01*
X034905Y039384D01*
X034886Y039346D01*
X034849Y039309D01*
X034792Y03929D01*
X034661D01*
X035199Y039684D02*
X035012Y039421D01*
X035293D01*
X035199Y039684D02*
Y03929D01*
X01626Y037484D02*
Y037202D01*
X016279Y037146D01*
X016316Y037109D01*
X016372Y03709D01*
X01641D01*
X016466Y037109D01*
X016504Y037146D01*
X016522Y037202D01*
Y037484D01*
X01665Y03739D02*
Y037409D01*
X016669Y037446D01*
X016687Y037465D01*
X016725Y037484D01*
X0168D01*
X016837Y037465D01*
X016856Y037446D01*
X016875Y037409D01*
Y037371D01*
X016856Y037334D01*
X016819Y037277D01*
X016631Y03709D01*
X016894D01*
X0149Y039404D02*
Y039122D01*
X014919Y039066D01*
X014956Y039029D01*
X015012Y03901D01*
X01505D01*
X015106Y039029D01*
X015144Y039066D01*
X015162Y039122D01*
Y039404D01*
X015459D02*
X015271Y039141D01*
X015552D01*
X015459Y039404D02*
Y03901D01*
X014116Y03531D02*
X01451D01*
X014116D02*
Y035554D01*
X014304Y03531D02*
Y03546D01*
X014191Y035599D02*
X014173Y035636D01*
X014116Y035692D01*
X01451D01*
X02664Y047834D02*
X02679Y047646D01*
Y04744D01*
X02694Y047834D02*
X02679Y047646D01*
X027009Y04774D02*
Y047759D01*
X027028Y047796D01*
X027047Y047815D01*
X027084Y047834D01*
X027159D01*
X027197Y047815D01*
X027215Y047796D01*
X027234Y047759D01*
Y047721D01*
X027215Y047684D01*
X027178Y047627D01*
X026991Y04744D01*
X027253D01*
X02492Y039904D02*
X02507Y039716D01*
Y03951D01*
X02522Y039904D02*
X02507Y039716D01*
X025271Y039829D02*
X025308Y039847D01*
X025364Y039904D01*
Y03951D01*
X025976Y04435D02*
X026258D01*
X026314Y044369D01*
X026351Y044406D01*
X02637Y044462D01*
Y0445D01*
X026351Y044556D01*
X026314Y044594D01*
X026258Y044612D01*
X025976D01*
X026033Y044946D02*
X025995Y044927D01*
X025976Y044871D01*
Y044834D01*
X025995Y044777D01*
X026051Y04474D01*
X026145Y044721D01*
X026239D01*
X026314Y04474D01*
X026351Y044777D01*
X02637Y044834D01*
Y044852D01*
X026351Y044909D01*
X026314Y044946D01*
X026258Y044965D01*
X026239D01*
X026183Y044946D01*
X026145Y044909D01*
X026126Y044852D01*
Y044834D01*
X026145Y044777D01*
X026183Y04474D01*
X026239Y044721D01*
X02543Y038734D02*
Y038452D01*
X025449Y038396D01*
X025486Y038359D01*
X025542Y03834D01*
X02558D01*
X025636Y038359D01*
X025674Y038396D01*
X025692Y038452D01*
Y038734D01*
X026026D02*
X025839D01*
X02582Y038565D01*
X025839Y038584D01*
X025895Y038602D01*
X025951D01*
X026007Y038584D01*
X026045Y038546D01*
X026064Y03849D01*
Y038452D01*
X026045Y038396D01*
X026007Y038359D01*
X025951Y03834D01*
X025895D01*
X025839Y038359D01*
X02582Y038377D01*
X025801Y038415D01*
X02008Y033214D02*
Y032932D01*
X020099Y032876D01*
X020136Y032839D01*
X020192Y03282D01*
X02023D01*
X020286Y032839D01*
X020324Y032876D01*
X020342Y032932D01*
Y033214D01*
X020489D02*
X020695D01*
X020582Y033064D01*
X020639D01*
X020676Y033045D01*
X020695Y033026D01*
X020714Y03297D01*
Y032932D01*
X020695Y032876D01*
X020657Y032839D01*
X020601Y03282D01*
X020545D01*
X020489Y032839D01*
X02047Y032857D01*
X020451Y032895D01*
X021206Y03809D02*
X021488D01*
X021544Y038109D01*
X021581Y038146D01*
X0216Y038202D01*
Y03824D01*
X021581Y038296D01*
X021544Y038334D01*
X021488Y038352D01*
X021206D01*
X021281Y038461D02*
X021263Y038499D01*
X021206Y038555D01*
X0216D01*
X023176Y04502D02*
X02357D01*
X023176D02*
Y045189D01*
X023195Y045245D01*
X023214Y045264D01*
X023251Y045282D01*
X023289D01*
X023326Y045264D01*
X023345Y045245D01*
X023364Y045189D01*
Y04502D01*
Y045151D02*
X02357Y045282D01*
X023233Y045633D02*
X023195Y045595D01*
X023176Y045539D01*
Y045464D01*
X023195Y045408D01*
X023233Y045371D01*
X02327D01*
X023308Y045389D01*
X023326Y045408D01*
X023345Y045445D01*
X023383Y045558D01*
X023401Y045595D01*
X02342Y045614D01*
X023458Y045633D01*
X023514D01*
X023551Y045595D01*
X02357Y045539D01*
Y045464D01*
X023551Y045408D01*
X023514Y045371D01*
X023176Y045852D02*
X02357D01*
X023176Y045721D02*
Y045983D01*
X03286Y035524D02*
Y03513D01*
Y035524D02*
X033029D01*
X033085Y035505D01*
X033104Y035486D01*
X033122Y035449D01*
Y035411D01*
X033104Y035374D01*
X033085Y035355D01*
X033029Y035336D01*
X03286D01*
X032991D02*
X033122Y03513D01*
X033211Y035449D02*
X033248Y035467D01*
X033304Y035524D01*
Y03513D01*
X033724Y035524D02*
X033537D01*
X033518Y035355D01*
X033537Y035374D01*
X033593Y035392D01*
X033649D01*
X033705Y035374D01*
X033743Y035336D01*
X033762Y03528D01*
Y035242D01*
X033743Y035186D01*
X033705Y035149D01*
X033649Y03513D01*
X033593D01*
X033537Y035149D01*
X033518Y035167D01*
X033499Y035205D01*
X02761Y041384D02*
Y04099D01*
Y041384D02*
X027779D01*
X027835Y041365D01*
X027854Y041346D01*
X027872Y041309D01*
Y041271D01*
X027854Y041234D01*
X027835Y041215D01*
X027779Y041196D01*
X02761D01*
X027741D02*
X027872Y04099D01*
X027961Y041309D02*
X027998Y041327D01*
X028054Y041384D01*
Y04099D01*
X028437Y041384D02*
X028249Y041121D01*
X02853D01*
X028437Y041384D02*
Y04099D01*
X02864Y041384D02*
Y04099D01*
Y041384D02*
X028809D01*
X028865Y041365D01*
X028884Y041346D01*
X028902Y041309D01*
Y041271D01*
X028884Y041234D01*
X028865Y041215D01*
X028809Y041196D01*
X02864D01*
X028771D02*
X028902Y04099D01*
X028991Y041309D02*
X029028Y041327D01*
X029084Y041384D01*
Y04099D01*
X029317Y041384D02*
X029523D01*
X02941Y041234D01*
X029467D01*
X029504Y041215D01*
X029523Y041196D01*
X029542Y04114D01*
Y041102D01*
X029523Y041046D01*
X029485Y041009D01*
X029429Y04099D01*
X029373D01*
X029317Y041009D01*
X029298Y041027D01*
X029279Y041065D01*
X025626Y04013D02*
X02602D01*
X025626D02*
Y040299D01*
X025645Y040355D01*
X025664Y040374D01*
X025701Y040392D01*
X025739D01*
X025776Y040374D01*
X025795Y040355D01*
X025814Y040299D01*
Y04013D01*
Y040261D02*
X02602Y040392D01*
X025701Y040481D02*
X025683Y040518D01*
X025626Y040574D01*
X02602D01*
X02572Y040788D02*
X025701D01*
X025664Y040807D01*
X025645Y040825D01*
X025626Y040863D01*
Y040938D01*
X025645Y040975D01*
X025664Y040994D01*
X025701Y041013D01*
X025739D01*
X025776Y040994D01*
X025833Y040957D01*
X02602Y040769D01*
Y041032D01*
X031096Y04013D02*
X03149D01*
X031096D02*
Y040299D01*
X031115Y040355D01*
X031134Y040374D01*
X031171Y040392D01*
X031209D01*
X031246Y040374D01*
X031265Y040355D01*
X031284Y040299D01*
Y04013D01*
Y040261D02*
X03149Y040392D01*
X031171Y040481D02*
X031153Y040518D01*
X031096Y040574D01*
X03149D01*
X031171Y040769D02*
X031153Y040807D01*
X031096Y040863D01*
X03149D01*
X021516Y04254D02*
X02191D01*
X021516D02*
Y042709D01*
X021535Y042765D01*
X021554Y042784D01*
X021591Y042802D01*
X021629D01*
X021666Y042784D01*
X021685Y042765D01*
X021704Y042709D01*
Y04254D01*
Y042671D02*
X02191Y042802D01*
X021591Y042891D02*
X021573Y042928D01*
X021516Y042984D01*
X02191D01*
X021516Y043292D02*
X021535Y043235D01*
X021591Y043198D01*
X021685Y043179D01*
X021741D01*
X021835Y043198D01*
X021891Y043235D01*
X02191Y043292D01*
Y043329D01*
X021891Y043385D01*
X021835Y043423D01*
X021741Y043442D01*
X021685D01*
X021591Y043423D01*
X021535Y043385D01*
X021516Y043329D01*
Y043292D01*
X0211Y035104D02*
Y03471D01*
Y035104D02*
X021269D01*
X021325Y035085D01*
X021344Y035066D01*
X021362Y035029D01*
Y034991D01*
X021344Y034954D01*
X021325Y034935D01*
X021269Y034916D01*
X0211D01*
X021231D02*
X021362Y03471D01*
X021694Y034972D02*
X021675Y034916D01*
X021638Y034879D01*
X021582Y03486D01*
X021563D01*
X021507Y034879D01*
X021469Y034916D01*
X021451Y034972D01*
Y034991D01*
X021469Y035047D01*
X021507Y035085D01*
X021563Y035104D01*
X021582D01*
X021638Y035085D01*
X021675Y035047D01*
X021694Y034972D01*
Y034879D01*
X021675Y034785D01*
X021638Y034729D01*
X021582Y03471D01*
X021544D01*
X021488Y034729D01*
X021469Y034766D01*
X023146Y04044D02*
X02354D01*
X023146D02*
Y040609D01*
X023165Y040665D01*
X023184Y040684D01*
X023221Y040702D01*
X023259D01*
X023296Y040684D01*
X023315Y040665D01*
X023334Y040609D01*
Y04044D01*
Y040571D02*
X02354Y040702D01*
X023146Y040884D02*
X023165Y040828D01*
X023203Y040809D01*
X02324D01*
X023278Y040828D01*
X023296Y040865D01*
X023315Y04094D01*
X023334Y040997D01*
X023371Y041034D01*
X023409Y041053D01*
X023465D01*
X023503Y041034D01*
X023521Y041015D01*
X02354Y040959D01*
Y040884D01*
X023521Y040828D01*
X023503Y040809D01*
X023465Y040791D01*
X023409D01*
X023371Y040809D01*
X023334Y040847D01*
X023315Y040903D01*
X023296Y040978D01*
X023278Y041015D01*
X02324Y041034D01*
X023203D01*
X023165Y041015D01*
X023146Y040959D01*
Y040884D01*
X018Y041474D02*
Y04108D01*
Y041474D02*
X018169D01*
X018225Y041455D01*
X018244Y041436D01*
X018262Y041399D01*
Y041361D01*
X018244Y041324D01*
X018225Y041305D01*
X018169Y041286D01*
X018D01*
X018131D02*
X018262Y04108D01*
X018613Y041474D02*
X018425Y04108D01*
X018351Y041474D02*
X018613D01*
X01902Y041514D02*
Y04112D01*
Y041514D02*
X019189D01*
X019245Y041495D01*
X019264Y041476D01*
X019282Y041439D01*
Y041401D01*
X019264Y041364D01*
X019245Y041345D01*
X019189Y041326D01*
X01902D01*
X019151D02*
X019282Y04112D01*
X019595Y041457D02*
X019577Y041495D01*
X01952Y041514D01*
X019483D01*
X019427Y041495D01*
X019389Y041439D01*
X019371Y041345D01*
Y041251D01*
X019389Y041176D01*
X019427Y041139D01*
X019483Y04112D01*
X019502D01*
X019558Y041139D01*
X019595Y041176D01*
X019614Y041232D01*
Y041251D01*
X019595Y041307D01*
X019558Y041345D01*
X019502Y041364D01*
X019483D01*
X019427Y041345D01*
X019389Y041307D01*
X019371Y041251D01*
X01664Y032754D02*
Y03236D01*
Y032754D02*
X016809D01*
X016865Y032735D01*
X016884Y032716D01*
X016902Y032679D01*
Y032641D01*
X016884Y032604D01*
X016865Y032585D01*
X016809Y032566D01*
X01664D01*
X016771D02*
X016902Y03236D01*
X017215Y032754D02*
X017028D01*
X017009Y032585D01*
X017028Y032604D01*
X017084Y032622D01*
X01714D01*
X017197Y032604D01*
X017234Y032566D01*
X017253Y03251D01*
Y032472D01*
X017234Y032416D01*
X017197Y032379D01*
X01714Y03236D01*
X017084D01*
X017028Y032379D01*
X017009Y032397D01*
X016991Y032435D01*
X01816Y032754D02*
Y03236D01*
Y032754D02*
X018329D01*
X018385Y032735D01*
X018404Y032716D01*
X018422Y032679D01*
Y032641D01*
X018404Y032604D01*
X018385Y032585D01*
X018329Y032566D01*
X01816D01*
X018291D02*
X018422Y03236D01*
X018698Y032754D02*
X018511Y032491D01*
X018792D01*
X018698Y032754D02*
Y03236D01*
X014046Y03821D02*
X01444D01*
X014046D02*
Y038379D01*
X014065Y038435D01*
X014084Y038454D01*
X014121Y038472D01*
X014159D01*
X014196Y038454D01*
X014215Y038435D01*
X014234Y038379D01*
Y03821D01*
Y038341D02*
X01444Y038472D01*
X014046Y038598D02*
Y038804D01*
X014196Y038692D01*
Y038748D01*
X014215Y038785D01*
X014234Y038804D01*
X01429Y038823D01*
X014328D01*
X014384Y038804D01*
X014421Y038767D01*
X01444Y03871D01*
Y038654D01*
X014421Y038598D01*
X014403Y038579D01*
X014365Y038561D01*
X016396Y0382D02*
X01679D01*
X016396D02*
Y038369D01*
X016415Y038425D01*
X016434Y038444D01*
X016471Y038462D01*
X016509D01*
X016546Y038444D01*
X016565Y038425D01*
X016584Y038369D01*
Y0382D01*
Y038331D02*
X01679Y038462D01*
X01649Y038569D02*
X016471D01*
X016434Y038588D01*
X016415Y038607D01*
X016396Y038644D01*
Y038719D01*
X016415Y038757D01*
X016434Y038775D01*
X016471Y038794D01*
X016509D01*
X016546Y038775D01*
X016603Y038738D01*
X01679Y038551D01*
Y038813D01*
X018056Y03669D02*
X01845D01*
X018056D02*
Y036859D01*
X018075Y036915D01*
X018094Y036934D01*
X018131Y036952D01*
X018169D01*
X018206Y036934D01*
X018225Y036915D01*
X018244Y036859D01*
Y03669D01*
Y036821D02*
X01845Y036952D01*
X018131Y037041D02*
X018113Y037078D01*
X018056Y037134D01*
X01845D01*
X021516Y04399D02*
X02191D01*
Y044215D01*
X021516Y044502D02*
Y044258D01*
X02191D01*
Y044502D01*
X021704Y044258D02*
Y044408D01*
X021516Y044567D02*
X02191D01*
X021516D02*
Y044699D01*
X021535Y044755D01*
X021573Y044792D01*
X02161Y044811D01*
X021666Y04483D01*
X02176D01*
X021816Y044811D01*
X021854Y044792D01*
X021891Y044755D01*
X02191Y044699D01*
Y044567D01*
X021516Y045105D02*
X021779Y044918D01*
Y045199D01*
X021516Y045105D02*
X02191D01*
X0235Y034325D02*
Y033931D01*
X023725D01*
X024012Y034325D02*
X023768D01*
Y033931D01*
X024012D01*
X023768Y034137D02*
X023918D01*
X024077Y034325D02*
Y033931D01*
Y034325D02*
X024209D01*
X024265Y034306D01*
X024302Y034269D01*
X024321Y034231D01*
X02434Y034175D01*
Y034081D01*
X024321Y034025D01*
X024302Y033987D01*
X024265Y03395D01*
X024209Y033931D01*
X024077D01*
X024465Y034325D02*
X024671D01*
X024559Y034175D01*
X024615D01*
X024653Y034156D01*
X024671Y034137D01*
X02469Y034081D01*
Y034044D01*
X024671Y033987D01*
X024634Y03395D01*
X024578Y033931D01*
X024522D01*
X024465Y03395D01*
X024447Y033969D01*
X024428Y034006D01*
X03063Y034744D02*
Y03435D01*
X030855D01*
X031085Y034744D02*
X030898Y034481D01*
X031179D01*
X031085Y034744D02*
Y03435D01*
X03284Y046564D02*
Y04617D01*
X033065D01*
X033146Y046564D02*
X033352D01*
X033239Y046414D01*
X033295D01*
X033333Y046395D01*
X033352Y046376D01*
X03337Y04632D01*
Y046282D01*
X033352Y046226D01*
X033314Y046189D01*
X033258Y04617D01*
X033202D01*
X033146Y046189D01*
X033127Y046207D01*
X033108Y046245D01*
X02144Y041654D02*
Y04126D01*
X021665D01*
X021727Y04156D02*
Y041579D01*
X021746Y041616D01*
X021764Y041635D01*
X021802Y041654D01*
X021877D01*
X021914Y041635D01*
X021933Y041616D01*
X021952Y041579D01*
Y041541D01*
X021933Y041504D01*
X021895Y041447D01*
X021708Y04126D01*
X02197D01*
X01919Y043994D02*
Y0436D01*
X019415D01*
X019458Y043919D02*
X019496Y043937D01*
X019552Y043994D01*
Y0436D01*
X036776Y040927D02*
X037076D01*
X037133Y040909D01*
X037151Y04089D01*
X03717Y040852D01*
Y040815D01*
X037151Y040777D01*
X037133Y040759D01*
X037076Y04074D01*
X037039D01*
X036776Y041066D02*
Y041272D01*
X036926Y04116D01*
Y041216D01*
X036945Y041254D01*
X036964Y041272D01*
X03702Y041291D01*
X037058D01*
X037114Y041272D01*
X037151Y041235D01*
X03717Y041179D01*
Y041122D01*
X037151Y041066D01*
X037133Y041047D01*
X037095Y041029D01*
X036756Y034537D02*
X037056D01*
X037113Y034519D01*
X037131Y0345D01*
X03715Y034462D01*
Y034425D01*
X037131Y034387D01*
X037113Y034369D01*
X037056Y03435D01*
X037019D01*
X03685Y034657D02*
X036831D01*
X036794Y034676D01*
X036775Y034695D01*
X036756Y034732D01*
Y034807D01*
X036775Y034845D01*
X036794Y034864D01*
X036831Y034882D01*
X036869D01*
X036906Y034864D01*
X036963Y034826D01*
X03715Y034639D01*
Y034901D01*
X036726Y047807D02*
X037026D01*
X037083Y047789D01*
X037101Y04777D01*
X03712Y047732D01*
Y047695D01*
X037101Y047657D01*
X037083Y047639D01*
X037026Y04762D01*
X036989D01*
X036801Y047909D02*
X036783Y047946D01*
X036726Y048002D01*
X03712D01*
X03429Y046034D02*
Y04564D01*
X034552Y046034D02*
Y04564D01*
X03429Y045846D02*
X034552D01*
X034661Y046034D02*
Y04564D01*
Y046034D02*
X034792D01*
X034849Y046015D01*
X034886Y045977D01*
X034905Y04594D01*
X034924Y045884D01*
Y04579D01*
X034905Y045734D01*
X034886Y045696D01*
X034849Y045659D01*
X034792Y04564D01*
X034661D01*
X035237Y045977D02*
X035218Y046015D01*
X035162Y046034D01*
X035124D01*
X035068Y046015D01*
X03503Y045959D01*
X035012Y045865D01*
Y045771D01*
X03503Y045696D01*
X035068Y045659D01*
X035124Y04564D01*
X035143D01*
X035199Y045659D01*
X035237Y045696D01*
X035255Y045752D01*
Y045771D01*
X035237Y045827D01*
X035199Y045865D01*
X035143Y045884D01*
X035124D01*
X035068Y045865D01*
X03503Y045827D01*
X035012Y045771D01*
X011036Y04332D02*
X01143D01*
X011036Y043582D02*
X01143D01*
X011224Y04332D02*
Y043582D01*
X011036Y043691D02*
X01143D01*
X011036D02*
Y043822D01*
X011055Y043879D01*
X011093Y043916D01*
X01113Y043935D01*
X011186Y043954D01*
X01128D01*
X011336Y043935D01*
X011374Y043916D01*
X011411Y043879D01*
X01143Y043822D01*
Y043691D01*
X01113Y04406D02*
X011111D01*
X011074Y044079D01*
X011055Y044098D01*
X011036Y044135D01*
Y04421D01*
X011055Y044248D01*
X011074Y044267D01*
X011111Y044285D01*
X011149D01*
X011186Y044267D01*
X011243Y044229D01*
X01143Y044042D01*
Y044304D01*
X011036Y0389D02*
X01143D01*
X011036Y039162D02*
X01143D01*
X011224Y0389D02*
Y039162D01*
X011036Y039271D02*
X01143D01*
X011036D02*
Y039402D01*
X011055Y039459D01*
X011093Y039496D01*
X01113Y039515D01*
X011186Y039534D01*
X01128D01*
X011336Y039515D01*
X011374Y039496D01*
X011411Y039459D01*
X01143Y039402D01*
Y039271D01*
X011111Y039622D02*
X011093Y039659D01*
X011036Y039715D01*
X01143D01*
X011036Y034743D02*
X01143D01*
X011036Y035006D02*
X01143D01*
X011224Y034743D02*
Y035006D01*
X011036Y035114D02*
X01143D01*
X011036D02*
Y035246D01*
X011055Y035302D01*
X011093Y035339D01*
X01113Y035358D01*
X011186Y035377D01*
X01128D01*
X011336Y035358D01*
X011374Y035339D01*
X011411Y035302D01*
X01143Y035246D01*
Y035114D01*
X011036Y035502D02*
Y035709D01*
X011186Y035596D01*
Y035652D01*
X011205Y03569D01*
X011224Y035709D01*
X01128Y035727D01*
X011318D01*
X011374Y035709D01*
X011411Y035671D01*
X01143Y035615D01*
Y035559D01*
X011411Y035502D01*
X011393Y035484D01*
X011355Y035465D01*
X030696Y04603D02*
X03109D01*
X030696D02*
Y046161D01*
X030715Y046217D01*
X030753Y046255D01*
X03079Y046274D01*
X030846Y046292D01*
X03094D01*
X030996Y046274D01*
X031034Y046255D01*
X031071Y046217D01*
X03109Y046161D01*
Y04603D01*
X03079Y046399D02*
X030771D01*
X030734Y046418D01*
X030715Y046437D01*
X030696Y046474D01*
Y046549D01*
X030715Y046587D01*
X030734Y046605D01*
X030771Y046624D01*
X030809D01*
X030846Y046605D01*
X030903Y046568D01*
X03109Y046381D01*
Y046643D01*
X02023Y042774D02*
Y04238D01*
Y042774D02*
X020361D01*
X020417Y042755D01*
X020455Y042717D01*
X020474Y04268D01*
X020492Y042624D01*
Y04253D01*
X020474Y042474D01*
X020455Y042436D01*
X020417Y042399D01*
X020361Y04238D01*
X02023D01*
X020581Y042699D02*
X020618Y042717D01*
X020674Y042774D01*
Y04238D01*
X02869Y047451D02*
X028653Y047432D01*
X028615Y047395D01*
X028596Y047357D01*
Y047282D01*
X028615Y047245D01*
X028653Y047207D01*
X02869Y047189D01*
X028746Y04717D01*
X02884D01*
X028896Y047189D01*
X028934Y047207D01*
X028971Y047245D01*
X02899Y047282D01*
Y047357D01*
X028971Y047395D01*
X028934Y047432D01*
X028896Y047451D01*
X028671Y047562D02*
X028653Y047599D01*
X028596Y047655D01*
X02899D01*
X028596Y047888D02*
Y048094D01*
X028746Y047982D01*
Y048038D01*
X028765Y048075D01*
X028784Y048094D01*
X02884Y048113D01*
X028878D01*
X028934Y048094D01*
X028971Y048057D01*
X02899Y048D01*
Y047944D01*
X028971Y047888D01*
X028953Y047869D01*
X028915Y04785D01*
X0296Y047451D02*
X029563Y047432D01*
X029525Y047395D01*
X029506Y047357D01*
Y047282D01*
X029525Y047245D01*
X029563Y047207D01*
X0296Y047189D01*
X029656Y04717D01*
X02975D01*
X029806Y047189D01*
X029844Y047207D01*
X029881Y047245D01*
X0299Y047282D01*
Y047357D01*
X029881Y047395D01*
X029844Y047432D01*
X029806Y047451D01*
X029581Y047562D02*
X029563Y047599D01*
X029506Y047655D01*
X0299D01*
X0296Y047869D02*
X029581D01*
X029544Y047888D01*
X029525Y047907D01*
X029506Y047944D01*
Y048019D01*
X029525Y048057D01*
X029544Y048075D01*
X029581Y048094D01*
X029619D01*
X029656Y048075D01*
X029713Y048038D01*
X0299Y04785D01*
Y048113D01*
X025391Y04149D02*
X025372Y041527D01*
X025335Y041565D01*
X025297Y041584D01*
X025222D01*
X025185Y041565D01*
X025147Y041527D01*
X025129Y04149D01*
X02511Y041434D01*
Y04134D01*
X025129Y041284D01*
X025147Y041246D01*
X025185Y041209D01*
X025222Y04119D01*
X025297D01*
X025335Y041209D01*
X025372Y041246D01*
X025391Y041284D01*
X025502Y041509D02*
X025539Y041527D01*
X025595Y041584D01*
Y04119D01*
X02579Y041509D02*
X025828Y041527D01*
X025884Y041584D01*
Y04119D01*
X025301Y04582D02*
X025282Y045857D01*
X025245Y045895D01*
X025207Y045914D01*
X025132D01*
X025095Y045895D01*
X025057Y045857D01*
X025039Y04582D01*
X02502Y045764D01*
Y04567D01*
X025039Y045614D01*
X025057Y045576D01*
X025095Y045539D01*
X025132Y04552D01*
X025207D01*
X025245Y045539D01*
X025282Y045576D01*
X025301Y045614D01*
X025412Y045839D02*
X025449Y045857D01*
X025505Y045914D01*
Y04552D01*
X025813Y045914D02*
X025757Y045895D01*
X025719Y045839D01*
X0257Y045745D01*
Y045689D01*
X025719Y045595D01*
X025757Y045539D01*
X025813Y04552D01*
X02585D01*
X025907Y045539D01*
X025944Y045595D01*
X025963Y045689D01*
Y045745D01*
X025944Y045839D01*
X025907Y045895D01*
X02585Y045914D01*
X025813D01*
X02152Y036451D02*
X021483Y036432D01*
X021445Y036395D01*
X021426Y036357D01*
Y036282D01*
X021445Y036245D01*
X021483Y036207D01*
X02152Y036189D01*
X021576Y03617D01*
X02167D01*
X021726Y036189D01*
X021764Y036207D01*
X021801Y036245D01*
X02182Y036282D01*
Y036357D01*
X021801Y036395D01*
X021764Y036432D01*
X021726Y036451D01*
X021558Y036805D02*
X021614Y036787D01*
X021651Y036749D01*
X02167Y036693D01*
Y036674D01*
X021651Y036618D01*
X021614Y03658D01*
X021558Y036562D01*
X021539D01*
X021483Y03658D01*
X021445Y036618D01*
X021426Y036674D01*
Y036693D01*
X021445Y036749D01*
X021483Y036787D01*
X021558Y036805D01*
X021651D01*
X021745Y036787D01*
X021801Y036749D01*
X02182Y036693D01*
Y036655D01*
X021801Y036599D01*
X021764Y03658D01*
X02152Y039371D02*
X021483Y039352D01*
X021445Y039315D01*
X021426Y039277D01*
Y039202D01*
X021445Y039165D01*
X021483Y039127D01*
X02152Y039109D01*
X021576Y03909D01*
X02167D01*
X021726Y039109D01*
X021764Y039127D01*
X021801Y039165D01*
X02182Y039202D01*
Y039277D01*
X021801Y039315D01*
X021764Y039352D01*
X021726Y039371D01*
X021426Y039575D02*
X021445Y039519D01*
X021483Y0395D01*
X02152D01*
X021558Y039519D01*
X021576Y039557D01*
X021595Y039632D01*
X021614Y039688D01*
X021651Y039725D01*
X021689Y039744D01*
X021745D01*
X021783Y039725D01*
X021801Y039707D01*
X02182Y03965D01*
Y039575D01*
X021801Y039519D01*
X021783Y0395D01*
X021745Y039482D01*
X021689D01*
X021651Y0395D01*
X021614Y039538D01*
X021595Y039594D01*
X021576Y039669D01*
X021558Y039707D01*
X02152Y039725D01*
X021483D01*
X021445Y039707D01*
X021426Y03965D01*
Y039575D01*
X03087Y036831D02*
X030833Y036812D01*
X030795Y036775D01*
X030776Y036737D01*
Y036662D01*
X030795Y036625D01*
X030833Y036587D01*
X03087Y036569D01*
X030926Y03655D01*
X03102D01*
X031076Y036569D01*
X031114Y036587D01*
X031151Y036625D01*
X03117Y036662D01*
Y036737D01*
X031151Y036775D01*
X031114Y036812D01*
X031076Y036831D01*
X030776Y037204D02*
X03117Y037017D01*
X030776Y036942D02*
Y037204D01*
X03322Y036831D02*
X033183Y036812D01*
X033145Y036775D01*
X033126Y036737D01*
Y036662D01*
X033145Y036625D01*
X033183Y036587D01*
X03322Y036569D01*
X033276Y03655D01*
X03337D01*
X033426Y036569D01*
X033464Y036587D01*
X033501Y036625D01*
X03352Y036662D01*
Y036737D01*
X033501Y036775D01*
X033464Y036812D01*
X033426Y036831D01*
X033183Y037167D02*
X033145Y037148D01*
X033126Y037092D01*
Y037054D01*
X033145Y036998D01*
X033201Y03696D01*
X033295Y036942D01*
X033389D01*
X033464Y03696D01*
X033501Y036998D01*
X03352Y037054D01*
Y037073D01*
X033501Y037129D01*
X033464Y037167D01*
X033408Y037185D01*
X033389D01*
X033333Y037167D01*
X033295Y037129D01*
X033276Y037073D01*
Y037054D01*
X033295Y036998D01*
X033333Y03696D01*
X033389Y036942D01*
X01413Y039941D02*
X014093Y039922D01*
X014055Y039885D01*
X014036Y039847D01*
Y039772D01*
X014055Y039735D01*
X014093Y039697D01*
X01413Y039679D01*
X014186Y03966D01*
X01428D01*
X014336Y039679D01*
X014374Y039697D01*
X014411Y039735D01*
X01443Y039772D01*
Y039847D01*
X014411Y039885D01*
X014374Y039922D01*
X014336Y039941D01*
X014036Y040239D02*
X014299Y040052D01*
Y040333D01*
X014036Y040239D02*
X01443D01*
X01414Y042161D02*
X014103Y042142D01*
X014065Y042105D01*
X014046Y042067D01*
Y041992D01*
X014065Y041955D01*
X014103Y041917D01*
X01414Y041899D01*
X014196Y04188D01*
X01429D01*
X014346Y041899D01*
X014384Y041917D01*
X014421Y041955D01*
X01444Y041992D01*
Y042067D01*
X014421Y042105D01*
X014384Y042142D01*
X014346Y042161D01*
X014046Y042309D02*
Y042515D01*
X014196Y042403D01*
Y042459D01*
X014215Y042497D01*
X014234Y042515D01*
X01429Y042534D01*
X014328D01*
X014384Y042515D01*
X014421Y042478D01*
X01444Y042422D01*
Y042365D01*
X014421Y042309D01*
X014403Y04229D01*
X014365Y042272D01*
X015111Y03266D02*
X015092Y032697D01*
X015055Y032735D01*
X015017Y032754D01*
X014942D01*
X014905Y032735D01*
X014867Y032697D01*
X014849Y03266D01*
X01483Y032604D01*
Y03251D01*
X014849Y032454D01*
X014867Y032416D01*
X014905Y032379D01*
X014942Y03236D01*
X015017D01*
X015055Y032379D01*
X015092Y032416D01*
X015111Y032454D01*
X015447Y032754D02*
X015259D01*
X01524Y032585D01*
X015259Y032604D01*
X015315Y032622D01*
X015372D01*
X015428Y032604D01*
X015465Y032566D01*
X015484Y03251D01*
Y032472D01*
X015465Y032416D01*
X015428Y032379D01*
X015372Y03236D01*
X015315D01*
X015259Y032379D01*
X01524Y032397D01*
X015222Y032435D01*
X01813Y034181D02*
X018093Y034162D01*
X018055Y034125D01*
X018036Y034087D01*
Y034012D01*
X018055Y033975D01*
X018093Y033937D01*
X01813Y033919D01*
X018186Y0339D01*
X01828D01*
X018336Y033919D01*
X018374Y033937D01*
X018411Y033975D01*
X01843Y034012D01*
Y034087D01*
X018411Y034125D01*
X018374Y034162D01*
X018336Y034181D01*
X01813Y03431D02*
X018111D01*
X018074Y034329D01*
X018055Y034348D01*
X018036Y034385D01*
Y03446D01*
X018055Y034498D01*
X018074Y034517D01*
X018111Y034535D01*
X018149D01*
X018186Y034517D01*
X018243Y034479D01*
X01843Y034292D01*
Y034554D01*
X018961Y03924D02*
X018942Y039277D01*
X018905Y039315D01*
X018867Y039334D01*
X018792D01*
X018755Y039315D01*
X018717Y039277D01*
X018699Y03924D01*
X01868Y039184D01*
Y03909D01*
X018699Y039034D01*
X018717Y038996D01*
X018755Y038959D01*
X018792Y03894D01*
X018867D01*
X018905Y038959D01*
X018942Y038996D01*
X018961Y039034D01*
X019072Y039259D02*
X019109Y039277D01*
X019165Y039334D01*
Y03894D01*
D16*
X03178Y04238D02*
X03382D01*
X03178Y04332D02*
X03382D01*
X03277Y04147D02*
Y04427D01*
X03178Y04147D02*
Y04427D01*
X03382D01*
Y04147D02*
Y04427D01*
X03178Y04147D02*
X03382D01*
X03137Y03501D02*
X03277D01*
Y03568D01*
X03137D02*
X03277D01*
X03137Y03501D02*
Y03568D01*
Y03487D02*
X03277D01*
X03137Y0342D02*
Y03487D01*
Y0342D02*
X03277D01*
Y03487D01*
X029445Y040225D02*
X030845D01*
Y040895D01*
X029445D02*
X030845D01*
X029445Y040225D02*
Y040895D01*
X028625Y03946D02*
Y04086D01*
Y03946D02*
X029295D01*
Y04086D01*
X028625D02*
X029295D01*
X027805Y03946D02*
Y04086D01*
Y03946D02*
X028475D01*
Y04086D01*
X027805D02*
X028475D01*
X02621Y040905D02*
X02761D01*
X02621Y040235D02*
Y040905D01*
Y040235D02*
X02761D01*
Y040905D01*
X02433Y04043D02*
Y04183D01*
X02366D02*
X02433D01*
X02366Y04043D02*
Y04183D01*
Y04043D02*
X02433D01*
X02276Y04224D02*
Y04364D01*
X02209D02*
X02276D01*
X02209Y04224D02*
Y04364D01*
Y04224D02*
X02276D01*
Y04065D02*
Y04205D01*
X02209D02*
X02276D01*
X02209Y04065D02*
Y04205D01*
Y04065D02*
X02276D01*
X02185Y03455D02*
X02325D01*
Y03522D01*
X02185D02*
X02325D01*
X02185Y03455D02*
Y03522D01*
X01697Y04418D02*
X01756D01*
X01696Y04133D02*
X01755D01*
X01891Y03941D02*
Y04081D01*
Y03941D02*
X01958D01*
Y04081D01*
X01891D02*
X01958D01*
X01877Y03941D02*
Y04081D01*
X0181D02*
X01877D01*
X0181Y03941D02*
Y04081D01*
Y03941D02*
X01877D01*
X019787Y04198D02*
X019957D01*
X021213Y039517D02*
Y041643D01*
X019787Y039517D02*
Y04198D01*
Y03918D02*
Y039517D01*
Y03918D02*
X021213D01*
Y039517D01*
X019787Y03978D02*
X02005D01*
X02095D02*
X021213D01*
X019957Y04198D02*
X021213D01*
Y041643D02*
Y04198D01*
X016955Y03885D02*
X018355D01*
X016955Y03818D02*
Y03885D01*
Y03818D02*
X018355D01*
Y03885D01*
X01461Y03818D02*
X01601D01*
Y03885D01*
X01461D02*
X01601D01*
X01461Y03818D02*
Y03885D01*
X01922Y0357D02*
Y0371D01*
X01855D02*
X01922D01*
X01855Y0357D02*
Y0371D01*
Y0357D02*
X01922D01*
X020838Y034004D02*
Y035776D01*
X019646Y034004D02*
Y035776D01*
X016314Y034743D02*
X018046D01*
Y036397D01*
X016314D02*
X018046D01*
X016314Y034743D02*
Y036397D01*
X017865Y033716D02*
X019265D01*
X017865Y033046D02*
Y033716D01*
Y033046D02*
X019265D01*
Y033716D01*
X016314Y033046D02*
X017714D01*
Y033716D01*
X016314D02*
X017714D01*
X016314Y033046D02*
Y033716D01*
X03279Y04447D02*
X03346D01*
X03279D02*
Y04587D01*
X03346D01*
Y04447D02*
Y04587D01*
D17*
X032381Y03659D02*
Y03677D01*
X032841Y0366D02*
Y03678D01*
X031502Y03659D02*
Y03677D01*
X031962Y0366D02*
Y03678D01*
X04119Y032765D02*
X04139D01*
X04119Y031965D02*
Y032765D01*
Y031965D02*
X04139D01*
X03799Y029865D02*
Y034865D01*
X03854Y029865D02*
Y034865D01*
X03739Y029865D02*
X04139D01*
X03739D02*
Y034865D01*
X04139D01*
Y029865D02*
Y034865D01*
Y03515D02*
Y04165D01*
X03739D02*
X04139D01*
X03739Y03515D02*
Y04165D01*
Y03515D02*
X04139D01*
X03854D02*
Y04165D01*
X03799Y03515D02*
Y04165D01*
X04114Y0388D02*
X04134D01*
X04114Y038D02*
Y0388D01*
Y038D02*
X04134D01*
X04139Y04182D02*
Y04832D01*
X03739D02*
X04139D01*
X03739Y04182D02*
Y04832D01*
Y04182D02*
X04139D01*
X03854D02*
Y04832D01*
X03799Y04182D02*
Y04832D01*
X04114Y04547D02*
X04134D01*
X04114Y04467D02*
Y04547D01*
Y04467D02*
X04134D01*
X02992Y046076D02*
Y046256D01*
X02946Y046066D02*
Y046246D01*
X029041Y046076D02*
Y046256D01*
X028581Y046066D02*
Y046246D01*
X02525Y04436D02*
Y04454D01*
X02571Y04437D02*
Y04455D01*
X02525Y042581D02*
Y042761D01*
X02571Y042591D02*
Y042771D01*
X02207Y036486D02*
Y036666D01*
X02253Y036496D02*
Y036676D01*
Y03924D02*
Y03942D01*
X02207Y03923D02*
Y03941D01*
X01276Y03713D02*
X01306D01*
X00891Y03383D02*
X00946D01*
Y03438D01*
X00891D02*
X00946D01*
X00891Y03583D02*
X00946D01*
Y03638D01*
X00891D02*
X00946D01*
X00891Y03308D02*
Y03708D01*
Y03308D02*
X01276D01*
X00891Y03708D02*
X01391D01*
Y03308D02*
Y03706D01*
X01306Y03308D02*
Y03318D01*
X01276D02*
X01306D01*
X01276Y03308D02*
Y03318D01*
X01306Y03308D02*
X01391D01*
X01276Y04145D02*
X01306D01*
X00891Y03815D02*
X00946D01*
Y0387D01*
X00891D02*
X00946D01*
X00891Y04015D02*
X00946D01*
Y0407D01*
X00891D02*
X00946D01*
X00891Y0374D02*
Y0414D01*
Y0374D02*
X01276D01*
X00891Y0414D02*
X01391D01*
Y0374D02*
Y04138D01*
X01306Y0374D02*
Y0375D01*
X01276D02*
X01306D01*
X01276Y0374D02*
Y0375D01*
X01306Y0374D02*
X01391D01*
X01274Y045806D02*
X01304D01*
X00889Y042506D02*
X00944D01*
Y043056D01*
X00889D02*
X00944D01*
X00889Y044506D02*
X00944D01*
Y045056D01*
X00889D02*
X00944D01*
X00889Y041756D02*
Y045756D01*
Y041756D02*
X01274D01*
X00889Y045756D02*
X01389D01*
Y041756D02*
Y045736D01*
X01304Y041756D02*
Y041856D01*
X01274D02*
X01304D01*
X01274Y041756D02*
Y041856D01*
X01304Y041756D02*
X01389D01*
X01866Y03792D02*
Y0381D01*
X01912Y03793D02*
Y03811D01*
X01911Y034651D02*
Y034831D01*
X01865Y034641D02*
Y034821D01*
X01525Y03364D02*
X01543D01*
X01526Y03318D02*
X01544D01*
D18*
X0319Y0356D02*
X03224D01*
X0319Y0351D02*
X03224D01*
X0319Y03428D02*
X03224D01*
X0319Y03478D02*
X03224D01*
X029975Y040815D02*
X030315D01*
X029975Y040315D02*
X030315D01*
X029215Y03999D02*
Y04033D01*
X028715Y03999D02*
Y04033D01*
X028395Y03999D02*
Y04033D01*
X027895Y03999D02*
Y04033D01*
X02674Y040315D02*
X02708D01*
X02674Y040815D02*
X02708D01*
X03062Y04004D02*
Y04009D01*
X02972D02*
X03062D01*
X02972Y04004D02*
Y04009D01*
X03062Y03939D02*
Y03944D01*
X02972Y03939D02*
X03062D01*
X02972D02*
Y03944D01*
X02649Y03939D02*
Y03944D01*
Y03939D02*
X02739D01*
Y03944D01*
X02649Y04004D02*
Y04009D01*
X02739D01*
Y04004D02*
Y04009D01*
X022735Y04409D02*
X022785D01*
Y04499D01*
X022735D02*
X022785D01*
X022085Y04409D02*
X022135D01*
X022085D02*
Y04499D01*
X022135D01*
X02374Y04096D02*
Y0413D01*
X02424Y04096D02*
Y0413D01*
X02217Y04277D02*
Y04311D01*
X02267Y04277D02*
Y04311D01*
X02217Y04118D02*
Y04152D01*
X02267Y04118D02*
Y04152D01*
X02368Y0345D02*
Y03455D01*
Y0345D02*
X02458D01*
Y03455D01*
X02368Y03515D02*
Y0352D01*
X02458D01*
Y03515D02*
Y0352D01*
X02238Y03514D02*
X02272D01*
X02238Y03464D02*
X02272D01*
X0195Y03994D02*
Y04028D01*
X019Y03994D02*
Y04028D01*
X01818Y03994D02*
Y04028D01*
X01868Y03994D02*
Y04028D01*
X01573Y039241D02*
X01773D01*
X01573D02*
Y040899D01*
X01773D01*
Y039241D02*
Y040899D01*
X01598Y039241D02*
X01758D01*
X019389Y03689D02*
Y03889D01*
X021048D01*
Y03689D02*
Y03889D01*
X019389Y03689D02*
X021048D01*
X019389Y03704D02*
Y03864D01*
X017485Y03826D02*
X017825D01*
X017485Y03876D02*
X017825D01*
X01809Y038D02*
Y03805D01*
X01719D02*
X01809D01*
X01719Y038D02*
Y03805D01*
X01809Y03735D02*
Y0374D01*
X01719Y03735D02*
X01809D01*
X01719D02*
Y0374D01*
X01514Y03877D02*
X01548D01*
X01514Y03827D02*
X01548D01*
X014875Y03735D02*
Y0374D01*
Y03735D02*
X015775D01*
Y0374D01*
X014875Y038D02*
Y03805D01*
X015775D01*
Y038D02*
Y03805D01*
X01863Y03623D02*
Y03657D01*
X01913Y03623D02*
Y03657D01*
X018395Y033126D02*
X018735D01*
X018395Y033626D02*
X018735D01*
X016844Y033636D02*
X017184D01*
X016844Y033136D02*
X017184D01*
X03337Y045D02*
Y04534D01*
X03287Y045D02*
Y04534D01*
D19*
X026121Y04586D02*
X02809D01*
X02612Y04586D02*
Y04712D01*
X026121Y04712D02*
X02809D01*
Y04586D02*
Y04712D01*
X01466Y034846D02*
Y03665D01*
X01592D01*
Y034846D02*
Y03665D01*
X01466Y034846D02*
X01592D01*
D20*
X032139Y043914D02*
X032094Y043899D01*
X032064Y043854D01*
X032049Y043779D01*
Y043734D01*
X032064Y043659D01*
X032094Y043614D01*
X032139Y043599D01*
X032169D01*
X032214Y043614D01*
X032244Y043659D01*
X032259Y043734D01*
Y043779D01*
X032244Y043854D01*
X032214Y043899D01*
X032169Y043914D01*
X032139D01*
X032329D02*
X032449Y043599D01*
X032569Y043914D02*
X032449Y043599D01*
X033139Y042919D02*
X033109Y042949D01*
X033064Y042964D01*
X033004D01*
X032959Y042949D01*
X032929Y042919D01*
Y042889D01*
X032944Y042859D01*
X032959Y042844D01*
X032989Y042829D01*
X033079Y042799D01*
X033109Y042784D01*
X033124Y042769D01*
X033139Y042739D01*
Y042694D01*
X033109Y042664D01*
X033064Y042649D01*
X033004D01*
X032959Y042664D01*
X032929Y042694D01*
X033434Y042889D02*
X033419Y042919D01*
X033389Y042949D01*
X033359Y042964D01*
X033299D01*
X033269Y042949D01*
X033239Y042919D01*
X033224Y042889D01*
X033209Y042844D01*
Y042769D01*
X033224Y042724D01*
X033239Y042694D01*
X033269Y042664D01*
X033299Y042649D01*
X033359D01*
X033389Y042664D01*
X033419Y042694D01*
X033434Y042724D01*
X033523Y042964D02*
Y042649D01*
X033733Y042964D02*
X033523Y042754D01*
X033598Y042829D02*
X033733Y042649D01*
X033129Y042074D02*
Y041759D01*
Y042074D02*
X033249Y041759D01*
X033369Y042074D02*
X033249Y041759D01*
X033369Y042074D02*
Y041759D01*
X033459Y042074D02*
Y041759D01*
X032201Y042084D02*
X032051D01*
X032036Y041949D01*
X032051Y041964D01*
X032096Y041979D01*
X032141D01*
X032186Y041964D01*
X032216Y041934D01*
X032231Y041889D01*
Y041859D01*
X032216Y041814D01*
X032186Y041784D01*
X032141Y041769D01*
X032096D01*
X032051Y041784D01*
X032036Y041799D01*
X032021Y041829D01*
X032301Y042084D02*
X032421Y041769D01*
X032541Y042084D02*
X032421Y041769D01*
X032019Y042984D02*
Y042669D01*
Y042984D02*
X032139Y042669D01*
X032259Y042984D02*
X032139Y042669D01*
X032259Y042984D02*
Y042669D01*
X032439Y042984D02*
X032409Y042969D01*
X032379Y042939D01*
X032364Y042909D01*
X032349Y042864D01*
Y042789D01*
X032364Y042744D01*
X032379Y042714D01*
X032409Y042684D01*
X032439Y042669D01*
X032499D01*
X032529Y042684D01*
X032559Y042714D01*
X032574Y042744D01*
X032589Y042789D01*
Y042864D01*
X032574Y042909D01*
X032559Y042939D01*
X032529Y042969D01*
X032499Y042984D01*
X032439D01*
X032939Y043914D02*
Y043599D01*
Y043914D02*
X033074D01*
X033119Y043899D01*
X033134Y043884D01*
X033149Y043854D01*
Y043824D01*
X033134Y043794D01*
X033119Y043779D01*
X033074Y043764D01*
X032939D01*
X033044D02*
X033149Y043599D01*
X033429Y043869D02*
X033399Y043899D01*
X033354Y043914D01*
X033294D01*
X033249Y043899D01*
X033219Y043869D01*
Y043839D01*
X033234Y043809D01*
X033249Y043794D01*
X033279Y043779D01*
X033369Y043749D01*
X033399Y043734D01*
X033414Y043719D01*
X033429Y043689D01*
Y043644D01*
X033399Y043614D01*
X033354Y043599D01*
X033294D01*
X033249Y043614D01*
X033219Y043644D01*
X033605Y043914D02*
Y043599D01*
X0335Y043914D02*
X03371D01*
D21*
X02399Y04361D02*
D03*
M02*
