G04*
G04 #@! TF.GenerationSoftware,Altium Limited,Altium Designer,18.1.6 (161)*
G04*
G04 Layer_Color=16711935*
%FSTAX24Y24*%
%MOIN*%
G70*
G01*
G75*
%ADD15C,0.0079*%
%ADD16C,0.0050*%
G36*
X027138Y034964D02*
X026955D01*
Y035357D01*
X027138D01*
Y034964D01*
D02*
G37*
G36*
X027453Y034966D02*
X027272D01*
Y035357D01*
X027453D01*
Y034966D01*
D02*
G37*
G36*
X027768Y034964D02*
X027587D01*
Y035357D01*
X027768D01*
Y034964D01*
D02*
G37*
G36*
X028083Y034967D02*
X027902D01*
Y035357D01*
X028083D01*
Y034967D01*
D02*
G37*
G36*
X02677Y035544D02*
X026378D01*
Y035725D01*
X02677D01*
Y035544D01*
D02*
G37*
G36*
Y035859D02*
X026378D01*
Y03604D01*
X02677D01*
Y035859D01*
D02*
G37*
G36*
Y036174D02*
X026378D01*
Y036355D01*
X02677D01*
Y036174D01*
D02*
G37*
G36*
Y03649D02*
X026377D01*
Y03667D01*
X02677D01*
Y03649D01*
D02*
G37*
G36*
Y036805D02*
X026378D01*
Y036985D01*
X02677D01*
Y036805D01*
D02*
G37*
G36*
Y03712D02*
X026378D01*
Y0373D01*
X02677D01*
Y03712D01*
D02*
G37*
G36*
Y037436D02*
X026376D01*
Y037615D01*
X02677D01*
Y037436D01*
D02*
G37*
G36*
Y03775D02*
X02638D01*
Y03793D01*
X02677D01*
Y03775D01*
D02*
G37*
G36*
X027138Y038119D02*
X026956D01*
Y038508D01*
X027138D01*
Y038119D01*
D02*
G37*
G36*
X027453Y03812D02*
X027271D01*
Y038508D01*
X027453D01*
Y03812D01*
D02*
G37*
G36*
X027768Y038119D02*
X027587D01*
Y038508D01*
X027768D01*
Y038119D01*
D02*
G37*
G36*
X028083Y038121D02*
X027902D01*
Y038508D01*
X028083D01*
Y038121D01*
D02*
G37*
G36*
X028397Y034965D02*
X028218D01*
Y035357D01*
X028397D01*
Y034965D01*
D02*
G37*
G36*
X028712Y034967D02*
X028533D01*
Y035357D01*
X028712D01*
Y034967D01*
D02*
G37*
G36*
X029027Y034964D02*
X028849D01*
Y035357D01*
X029027D01*
Y034964D01*
D02*
G37*
G36*
X029342Y034965D02*
X029164D01*
Y035357D01*
X029342D01*
Y034965D01*
D02*
G37*
G36*
X02992Y035545D02*
X029531D01*
Y035725D01*
X02992D01*
Y035545D01*
D02*
G37*
G36*
Y035858D02*
X029533D01*
Y03604D01*
X02992D01*
Y035858D01*
D02*
G37*
G36*
Y036174D02*
X029532D01*
Y036355D01*
X02992D01*
Y036174D01*
D02*
G37*
G36*
Y03649D02*
X029532D01*
Y03667D01*
X02992D01*
Y03649D01*
D02*
G37*
G36*
X028397Y038118D02*
X028217D01*
Y038508D01*
X028397D01*
Y038118D01*
D02*
G37*
G36*
X028712Y038119D02*
X028533D01*
Y038508D01*
X028712D01*
Y038119D01*
D02*
G37*
G36*
X029027Y03812D02*
X028848D01*
Y038508D01*
X029027D01*
Y03812D01*
D02*
G37*
G36*
X029342Y038121D02*
X029164D01*
Y038508D01*
X029342D01*
Y038121D01*
D02*
G37*
G36*
X02992Y036805D02*
X029531D01*
Y036985D01*
X02992D01*
Y036805D01*
D02*
G37*
G36*
Y037121D02*
X029532D01*
Y0373D01*
X02992D01*
Y037121D01*
D02*
G37*
G36*
Y037436D02*
X029532D01*
Y037615D01*
X02992D01*
Y037436D01*
D02*
G37*
G36*
Y037751D02*
X029532D01*
Y03793D01*
X02992D01*
Y037751D01*
D02*
G37*
D15*
X020823Y036638D02*
G03*
X020823Y036638I-000039J0D01*
G01*
D16*
X020838Y034004D02*
Y035776D01*
X019646Y034004D02*
Y035776D01*
X020838D01*
X019646Y034004D02*
X020838D01*
M02*
